<svg xmlns="http://www.w3.org/2000/svg" width="89.808" height="54.778" viewBox="0 0 89.808 54.778">
  <g id="Logo" transform="translate(-305.782 -45.814)">
    <g id="路径_1" data-name="路径 1" transform="translate(307.876 54.637) rotate(-30)" fill="#3d96a2">
      <path d="M 5.522343635559082 50.63341903686523 C 3.637533903121948 50.63341903686523 1.897133827209473 49.89503860473633 0.6217437982559204 48.55429840087891 C -0.7860361933708191 47.07440185546875 -1.49980616569519 45.02841949462891 -1.388086199760437 42.79325103759766 L 0.2957238256931305 9.106860160827637 C 0.5270738005638123 4.478529930114746 4.245934009552002 0.5258300304412842 8.585683822631836 0.2956200242042542 C 8.716733932495117 0.2886700034141541 8.849093437194824 0.2851400077342987 8.979084014892578 0.2851400077342987 C 10.86389350891113 0.2851400077342987 12.60429382324219 1.023519992828369 13.87968349456787 2.364259958267212 C 15.2874641418457 3.844160079956055 16.00123405456543 5.890140056610107 15.88951396942139 8.125309944152832 L 14.20570373535156 41.81171035766602 C 13.9743537902832 46.44004058837891 10.25549411773682 50.39273834228516 5.915743827819824 50.62294006347656 C 5.784693717956543 50.62989044189453 5.652333736419678 50.63341903686523 5.522343635559082 50.63341903686523 Z" stroke="none"/>
      <path d="M 8.979063987731934 1.035129547119141 C 8.862314224243164 1.035129547119141 8.743313789367676 1.038299560546875 8.62541389465332 1.044551849365234 C 6.728873729705811 1.145160675048828 4.894603729248047 2.036319732666016 3.460474014282227 3.553859710693359 C 2.005964279174805 5.092979431152344 1.148063659667969 7.078369140625 1.044794082641602 9.144298553466797 L -0.6390161514282227 42.8306884765625 C -0.7403860092163086 44.85868072509766 -0.09965610504150391 46.70777893066406 1.165143966674805 48.03738021850586 C 2.297563552856445 49.22782135009766 3.84498405456543 49.88341903686523 5.522343635559082 49.88341903686523 C 5.639113426208496 49.88341903686523 5.758113861083984 49.8802490234375 5.87601375579834 49.87400054931641 C 7.77255392074585 49.77339172363281 9.606834411621094 48.88224029541016 11.04095363616943 47.36468887329102 C 12.49546432495117 45.82558059692383 13.35336399078369 43.8401985168457 13.45663356781006 41.77426910400391 L 15.14044380187988 8.087871551513672 C 15.24181365966797 6.059890747070312 14.60108375549316 4.210781097412109 13.33627414703369 2.881179809570312 C 12.20385360717773 1.690738677978516 10.65643405914307 1.035129547119141 8.979063987731934 1.035129547119141 M 8.97906494140625 -0.4648704528808594 C 13.48573684692383 -0.4648704528808594 16.8812427520752 3.307933807373047 16.63857460021973 8.162750244140625 L 14.95476341247559 41.84915161132812 C 14.70439338684082 46.85805130004883 10.67527389526367 51.12152099609375 5.955473899841309 51.37189102172852 C 5.810284614562988 51.37959289550781 5.665378570556641 51.38341903686523 5.522346496582031 51.38341903686523 C 1.015673637390137 51.38341903686523 -2.379815101623535 47.61062622070312 -2.137146949768066 42.75580978393555 L -0.4533357620239258 9.069419860839844 C -0.2029657363891602 4.060520172119141 3.826153755187988 -0.2029685974121094 8.545953750610352 -0.453338623046875 C 8.691143035888672 -0.4610404968261719 8.836032867431641 -0.4648704528808594 8.97906494140625 -0.4648704528808594 Z" stroke="none" fill="#fff"/>
    </g>
    <g id="路径_2" data-name="路径 2" transform="matrix(0.848, 0.53, -0.53, 0.848, 348.338, 46.075)" fill="#3d96a2">
      <path d="M 11.74409484863281 51.40865325927734 C 11.60721492767334 51.40865325927734 11.46780490875244 51.40479278564453 11.32972431182861 51.39716339111328 C 6.969254970550537 51.15633392333984 3.22496485710144 47.20556259155273 2.983084678649902 42.59025192260742 L 1.222874760627747 9.003373146057129 C 1.106924772262573 6.790903091430664 1.810514807701111 4.763733386993408 3.204034805297852 3.295263290405273 C 4.479334831237793 1.951383233070374 6.226834774017334 1.211273193359375 8.124614715576172 1.211273193359375 C 8.261494636535645 1.211273193359375 8.400904655456543 1.215133190155029 8.538985252380371 1.222763180732727 C 12.89945507049561 1.463593244552612 16.64374542236328 5.414363384246826 16.88562393188477 10.02968311309814 L 18.64583396911621 43.61655426025391 C 18.76178550720215 45.82902145385742 18.05819511413574 47.85620498657227 16.66467475891113 49.32466506958008 C 15.38937473297119 50.66854476928711 13.64188480377197 51.40865325927734 11.74409484863281 51.40865325927734 Z" stroke="none"/>
      <path d="M 8.124614715576172 1.961273193359375 C 6.434615135192871 1.961273193359375 4.880324363708496 2.618373870849609 3.748064041137695 3.811534881591797 C 2.497585296630859 5.129264831542969 1.866775512695312 6.959152221679688 1.971845626831055 8.964122772216797 L 3.7320556640625 42.55100250244141 C 3.839935302734375 44.60930252075195 4.705405235290527 46.59008407592773 6.169064521789551 48.12846374511719 C 7.614765167236328 49.64798355102539 9.462214469909668 50.54287338256836 11.37112522125244 50.6483039855957 C 11.49535465240479 50.65517425537109 11.62084484100342 50.65865325927734 11.74409484863281 50.65865325927734 C 13.43408489227295 50.65865325927734 14.98837471008301 50.00155258178711 16.12064552307129 48.80839157104492 C 17.37112426757812 47.49065399169922 18.00193405151367 45.66076278686523 17.89686393737793 43.65580368041992 L 16.13665390014648 10.06893157958984 C 16.02877426147461 8.010631561279297 15.16330528259277 6.029853820800781 13.69964408874512 4.491462707519531 C 12.25394439697266 2.971942901611328 10.40649509429932 2.077053070068359 8.497584342956543 1.971622467041016 C 8.373354911804199 1.964752197265625 8.247864723205566 1.961273193359375 8.124614715576172 1.961273193359375 M 8.124612808227539 0.4612693786621094 C 8.275490760803223 0.4612693786621094 8.427051544189453 0.4654350280761719 8.580345153808594 0.4739036560058594 C 13.31914520263672 0.7356338500976562 17.37286376953125 4.996322631835938 17.63459396362305 9.990432739257812 L 19.39480400085449 43.57730102539062 C 19.64806747436523 48.40985107421875 16.25732040405273 52.15865707397461 11.74409484863281 52.15865707397461 C 11.59321784973145 52.15865707397461 11.44165802001953 52.15449142456055 11.28836441040039 52.14602279663086 C 6.549564361572266 51.88429260253906 2.495843887329102 47.62360382080078 2.234115600585938 42.62950134277344 L 0.4739055633544922 9.042621612548828 C 0.22064208984375 4.210067749023438 3.611387252807617 0.4612693786621094 8.124612808227539 0.4612693786621094 Z" stroke="none" fill="#fff"/>
    </g>
    <g id="路径_3" data-name="路径 3" transform="matrix(0.848, -0.53, 0.53, 0.848, 339.862, 55.972)" fill="#3d96a2">
      <path d="M 5.416599273681641 50.46084594726562 C 3.518639326095581 50.46084594726562 1.771079301834106 49.72078704833984 0.4958593547344208 48.37698745727539 C -0.8975606560707092 46.90861892700195 -1.60110068321228 44.88139724731445 -1.485140681266785 42.66874694824219 L 0.2750693261623383 9.081877708435059 C 0.5169493556022644 4.46655797958374 4.261239528656006 0.5157878398895264 8.621708869934082 0.2749578356742859 C 8.75978946685791 0.2673278152942657 8.899199485778809 0.2634678184986115 9.036079406738281 0.2634678184986115 C 10.93403911590576 0.2634678184986115 12.68158912658691 1.003527879714966 13.95680904388428 2.34733772277832 C 15.35023975372314 3.815697908401489 16.05377960205078 5.842927932739258 15.937819480896 8.055567741394043 L 14.17760944366455 41.64244842529297 C 13.93572902679443 46.25775909423828 10.19143962860107 50.20852661132812 5.830969333648682 50.44935607910156 C 5.692889213562012 50.45698928833008 5.553479194641113 50.46084594726562 5.416599273681641 50.46084594726562 Z" stroke="none"/>
      <path d="M 9.036079406738281 1.013469696044922 C 8.91288948059082 1.013469696044922 8.787389755249023 1.016948699951172 8.663068771362305 1.023818969726562 C 6.754199504852295 1.129249572753906 4.906749725341797 2.024139404296875 3.46104907989502 3.543659210205078 C 1.997389793395996 5.082038879394531 1.131918907165527 7.062816619873047 1.024039268493652 9.121116638183594 L -0.736170768737793 42.70800018310547 C -0.8412504196166992 44.71313858032227 -0.2105007171630859 46.54306793212891 1.039889335632324 47.8607063293457 C 2.172079086303711 49.05378723144531 3.726428985595703 49.71084594726562 5.416599273681641 49.71084594726562 C 5.539789199829102 49.71084594726562 5.665288925170898 49.70736694335938 5.789608955383301 49.70049667358398 C 7.698479175567627 49.59506607055664 9.545928955078125 48.70017623901367 10.9916296005249 47.18065643310547 C 12.45528984069824 45.64227676391602 13.32075881958008 43.6614990234375 13.42863941192627 41.60319900512695 L 15.18884944915771 8.016319274902344 C 15.29392910003662 6.011177062988281 14.66317939758301 4.181247711181641 13.4127893447876 2.863609313964844 C 12.28059959411621 1.670528411865234 10.72624969482422 1.013469696044922 9.036079406738281 1.013469696044922 M 9.036079406738281 -0.4865379333496094 C 13.54973220825195 -0.4865379333496094 16.9400691986084 3.261966705322266 16.68678855895996 8.094818115234375 L 14.92657947540283 41.68169784545898 C 14.66484928131104 46.67579650878906 10.61112976074219 50.93648910522461 5.872329711914062 51.19821929931641 C 5.719325065612793 51.20666885375977 5.567195892333984 51.21085357666016 5.416599273681641 51.21085357666016 C 0.9029464721679688 51.21085357666016 -2.487390518188477 47.46234893798828 -2.234109878540039 42.62949752807617 L -0.4739007949829102 9.042617797851562 C -0.2121706008911133 4.048519134521484 3.841548919677734 -0.2121734619140625 8.580348968505859 -0.4739036560058594 C 8.733353614807129 -0.4823532104492188 8.885482788085938 -0.4865379333496094 9.036079406738281 -0.4865379333496094 Z" stroke="none" fill="#fff"/>
    </g>
    <g id="路径_4" data-name="路径 4" transform="matrix(0.875, 0.485, -0.485, 0.875, 379.044, 45.228)" fill="#3d96a2">
      <path d="M 11.47973823547363 51.60385894775391 C 11.35328769683838 51.60385894775391 11.22455787658691 51.60050964355469 11.09711837768555 51.59389877319336 C 6.767358303070068 51.36925888061523 3.06112813949585 47.41595077514648 2.835318088531494 42.78129959106445 L 1.191638112068176 9.046059608459473 C 1.082208037376404 6.800079822540283 1.801368117332458 4.744839668273926 3.216648101806641 3.25892972946167 C 4.492588043212891 1.919319748878479 6.229708194732666 1.181559681892395 8.108037948608398 1.181559681892395 C 8.234488487243652 1.181559681892395 8.363218307495117 1.184909701347351 8.490657806396484 1.191519737243652 C 12.82041835784912 1.416159749031067 16.52664756774902 5.36946964263916 16.7524585723877 10.00411987304688 L 18.39613723754883 43.73936080932617 C 18.50556755065918 45.9853401184082 17.78640747070312 48.04058074951172 16.37112808227539 49.5264892578125 C 15.09518814086914 50.8661003112793 13.35806846618652 51.60385894775391 11.47973823547363 51.60385894775391 Z" stroke="none"/>
      <path d="M 8.108037948608398 1.931560516357422 C 6.436978340148926 1.931560516357422 4.892718315124512 2.586658477783203 3.75972843170166 3.776199340820312 C 2.487398147583008 5.112030029296875 1.841407775878906 6.970611572265625 1.94074821472168 9.009559631347656 L 3.584428787231445 42.74480056762695 C 3.685268402099609 44.81443023681641 4.539318084716797 46.80195999145508 5.989248275756836 48.34127044677734 C 7.417617797851562 49.85768127441406 9.245428085327148 50.74681854248047 11.1359281539917 50.84489822387695 C 11.2505578994751 50.85084915161133 11.36623764038086 50.85385894775391 11.47973823547363 50.85385894775391 C 13.15079879760742 50.85385894775391 14.69505786895752 50.19876098632812 15.82804775238037 49.00922012329102 C 17.10037803649902 47.67338943481445 17.74636840820312 45.81481170654297 17.64702796936035 43.77585983276367 L 16.00334739685059 10.04061889648438 C 15.90250778198242 7.970989227294922 15.04845809936523 5.98345947265625 13.5985279083252 4.444149017333984 C 12.17015838623047 2.927738189697266 10.34234809875488 2.038600921630859 8.451848030090332 1.940521240234375 C 8.337218284606934 1.9345703125 8.221538543701172 1.931560516357422 8.108037948608398 1.931560516357422 M 8.108037948608398 0.4315567016601562 C 8.247735977172852 0.4315567016601562 8.387770652770996 0.4351768493652344 8.529518127441406 0.4425315856933594 C 13.24023818969727 0.6869316101074219 17.25716781616211 4.951457977294922 17.50156784057617 9.967620849609375 L 19.14524841308594 43.70285797119141 C 19.38229370117188 48.56808090209961 15.98264789581299 52.35386276245117 11.47973823547363 52.35386276245117 C 11.34004020690918 52.35386276245117 11.20000553131104 52.35024261474609 11.05825805664062 52.34288787841797 C 6.347537994384766 52.09848785400391 2.330608367919922 47.83396148681641 2.086208343505859 42.81779861450195 L 0.4425277709960938 9.082561492919922 C 0.2054824829101562 4.217338562011719 3.605128288269043 0.4315567016601562 8.108037948608398 0.4315567016601562 Z" stroke="none" fill="#fff"/>
    </g>
  </g>
</svg>
