<svg xmlns="http://www.w3.org/2000/svg" width="422.139" height="200.197" viewBox="0 0 422.139 200.197">
  <g id="MainImg" transform="translate(-640.45 -394.814)">
    <g id="Logo" transform="translate(696.388 394.814)">
      <g id="路径_1" data-name="路径 1" transform="translate(0 34.699) rotate(-30)" fill="#3d96a2">
        <path d="M 28.03769493103027 186.9886779785156 C 21.08267021179199 186.9886779785156 14.66003799438477 184.2635498046875 9.952932357788086 179.3152923583984 C 7.439853668212891 176.6734771728516 5.517064094543457 173.5297393798828 4.237906455993652 169.9713897705078 C 2.90353798866272 166.2593688964844 2.332801103591919 162.2593078613281 2.541590452194214 158.0823974609375 L 8.695380210876465 34.96952438354492 C 8.903800964355469 30.79970741271973 9.876590728759766 26.71139144897461 11.5867223739624 22.81807518005371 C 13.24145889282227 19.05091857910156 15.51185417175293 15.62618064880371 18.33485412597656 12.63894462585449 C 21.14961624145508 9.660470962524414 24.36856460571289 7.270680904388428 27.90227508544922 5.535970687866211 C 31.53472137451172 3.75275993347168 35.34269714355469 2.744312763214111 39.22037887573242 2.538628578186035 C 39.70356369018555 2.512996912002563 40.19156265258789 2.499996900558472 40.67085266113281 2.499996900558472 C 47.62588119506836 2.499996900558472 54.04851150512695 5.225128650665283 58.755615234375 10.17339134216309 C 61.26866912841797 12.81520748138428 63.19148635864258 15.95894432067871 64.47064208984375 19.51731300354004 C 65.80500793457031 23.22933959960938 66.37574768066406 27.2293643951416 66.16696166992188 31.40631294250488 L 60.01316833496094 154.5192108154297 C 59.80474853515625 158.6889953613281 58.83195877075195 162.77734375 57.121826171875 166.6706237792969 C 55.46711730957031 170.4377899169922 53.19672393798828 173.8625183105469 50.37369537353516 176.8497619628906 C 47.5589599609375 179.8282318115234 44.34001159667969 182.218017578125 40.80630111694336 183.9527282714844 C 37.17385482788086 185.7359161376953 33.36587905883789 186.7443695068359 29.48819541931152 186.9500427246094 C 29.00501251220703 186.9756774902344 28.51701164245605 186.9886779785156 28.03769493103027 186.9886779785156 Z" stroke="none"/>
        <path d="M 40.67089080810547 4.999984741210938 C 40.23568725585938 4.999984741210938 39.79221343994141 5.011810302734375 39.35280609130859 5.035110473632812 C 35.81380462646484 5.22283935546875 32.33195114135742 6.146392822265625 29.00395202636719 7.780136108398438 C 25.73912811279297 9.382843017578125 22.7608642578125 11.59530639648438 20.15186309814453 14.3560791015625 C 17.52636337280273 17.13430786132812 15.41471481323242 20.31961059570312 13.87562942504883 23.823486328125 C 12.28827285766602 27.43731689453125 11.38545227050781 31.2293701171875 11.19224548339844 35.09431457519531 L 5.0384521484375 158.2071838378906 C 4.846244812011719 162.0525512695312 5.368423461914062 165.72607421875 6.590511322021484 169.1256561279297 C 7.751422882080078 172.3550720214844 9.49212646484375 175.2036285400391 11.76427459716797 177.5922241210938 C 13.83697891235352 179.7711029052734 16.26800918579102 181.4732513427734 18.98983383178711 182.6513671875 C 21.80644989013672 183.8705444335938 24.85057067871094 184.4886932373047 28.03768539428711 184.4886932373047 C 28.47286224365234 184.4886932373047 28.91633224487305 184.4768676757812 29.35574722290039 184.4535675048828 C 32.89474487304688 184.2658386230469 36.37662887573242 183.34228515625 39.70462799072266 181.7085418701172 C 42.96945190429688 180.1058349609375 45.94771575927734 177.8934020996094 48.55671691894531 175.1326293945312 C 51.18221664428711 172.3544006347656 53.2938346862793 169.1690979003906 54.83292388916016 165.6652221679688 C 56.42030334472656 162.0513916015625 57.32312774658203 158.2593383789062 57.51630401611328 154.3943939208984 L 63.67006683349609 31.28150939941406 C 63.86227416992188 27.43612670898438 63.3400993347168 23.76263427734375 62.11801147460938 20.36299133300781 C 60.95712661743164 17.13357543945312 59.21642303466797 14.28501892089844 56.94427490234375 11.89645385742188 C 54.87156677246094 9.717575073242188 52.4405403137207 8.015426635742188 49.71871566772461 6.837310791015625 C 46.90213012695312 5.618133544921875 43.85797882080078 4.999984741210938 40.67089080810547 4.999984741210938 M 40.67090225219727 0 C 57.14131546020508 0 69.55071258544922 13.78834533691406 68.66383361816406 31.5311279296875 L 62.51007080078125 154.6440124511719 C 61.59506988525391 172.9499206542969 46.86994934082031 188.5315399169922 29.62059783935547 189.4465484619141 C 29.08998107910156 189.4746856689453 28.56043243408203 189.4886779785156 28.03769302368164 189.4886779785156 C 11.56727981567383 189.4886779785156 -0.8421630859375 175.7003326416016 0.04468536376953125 157.9575805664062 L 6.198482513427734 34.84469604492188 C 7.113510131835938 16.53877258300781 21.83862686157227 0.9571685791015625 39.08795166015625 0.0421295166015625 C 39.61856842041016 0.0139923095703125 40.14816284179688 0 40.67090225219727 0 Z" stroke="none" fill="#fff"/>
      </g>
      <g id="路径_2" data-name="路径 2" transform="matrix(0.848, 0.53, -0.53, 0.848, 156.062, 3.274)" fill="#3d96a2">
        <path d="M 41.23751068115234 186.4372406005859 C 40.73284912109375 186.4372406005859 40.21887588500977 186.4229736328125 39.7098503112793 186.3948669433594 C 35.81232452392578 186.1796112060547 31.98324584960938 185.1633911132812 28.32900810241699 183.3744506835938 C 24.77492904663086 181.6345825195312 21.53600883483887 179.2421569824219 18.70219230651855 176.2636566162109 C 15.86111450195312 173.2775268554688 13.57424545288086 169.8568878173828 11.9050874710083 166.0967407226562 C 10.18071937561035 162.2122650146484 9.195982933044434 158.1357421875 8.978219032287598 153.9803924560547 L 2.545219421386719 31.23123741149902 C 2.328403472900391 27.09423637390137 2.885298252105713 23.13239479064941 4.200377464294434 19.4558162689209 C 5.46100902557373 15.93152618408203 7.362350940704346 12.81452655792236 9.851561546325684 10.19144725799561 C 14.55832481384277 5.231552600860596 21.00695610046387 2.499999761581421 28.00950813293457 2.499999761581421 C 28.51419258117676 2.499999761581421 29.02816581726074 2.514262914657593 29.5372200012207 2.542368173599243 C 33.43474578857422 2.757631301879883 37.26382446289062 3.773841857910156 40.91808700561523 5.562789440155029 C 44.47214126586914 7.302657604217529 47.7110595703125 9.69507884979248 50.54487609863281 12.6735782623291 C 53.38595581054688 15.65970993041992 55.67282485961914 19.08034133911133 57.34201049804688 22.84049987792969 C 59.06635284423828 26.72497367858887 60.05108642578125 30.80150032043457 60.26885223388672 34.95684051513672 L 66.70185089111328 157.7059936523438 C 66.91866302490234 161.8430023193359 66.36177062988281 165.8048095703125 65.04669189453125 169.4813995361328 C 63.78606033325195 173.0057067871094 61.88471984863281 176.1226806640625 59.3955078125 178.7457885742188 C 54.688720703125 183.7056884765625 48.24008941650391 186.4372406005859 41.23751068115234 186.4372406005859 Z" stroke="none"/>
        <path d="M 28.00953674316406 4.999984741210938 C 24.79821014404297 4.999984741210938 21.73459243774414 5.620376586914062 18.90380096435547 6.84393310546875 C 16.1711540222168 8.0250244140625 13.73568344116211 9.73028564453125 11.66500473022461 11.91233825683594 C 9.416595458984375 14.28166198730469 7.697124481201172 17.10293579101562 6.554328918457031 20.29780578613281 C 5.351268768310547 23.6611328125 4.842384338378906 27.29563903808594 5.041801452636719 31.10040283203125 L 11.47480010986328 153.8495483398438 C 11.67653656005859 157.6988067626953 12.59006500244141 161.4780731201172 14.1900634765625 165.0823974609375 C 15.74274063110352 168.5801696777344 17.8702392578125 171.7622833251953 20.5134162902832 174.5404357910156 C 23.14209365844727 177.3033142089844 26.14147567749023 179.5200500488281 29.42824172973633 181.1290740966797 C 32.78038787841797 182.7701110839844 36.28603363037109 183.7019348144531 39.84774017333984 183.8986663818359 C 40.31112289428711 183.9242553710938 40.77870941162109 183.9372253417969 41.23753356933594 183.9372253417969 C 44.44886016845703 183.9372253417969 47.51247406005859 183.3168334960938 50.34326934814453 182.0933074951172 C 53.07592010498047 180.9122009277344 55.51138687133789 179.2069244384766 57.58206558227539 177.02490234375 C 59.83044815063477 174.6555786132812 61.54994583129883 171.8343048095703 62.69274139404297 168.6394348144531 C 63.89577102661133 165.2761077880859 64.40465545654297 161.6416015625 64.20526885986328 157.8368377685547 L 57.77227020263672 35.08766174316406 C 57.57053375244141 31.2384033203125 56.65700531005859 27.45913696289062 55.0570068359375 23.85481262207031 C 53.50432968139648 20.35707092285156 51.3768310546875 17.1749267578125 48.73365020751953 14.39680480957031 C 46.10497665405273 11.63389587402344 43.10559463500977 9.417160034179688 39.81882858276367 7.808135986328125 C 36.46665191650391 6.167098999023438 32.96103668212891 5.235275268554688 29.39933013916016 5.038543701171875 C 28.93594741821289 5.012954711914062 28.46835708618164 4.999984741210938 28.00953674316406 4.999984741210938 M 28.0095329284668 -1.52587890625e-05 C 28.56093978881836 -1.52587890625e-05 29.11482620239258 0.015228271484375 29.67506408691406 0.0461578369140625 C 46.99382781982422 1.002700805664062 61.80888748168945 16.57415771484375 62.76541900634766 34.82598876953125 L 69.19841766357422 157.5751647949219 C 70.12400817871094 175.236572265625 57.73194122314453 188.9372253417969 41.23754119873047 188.9372253417969 C 40.68613433837891 188.9372253417969 40.13224411010742 188.9219818115234 39.57200622558594 188.8910522460938 C 22.25324249267578 187.9345092773438 7.438182830810547 172.3630676269531 6.481651306152344 154.1112213134766 L 0.04865264892578125 31.36207580566406 C -0.8769607543945312 13.70066833496094 11.51515960693359 -1.52587890625e-05 28.0095329284668 -1.52587890625e-05 Z" stroke="none" fill="#fff"/>
      </g>
      <g id="路径_3" data-name="路径 3" transform="matrix(0.848, -0.53, 0.53, 0.848, 116.643, 39.97)" fill="#3d96a2">
        <path d="M 28.00955772399902 186.4372406005859 C 21.00632095336914 186.4372406005859 14.55750465393066 183.7058563232422 9.851004600524902 178.7462463378906 C 7.361899852752686 176.1232757568359 5.460689067840576 173.0063171386719 4.200189113616943 169.4819793701172 C 2.885215520858765 165.8053741455078 2.328399658203125 161.8433685302734 2.545241832733154 157.7060089111328 L 8.978215217590332 34.95684814453125 C 9.195979118347168 30.8015079498291 10.18071556091309 26.7249813079834 11.90508365631104 22.84050750732422 C 13.57424163818359 19.08034896850586 15.8611364364624 15.65971755981445 18.70218849182129 12.67358589172363 C 21.53603172302246 9.695086479187012 24.77495193481445 7.302665233612061 28.32900428771973 5.562770366668701 C 31.98326873779297 3.773849487304688 35.81234741210938 2.757638931274414 39.70987319946289 2.542349576950073 C 40.21889877319336 2.514244318008423 40.73287200927734 2.499981164932251 41.23752975463867 2.499981164932251 C 48.24074172973633 2.499981164932251 54.68955612182617 5.231375694274902 59.39605712890625 10.19098091125488 C 61.88516235351562 12.81392860412598 63.78637313842773 15.93087577819824 65.04689788818359 19.4552173614502 C 66.36186981201172 23.13184928894043 66.91868591308594 27.09387588500977 66.70185089111328 31.23124504089355 L 60.26884841918945 153.9804077148438 C 60.05108261108398 158.1357421875 59.06634902954102 162.2122650146484 57.34200668334961 166.0967407226562 C 55.67282104492188 169.8568725585938 53.38595199584961 173.2775268554688 50.54487228393555 176.2636413574219 C 47.71105575561523 179.2421417236328 44.47213745117188 181.6345672607422 40.91808319091797 183.3744506835938 C 37.26382064819336 185.1633758544922 33.43474197387695 186.1795806884766 29.53721618652344 186.3948822021484 C 29.02818870544434 186.4229736328125 28.51421546936035 186.4372406005859 28.00955772399902 186.4372406005859 Z" stroke="none"/>
        <path d="M 41.23753356933594 5 C 40.77870941162109 5 40.31111907958984 5.012969970703125 39.84773635864258 5.038558959960938 C 36.28602981567383 5.23529052734375 32.7803840637207 6.1671142578125 29.42823791503906 7.808135986328125 C 26.14147186279297 9.41717529296875 23.14208984375 11.6339111328125 20.51341247558594 14.39678955078125 C 17.87023544311523 17.17494201660156 15.74273681640625 20.3570556640625 14.19005966186523 23.85481262207031 C 12.59006118774414 27.45913696289062 11.67653274536133 31.2384033203125 11.47479629516602 35.08767700195312 L 5.041793823242188 157.8368530273438 C 4.842384338378906 161.6419982910156 5.351207733154297 165.2767333984375 6.554149627685547 168.6400756835938 C 7.696826934814453 171.8349609375 9.416179656982422 174.6561737060547 11.66444396972656 177.0253448486328 C 13.73500061035156 179.2072601318359 16.17041397094727 180.9124145507812 18.90306091308594 182.0934143066406 C 21.73394393920898 183.3168792724609 24.79782485961914 183.9372253417969 28.00955963134766 183.9372253417969 C 28.4683837890625 183.9372253417969 28.93597412109375 183.9242553710938 29.39935302734375 183.8986663818359 C 32.9610595703125 183.7019348144531 36.46667861938477 182.7701110839844 39.81885528564453 181.1290588378906 C 43.10562133789062 179.5200500488281 46.10497283935547 177.3032836914062 48.73365020751953 174.5404052734375 C 51.37682342529297 171.7622833251953 53.50432586669922 168.5801391601562 55.05700302124023 165.0824127197266 C 56.65700149536133 161.4780883789062 57.57052993774414 157.6987915039062 57.77226638793945 153.8495483398438 L 64.20526885986328 31.10040283203125 C 64.40467834472656 27.29525756835938 63.89585494995117 23.66049194335938 62.69291305541992 20.29714965820312 C 61.55023574829102 17.10223388671875 59.83088302612305 14.28102111816406 57.58261871337891 11.91184997558594 C 55.51206207275391 9.729965209960938 53.0766487121582 8.024826049804688 50.34403228759766 6.84381103515625 C 47.51311874389648 5.620346069335938 44.44926452636719 5 41.23753356933594 5 M 41.2375373840332 0 C 57.73346710205078 0 70.12406158447266 13.69953918457031 69.19841003417969 31.36207580566406 L 62.76541519165039 154.1112365722656 C 61.80888366699219 172.3630523681641 46.99382781982422 187.9344940185547 29.67509078979492 188.8910522460938 C 29.11590957641602 188.9219360351562 28.55994033813477 188.9372253417969 28.00955581665039 188.9372253417969 C 11.51359939575195 188.9372253417969 -0.8769989013671875 175.2376556396484 0.04865264892578125 157.5751647949219 L 6.481647491455078 34.82598876953125 C 7.438179016113281 16.57414245605469 22.25323867797852 1.002700805664062 39.57200241088867 0.046173095703125 C 40.13117980957031 0.015289306640625 40.68715286254883 0 41.2375373840332 0 Z" stroke="none" fill="#fff"/>
      </g>
      <g id="路径_4" data-name="路径 4" transform="matrix(0.875, 0.485, -0.485, 0.875, 268.363, 0)" fill="#3d96a2">
        <path d="M 40.38008499145508 187.2592315673828 C 39.91382217407227 187.2592315673828 39.43916702270508 187.2468566894531 38.96926879882812 187.2224884033203 C 35.10111236572266 187.0217895507812 31.30337524414062 186.0174713134766 27.68156051635742 184.2373962402344 C 24.15782356262207 182.5055236816406 20.94874382019043 180.1173400878906 18.14345550537109 177.1391296386719 C 15.32942867279053 174.1516265869141 13.06729698181152 170.72509765625 11.41990184783936 166.9546813964844 C 9.716980934143066 163.0572052001953 8.750349998474121 158.9631805419922 8.546823501586914 154.7863311767578 L 2.53971791267395 31.4949951171875 C 2.335296869277954 27.29917907714844 2.913428544998169 23.28065299987793 4.258059978485107 19.55102157592773 C 5.54700756072998 15.97578430175781 7.481139183044434 12.81849479675293 10.00669193267822 10.16689014434814 C 14.71574401855469 5.222811222076416 21.12635040283203 2.499995231628418 28.05761337280273 2.499995231628418 C 28.52390289306641 2.499995231628418 28.99855995178223 2.51236367225647 29.46848106384277 2.536732196807861 C 33.33663940429688 2.7374427318573 37.13437652587891 3.741758346557617 40.75619125366211 5.521811008453369 C 44.27993011474609 7.253679275512695 47.48900604248047 9.641889572143555 50.29429626464844 12.62010097503662 C 53.10832214355469 15.60757446289062 55.37045669555664 19.03412628173828 57.01784896850586 22.8045482635498 C 58.72077178955078 26.7020206451416 59.68740081787109 30.79604721069336 59.89093017578125 34.9728889465332 L 65.89803314208984 158.2642517089844 C 66.10245513916016 162.4600524902344 65.52432250976562 166.4785766601562 64.17969512939453 170.2081756591797 C 62.89074325561523 173.783447265625 60.95661163330078 176.9407043457031 58.43106079101562 179.5923156738281 C 53.72200775146484 184.5363922119141 47.31137466430664 187.2592315673828 40.38008499145508 187.2592315673828 Z" stroke="none"/>
        <path d="M 28.05764007568359 5.000015258789062 C 24.88284683227539 5.000015258789062 21.84828948974609 5.617279052734375 19.03822708129883 6.834686279296875 C 16.32108306884766 8.011810302734375 13.89149475097656 9.713043212890625 11.81693649291992 11.89112854003906 C 9.53228759765625 14.28981018066406 7.780376434326172 17.15225219726562 6.609848022460938 20.39892578125 C 5.377727508544922 23.81651306152344 4.848464965820312 27.50883483886719 5.036758422851562 31.37330627441406 L 11.04390716552734 154.6646575927734 C 11.23258209228516 158.5372161865234 12.12984466552734 162.3354187011719 13.71078872680664 165.9537200927734 C 15.24296569824219 169.4603881835938 17.34658050537109 172.6469879150391 19.96328735351562 175.4249877929688 C 22.56249237060547 178.1843872070312 25.53028869628906 180.3944549560547 28.78428649902344 181.9937133789062 C 32.10043334960938 183.6235656738281 35.57072830200195 184.5427703857422 39.09884643554688 184.7257995605469 C 39.52552032470703 184.7479553222656 39.95661163330078 184.7591857910156 40.38011169433594 184.7591857910156 C 43.55490493774414 184.7591857910156 46.58949279785156 184.1419219970703 49.39955139160156 182.9245147705078 C 52.11669921875 181.7473602294922 54.54628753662109 180.0461273193359 56.62081909179688 177.8680725097656 C 58.90546417236328 175.4693908691406 60.65737533569336 172.6069488525391 61.82787704467773 169.3602752685547 C 63.05999374389648 165.9427185058594 63.58925628662109 162.2503967285156 63.40096282958984 158.3859252929688 L 57.39384460449219 35.09457397460938 C 57.20516967773438 31.22201538085938 56.30790710449219 27.42381286621094 54.72696304321289 23.80548095703125 C 53.19478607177734 20.29881286621094 51.09114074707031 17.11221313476562 48.47446441650391 14.33424377441406 C 45.87525939941406 11.57481384277344 42.90743255615234 9.364776611328125 39.65346527099609 7.765487670898438 C 36.33728790283203 6.135635375976562 32.86699295043945 5.2164306640625 29.33890533447266 5.033401489257812 C 28.91222763061523 5.011245727539062 28.48114013671875 5.000015258789062 28.05764007568359 5.000015258789062 M 28.05764389038086 0 C 28.56819534301758 0 29.07998275756836 0.0132293701171875 29.5980224609375 0.04010009765625 C 46.81417083740234 0.9333038330078125 61.49472808837891 16.51878356933594 62.38793563842773 34.85124206542969 L 68.39505004882812 158.1426086425781 C 69.26141357421875 175.9234161376953 56.83680725097656 189.7592010498047 40.38011169433594 189.7592010498047 C 39.86956024169922 189.7592010498047 39.35776901245117 189.7459716796875 38.83972930908203 189.7191009521484 C 21.62355422973633 188.8258972167969 6.943023681640625 173.2404479980469 6.049816131591797 154.9079895019531 L 0.04267120361328125 31.61662292480469 C -0.8236618041992188 13.8358154296875 11.60094833374023 0 28.05764389038086 0 Z" stroke="none" fill="#fff"/>
      </g>
      <path id="路径_5" data-name="路径 5" d="M10.8.015c6.281.326,11.638,6.012,11.964,12.7L24.955,57.7c.326,6.689-4.5,11.847-10.784,11.521S2.533,63.208,2.207,56.52L.016,11.536C-.31,4.847,4.518-.311,10.8.015Z" transform="translate(249.264 99.993) rotate(30)" fill="#55bab1"/>
    </g>
    <ellipse id="椭圆_1" data-name="椭圆 1" cx="15.131" cy="20.289" rx="15.131" ry="20.289" transform="translate(953.824 428.125) rotate(-45)" fill="#fff"/>
    <path id="路径_6" data-name="路径 6" d="M1136.686,354.707h91.972" transform="translate(-166.069 77.066)" fill="none" stroke="#55bab1" stroke-width="10" stroke-dasharray="10 10"/>
    <path id="路径_7" data-name="路径 7" d="M1136.686,354.707H1217" transform="translate(-496.237 77.066)" fill="none" stroke="rgba(112,112,112,0.82)" stroke-width="10" stroke-dasharray="10 10"/>
  </g>
</svg>
