<svg xmlns="http://www.w3.org/2000/svg" width="268.668" height="315" viewBox="0 0 268.668 315">
  <g id="Peep1" transform="translate(-0.314 -0.477)">
    <g id="body_Macbook" data-name="body/Macbook" transform="translate(0.314 122.477)">
      <path id="_Background" data-name="ðŸŽ¨ Background" d="M255.636,61.461l-11.277,1.107c-18,1.375-36,4.248-53.864,5.972a1.155,1.155,0,0,0-1.844-.1c-1.783-.156-3.781-1.519-5.4-.1-.052-.007-.1-.016-.158-.021a113.276,113.276,0,0,1-6.792-17.3c-1.231-3.624-2.888-7.131-5.949-9.564-5.224-3.626-17.193-10.98-23.327-10.671a4.553,4.553,0,0,0-1.454-2.962c1.853-3.159-5.555-5.22-6.078-4.854.335-10.553-4.629-19.718-15.575-21.819C114.116-.9,100.169-1.238,94.895,9.01c-.58-.065-6.506-.1-7.079-.032-.891-1.129-10.682,9.57-6.669,13.295-35.874,15.869-56.271,13.976-66.2,58.588-1.342,4.191-1.44,8.777-2.858,12.874-5.043,11.775-9.133,24.314-10.151,37.127-2.459.63-2.741,4.965.106,5.592a6.66,6.66,0,0,1,2.791,1.188c-.62,10.5,1.919,34.486,3.52,34.412,3.263,10.383,17.815,13.314,28.118,9.665-1.776,3.341,0,5.442,0,7.228,37.073,1.4,77.608.595,114.67,2.518,4.741-.067,9.727,1.164,14.4.455,2.852-.684,2.857-5.168-.036-5.722l12.639-2.745c-.282-.107,5.21-3.76,9.361-10.587,3.864-7.637,1.234-16.855,2.985-25.162,13.674-1.118,27.575-1.6,41.1-3.912,1.844,5.517,9.827-1.081,12.364-3.735l-.009-.012a3.082,3.082,0,0,0,2.246-2.849,3.741,3.741,0,0,0,.216-4.154C250.2,111.2,255.966,88.9,258.052,66.853a4.668,4.668,0,0,0,2.02-.985l-.048-.048a2.506,2.506,0,0,0-.471-3.976C258.212,61.081,257.092,61.318,255.636,61.461Z" transform="translate(6.581 -6.318)" fill="#fff"/>
      <path id="_Ink" data-name="ðŸ– Ink" d="M169.561,188.114a.987.987,0,0,1-.732-.324,4.6,4.6,0,0,1-1.025-1.813,13.916,13.916,0,0,1-.424-2.057h0v0c-.035-.228-.072-.464-.111-.7-.277-1.623-.529-3.309-.769-5.153-.5-3.879-.782-7.072-.873-10.05-.105-3.43-.065-6.911.121-10.348.09-1.675.206-3.476.439-5.3.107-.838.2-1.541.306-2.248.039-.264.084-.53.135-.815l-2.846.321c-4.168.465-8.615.925-13.124,1h-.025a1.422,1.422,0,0,1-1.157-.574,1.634,1.634,0,0,1-1.451.776h-.008c-6.262-.023-12.08-2.126-17.434-4.395-1.338-.567-2.688-1.166-3.993-1.745l-.005,0c-1.439-.638-2.927-1.3-4.4-1.918-1.085-.455-2.219-.863-3.316-1.258a48.249,48.249,0,0,1-4.693-1.876l-6.745,3.538a2.772,2.772,0,0,1-1.108,1.549,5.976,5.976,0,0,1-1.262.676,5.243,5.243,0,0,1-2.019.4,5.485,5.485,0,0,1-.565-.029C96.3,149,91.57,151.476,87.121,153.8L82,156.467c-2.961,1.542-5.943,3.1-8.827,4.614-7.128,3.733-14.5,7.594-21.8,11.285l-.756.38a92.108,92.108,0,0,1-11.289,4.926,20.049,20.049,0,0,0,.058,3.019l.02.23c.009.1.019.191.029.292v.011a9.076,9.076,0,0,1,.06,1.835,2.307,2.307,0,0,1-.72,1.556,1.31,1.31,0,0,1-.86.322,1.016,1.016,0,0,1-.942-.554,3.54,3.54,0,0,1-.286-1.794,15.491,15.491,0,0,1,.276-1.973c.056-.3.109-.588.148-.853a12.97,12.97,0,0,1,.29-1.474,40.208,40.208,0,0,1-4.851,1.137,30.055,30.055,0,0,1-4.9.422,24.745,24.745,0,0,1-4-.319,13.971,13.971,0,0,1-3.169-.918,15.776,15.776,0,0,1-2.822-1.563,20.092,20.092,0,0,1-2.508-2.071,27.294,27.294,0,0,1-2.224-2.443,31.7,31.7,0,0,1-3.764-5.866,32.11,32.11,0,0,1-2.4-6.546A45.055,45.055,0,0,1,5.6,152.272c-.178-2.665-.19-5.394-.175-7.945.018-3.132.089-5.9.218-8.463.152-3.028.384-5.787.708-8.435a9.139,9.139,0,0,0-2.029-.287c-.108,0-.213,0-.314.011a1.629,1.629,0,0,1-.667.594,1.963,1.963,0,0,1-.862.2,2,2,0,0,1-.235-.014,1.058,1.058,0,0,0-.3,1.008c.134.524.673,1.072,1.6,1.63a11.968,11.968,0,0,0,2.057.962.424.424,0,0,1,.269.476.343.343,0,0,1-.354.3h-.02l-.293-.014c-1.824-.1-3.657-.415-4.7-2.07a3.18,3.18,0,0,1-.487-2.1,3.411,3.411,0,0,1,.9-1.913A128.052,128.052,0,0,1,4.2,109.567l.008-.035c.15-.618.306-1.258.458-1.887,1.348-5.588,2.912-11.468,4.784-17.974l.768-2.667c1.3-4.5,2.712-9.31,4.236-14,1.672-5.151,3.309-9.641,5-13.726,1.046-2.523,2.047-4.683,3.059-6.606a46.779,46.779,0,0,1,3.842-6.176,43.472,43.472,0,0,1,4.422-5.076,45.367,45.367,0,0,1,5.147-4.341,61.251,61.251,0,0,1,10.989-6.2c3.8-1.7,7.736-3.156,11.774-4.618l.353-.128c3.93-1.422,8.129-2.961,12.209-4.578,1.847-.732,3.684-1.58,5.461-2.4,1.66-.766,3.377-1.558,5.1-2.253-.117-.213-.23-.427-.335-.637l-.066.055h0l-.032.024a.791.791,0,0,1-.454.134,1.1,1.1,0,0,1-.725-.286,1.451,1.451,0,0,1-.518-1.225,2.69,2.69,0,0,1,.523-1.247l.073-.1c.518-.726,1-1.5,1.469-2.24.137-.219.293-.467.445-.705l.393-.617a25.641,25.641,0,0,1,3.563-4.67A7.708,7.708,0,0,1,88.256,3.93a.073.073,0,0,1,.011-.072.766.766,0,0,1,.52-.242.193.193,0,0,1,.13.038,12.416,12.416,0,0,1,4.291-.65c1.2,0,2.41.1,3.452.2l.5-1.577A2.654,2.654,0,0,1,98.1.39,2.191,2.191,0,0,1,99.351,0a2.3,2.3,0,0,1,2.213,1.686,2.831,2.831,0,0,1,.065,1.175,15.834,15.834,0,0,1-2.088,5.18,12.733,12.733,0,0,1-2.609,3.435c1.948,1.817,3.981,3.578,6.043,5.231a74.564,74.564,0,0,0,7.1,5.023c.665.416,1.35.823,2.012,1.217a47.68,47.68,0,0,1,4.431,2.863,17.258,17.258,0,0,1,2.624,2.391,10.139,10.139,0,0,1,1.864,3,8.424,8.424,0,0,1,.528,3.625,16.552,16.552,0,0,1-.688,3.623l-.079.27c-.083.279-.17.558-.263.853-.683,2.17-1.456,4.629.031,6.6a12.132,12.132,0,0,0,2.279,2.122c.3.235.611.478.9.724a24.823,24.823,0,0,1,2.68,2.626,21.707,21.707,0,0,1,4.18,6.94l.082.234a15.286,15.286,0,0,1,.847,3.671,6.978,6.978,0,0,1-.547,3.64.682.682,0,0,1-.642.391.851.851,0,0,1-.825-.582,15.55,15.55,0,0,1-.391-2.343,18.582,18.582,0,0,0-.3-1.99,16.386,16.386,0,0,0-1.638-4.25,23.018,23.018,0,0,0-5.629-6.681l-.682-.555a15.259,15.259,0,0,1-2.416-2.351,6.474,6.474,0,0,1-1.354-3.068,13.806,13.806,0,0,1,.884-6.016l0-.005c.145-.481.3-.978.428-1.465a8.327,8.327,0,0,0,.114-4.875,20.473,20.473,0,0,1-1.569,2.12c-.189.234-.368.455-.539.673-1.023,1.311-2.065,2.63-3.074,3.905l-.136.173-.758.96c-1.5,1.906-2.794,3.627-3.943,5.261-.608.864-1.19,1.707-1.679,2.417-.228.331-.511.669-.784.995v0c-.229.273-.465.555-.672.836a1.082,1.082,0,0,1-.1.984,1.83,1.83,0,0,1-1.455.874c-.9,0-1.944-.817-3.105-2.429a29.379,29.379,0,0,1-2.125-3.585l-.05-.1-.019-.036c-.909-1.745-1.715-3.572-2.494-5.34-.788-1.788-1.6-3.637-2.525-5.4a84.445,84.445,0,0,0-6.473-10.491c-.552-.76-1.139-1.514-1.705-2.243-.93-1.2-1.892-2.433-2.721-3.72a27.819,27.819,0,0,1-5.292,3.665c-1.964,1.085-4.081,2.05-5.781,2.826h0c-3.243,1.479-6.638,2.768-9.921,4.014l-.006,0c-.938.356-1.909.725-2.86,1.092l-1.264.491c-4.161,1.624-7.623,3.051-10.993,4.737A51.457,51.457,0,0,0,36.4,41.436a37.807,37.807,0,0,0-4.878,4.915,45.9,45.9,0,0,0-3.949,5.608,60.518,60.518,0,0,0-3.193,6.107c-.9,1.966-1.752,4.063-2.611,6.413-1.709,4.67-3.363,9.621-5.056,15.135-1.4,4.546-2.8,9.418-4.43,15.332-1.453,5.284-2.83,10.595-4.093,15.784-.387,1.588-.757,3.208-1.114,4.774v0c-.69,3.021-1.4,6.145-2.267,9.176.117,0,.234-.006.348-.006a23.991,23.991,0,0,1,4.982.734c.942.206,1.832.4,2.63.5,5.571.729,10.6,1.623,15.376,2.731,2.587.6,5.123,1.273,7.54,2,2.536.762,5.027,1.61,7.4,2.519a2.064,2.064,0,0,1,1.2,1.129,2.332,2.332,0,0,1,.1,1.515l.832-.236.031-.009,1.223-.346c-.621-.951-.5-2.508-.394-3.759.023-.284.045-.552.056-.792l0-.089c.041-1.134.137-2.287.23-3.4v-.006c.048-.579.1-1.179.14-1.767.245-3.479.55-6.687.932-9.8l.1-.816c.193-1.513.367-3.052.536-4.542v0c.228-2.01.463-4.088.747-6.123l.059-.406c-.206-.788-.454-1.619-.8-2.695-.54-1.661-1.247-3.282-1.932-4.849-.294-.674-.6-1.37-.886-2.064a.211.211,0,0,1,.014-.207.31.31,0,0,1,.255-.123.274.274,0,0,1,.185.066A16.247,16.247,0,0,1,47.9,96.281a22.978,22.978,0,0,1,1.748,2.8c.008-.04.015-.08.023-.119s.019-.1.03-.155l.118-.58a9.966,9.966,0,0,1,1.512-4.049.247.247,0,0,1,.193-.1.193.193,0,0,1,.17.1,6.626,6.626,0,0,1,.762,2.172,21.686,21.686,0,0,1,.266,2.321c.008.1.015.194.023.29.163,2.041.156,4.09.137,5.454-.04,2.836-.21,5.722-.375,8.513-.039.655-.083,1.4-.123,2.123-.179,3.18-.529,6.566-1.073,10.353l-.094.646c-.065.442-.128.894-.189,1.33v0c-.165,1.183-.336,2.4-.568,3.592l-.09.443c-.053.25-.1.533-.148.831a12.028,12.028,0,0,1-.466,2.059c8.335-2.325,17.155-4.729,26.214-7.147,4.493-1.2,9.062-2.4,13.481-3.571l5.509-1.455a7.126,7.126,0,0,1,1.269-1.667,6.848,6.848,0,0,1,1.819-1.287,4.7,4.7,0,0,1,2.018-.479,4.2,4.2,0,0,1,2.219.646.283.283,0,0,1,.132.249.252.252,0,0,1-.132.22c-.47.257-.848.471-1.189.674l3.8-1.03c.838-.227,1.694-.475,2.522-.715h0c1.991-.577,4.049-1.174,6.1-1.552a131.349,131.349,0,0,1,16.429-6.337l.331-.111.665-.225,1.138-.391a54.1,54.1,0,0,1,7.724-2.243,7.685,7.685,0,0,1,1.378-.127,5.538,5.538,0,0,1,2.535.557,3.536,3.536,0,0,1,1.716,1.891,35.166,35.166,0,0,1,3.169,2.442c.515.432,1.024.891,1.516,1.335l.006.006c.2.183.413.372.62.557l.131.115.129.111.005,0a2.465,2.465,0,0,1,1.052,1.531.9.9,0,0,1-.185.709.572.572,0,0,1-.448.216.641.641,0,0,1-.069,0c-1.252-.134-2.306-1.309-3.236-2.345h0c-.233-.259-.453-.5-.666-.722-.927-.946-1.689-1.755-2.4-2.626a1.117,1.117,0,0,1-.532.139.848.848,0,0,1-.781-.47,2.542,2.542,0,0,0-1.11-1.119,3.318,3.318,0,0,0-1.5-.314,13.168,13.168,0,0,0-3.909.9h0c-.379.129-.737.25-1.056.345l-3.13.926c-1.3.385-3,.892-4.691,1.4-1.574.478-3.168.984-4.709,1.473-2.674.849-5.439,1.727-8.185,2.486a.9.9,0,0,1,.215.811.951.951,0,0,1-.617.661,57.866,57.866,0,0,1-7.7,2.214h0c-.963.229-1.96.466-2.923.716-2.2.572-4.448,1.157-6.668,1.741a5.426,5.426,0,0,0-.77,2.128,15.919,15.919,0,0,0,.138,4.7,42.3,42.3,0,0,0,1.053,4.626l.12.431a22.626,22.626,0,0,0,1.305,3.641,7.776,7.776,0,0,0,2.318,3,3.531,3.531,0,0,0,1.741.663c3.989-2.053,7.892-4.062,11.775-6.056a1.1,1.1,0,0,1,.5-.128,1.146,1.146,0,0,1,1.06.861,25.666,25.666,0,0,0,4.024-1.012,17.932,17.932,0,0,0,3.472-1.761c.728-.439,1.48-.893,2.274-1.273a6.9,6.9,0,0,1,3.041-.682,10.861,10.861,0,0,1,3.8.786,37.035,37.035,0,0,1,3.631,1.669l.71.356.791.389a10,10,0,0,0,3.8,1.19,1.6,1.6,0,0,0,1.685-1.051,2.419,2.419,0,0,0,.037-1.487,4.321,4.321,0,0,0-.724-1.41,8.591,8.591,0,0,0-2.317-2.081,14.092,14.092,0,0,0-2.78-1.271c-1.025-.353-2.066-.618-2.949-.83-1.147-.276-2.291-.5-3.4-.651-.413-.058-.838-.1-1.249-.132a11.329,11.329,0,0,1-2.634-.444.771.771,0,0,1-.5-.765.613.613,0,0,1,.5-.592,7.561,7.561,0,0,1,1.669-.172,19.934,19.934,0,0,1,4.55.7l1.048.258a25.253,25.253,0,0,1,5.9,2.107,12.109,12.109,0,0,1,1.992,1.343,9.143,9.143,0,0,1,1.68,1.806,2.307,2.307,0,0,1,1.645-.621,4.658,4.658,0,0,1,1.192.178l.564.157a6.922,6.922,0,0,0,1.855.329,3.759,3.759,0,0,0,.736-.072c.116-.633.242-1.311.375-1.977,1.32-6.626,2.756-13.138,4.268-19.355,1.334-5.482,2.8-11.041,4.355-16.521,1.54-5.422,3.212-10.921,4.971-16.346l.353-1.084c.181-.553.357-1.129.528-1.686l0-.006a28.1,28.1,0,0,1,2.24-5.768,8,8,0,0,1,2.366-2.587,10.456,10.456,0,0,1,3.2-1.464,62.551,62.551,0,0,1,6.125-1.272h.009c.679-.118,1.381-.239,2.065-.366.363-.067.741-.135,1.075-.194l.75-.135a20.056,20.056,0,0,1-.97-2.13c-.1-.233-.184-.452-.273-.659l-.061-.14c-.809-1.845-1.522-3.72-2.053-5.147l-.482-1.3a65.116,65.116,0,0,0-4-9.152,23.577,23.577,0,0,0-3-4.223,24.962,24.962,0,0,0-3.846-3.475,64.278,64.278,0,0,0-8.646-5.055c-1.666-.86-3.387-1.75-5.034-2.71a37.612,37.612,0,0,1-4.742-3.216.2.2,0,0,1-.071-.228.291.291,0,0,1,.263-.185.236.236,0,0,1,.107.026,80.525,80.525,0,0,0,8.254,3.4h0c1.184.437,2.408.89,3.6,1.358l.78.308a39.115,39.115,0,0,1,9,4.591,24.984,24.984,0,0,1,4.047,3.757,25.772,25.772,0,0,1,3.125,4.556,57.3,57.3,0,0,1,3.444,8.435v0c.221.636.45,1.295.679,1.935l.332.926c.477,1.324,1,2.739,1.61,4.125.189.432.441.882.707,1.358a12.65,12.65,0,0,1,1.039,2.166l.218-.038.009,0c1-.173,2.031-.352,3.047-.522,5.884-.982,11.869-1.876,17.789-2.657s11.927-1.468,17.869-2.045,11.971-1.058,17.928-1.431,12-.648,17.968-.817h.041a1.175,1.175,0,0,1,.925.422A1.57,1.57,0,0,1,263.643,57c-1.3,7.667-2.53,15.465-3.723,23.005l0,.016c-.926,5.853-1.884,11.905-2.863,17.851-1,6.068-2.009,12.062-3,17.815-.222,1.286-.461,2.588-.693,3.848-.311,1.692-.633,3.441-.914,5.166-.085.52-.166,1.049-.244,1.561l0,.019a45.776,45.776,0,0,1-1.116,5.678A13.712,13.712,0,0,1,248,137.772a9,9,0,0,1-2.9,2.007,14.307,14.307,0,0,1-3.4.994c-4.1.7-8.329,1.127-12.423,1.535-1.806.18-3.673.366-5.5.574l-31.708,3.607c.225,2.044.354,4.1.4,6.291.038,2,0,4.069-.111,6.327l-.121,2.326c-.095,1.789-.21,3.694-.486,5.6a10.534,10.534,0,0,1-1.022,3.232,12.8,12.8,0,0,1-1.943,2.792,35.57,35.57,0,0,1-4.881,4.255,24.819,24.819,0,0,1-5.657,3.494l-.269.107a26.76,26.76,0,0,1-3,.974,14.627,14.627,0,0,1-3.564.52,7.266,7.266,0,0,1-1.152-.086c.063.314.138.639.211.953a7.3,7.3,0,0,1,.185,4.035,1.225,1.225,0,0,1-.438.585A1.151,1.151,0,0,1,169.561,188.114Zm20.981-41.451-3.322.378c-3.9.443-7.731.864-10.968,1.216l-7.943.863c-.01.224-.028.441-.046.65v0c-.018.212-.034.412-.039.585-.054,1.831-.094,3.691-.127,5.29-.073,3.515.008,7.082.24,10.6.262,3.968.575,7.219.984,10.233l.095.679.055.357a1.562,1.562,0,0,1,1.055.583,1.352,1.352,0,0,0,1.072.35,10.083,10.083,0,0,0,2.982-.666,19.526,19.526,0,0,0,4.391-2.437,27.583,27.583,0,0,0,3.667-3.122l.939-.928a11.984,11.984,0,0,0,2.441-3.084,13.343,13.343,0,0,0,.991-4.324c.036-.306.072-.622.112-.925.245-1.855.552-3.873.966-6.35l2.456-9.953ZM6.77,127.53l-.014,3.451c-.018,4.695-.013,9.693.24,14.657l.047.905c.284,5.314.725,10.935,2.675,16.117a30.782,30.782,0,0,0,3.031,5.988,27.622,27.622,0,0,0,4.306,5.139,16.37,16.37,0,0,0,2.611,2.015,11.414,11.414,0,0,0,3.019,1.306,16.942,16.942,0,0,0,4.432.533c.59,0,1.194-.022,1.845-.067,8.719-.608,16.612-4.8,24.246-8.844h0c1.155-.613,2.349-1.246,3.517-1.851C70.4,159.8,84.984,152.251,99.638,144.7a7.024,7.024,0,0,1-1.083-.912,15.671,15.671,0,0,1-3.6-7.324,38.655,38.655,0,0,1-1.181-8.683l.321-3.374-.345.091c-3.564.947-7.179,1.916-10.675,2.853-8.805,2.36-17.911,4.8-26.9,7.077-3.582.907-7.232,1.79-10.762,2.644-2.6.628-5.28,1.278-7.917,1.932l-1.007.252c-4.824,1.219-9.849,2.709-13.633,6.293a.145.145,0,0,1-.1.042.159.159,0,0,1-.14-.1.14.14,0,0,1,.03-.156,21.911,21.911,0,0,1,7.116-4.883A59.9,59.9,0,0,1,38,137.62c.563-.161,1.136-.323,1.69-.479l.024-.007,1.356-.383a179.981,179.981,0,0,0-22.982-6.679c-1-.212-2.018-.4-3.005-.581h0c-1-.184-2.041-.375-3.055-.592-.9-.193-1.807-.446-2.682-.69-.483-.135-.982-.275-1.479-.4Zm254-69.5c-6.283.19-12.617.493-18.827.9-6.272.413-12.591.945-18.783,1.58C211.589,61.7,199.9,63.307,188.433,65.28c-2.394.412-4.819.846-7.209,1.292l-1.44.271c-.537.1-1.089.188-1.673.28-1,.157-2.033.319-3.025.566a10.1,10.1,0,0,0-2.772,1.078,5.825,5.825,0,0,0-2.167,2.464,19.683,19.683,0,0,0-1.172,3.167c-.088.289-.18.586-.273.876-.876,2.724-1.743,5.5-2.576,8.242-3.361,11.075-6.408,22.2-9.055,33.071-.945,3.88-1.83,7.841-2.686,11.672v.005c-.359,1.609-.731,3.273-1.1,4.908-.983,4.334-2.137,8.986-3.631,14.64a1.435,1.435,0,0,1,.587-.267c5.277-1.123,10.731-1.73,16.006-2.318,1.1-.123,2.245-.25,3.372-.381l.627-.073c6.363-.748,13.2-1.548,20.11-2.324l44.4-4.993c.742-.083,1.512-.147,2.257-.209a31.544,31.544,0,0,0,5.715-.827,6.809,6.809,0,0,0,4.39-3.95,24.009,24.009,0,0,0,1.685-5.947l.022-.117c1.311-6.972,2.481-14.1,3.613-20.987v0c.759-4.623,1.544-9.4,2.367-14.1ZM148.014,147.224h.006a1.716,1.716,0,0,1,1.006.3l1.659-13.258a9.884,9.884,0,0,1-2.784-.847,7.717,7.717,0,0,0-2.468-.738c-.048,0-.095,0-.139.006a4.794,4.794,0,0,1,.6,3.869,2.954,2.954,0,0,1-3.153,2.288,9.117,9.117,0,0,1-2.845-.548,20.036,20.036,0,0,1-2.482-1.049c-.44-.219-.883-.452-1.311-.677a18.56,18.56,0,0,0-4.732-1.957,6.446,6.446,0,0,0-1.321-.142,9.651,9.651,0,0,0-4.669,1.61l-.231.126a18.318,18.318,0,0,1-5.493,1.94,10.879,10.879,0,0,1-1.95.17c-.325,0-.653-.013-1-.039a1.194,1.194,0,0,1-.2.131l-.511.268a28.729,28.729,0,0,1,6.817,1.472c2.32.7,4.62,1.57,6.595,2.326l2.141.823a80.357,80.357,0,0,0,8.035,2.719,32.2,32.2,0,0,0,8.357,1.208ZM89,5.328A5.923,5.923,0,0,0,87.653,6.39,21.945,21.945,0,0,0,84.6,11l-.053.1c-.22.4-.436.8-.646,1.2l0,.006c-.256.478-.521.972-.788,1.454-.231.417-.469.829-.65,1.14a4.571,4.571,0,0,1-.309.415h0c-.089.112-.181.228-.244.318.155.217.323.443.515.691.014.018.211.235.538.595l.013.015c1.339,1.473,4.474,4.924,5.757,6.492,1.254,1.534,2.432,3.1,3.5,4.668,1.111,1.623,2.142,3.293,3.065,4.964,1.095,1.982,2.051,4.068,2.975,6.085.636,1.388,1.294,2.823,1.993,4.215a26.014,26.014,0,0,0,3.034,4.881c.028.034.057.068.086.1l0,0,0,0,.054.063a11.8,11.8,0,0,1,1.86-2.887c.141-.178.275-.346.385-.491l.055-.073c1.191-1.606,2.515-3.27,4.167-5.238,1.273-1.516,2.629-3.06,4.029-4.587l.517-.562c.174-.188.353-.389.543-.6a12.2,12.2,0,0,1,3.037-2.723,6.779,6.779,0,0,0-.525-.795,17.912,17.912,0,0,0-5.007-4.09l-1.189-.723c-3.532-2.152-5.391-3.409-6.615-4.263A60.1,60.1,0,0,1,98.523,16.5,52.194,52.194,0,0,1,92.7,10.46l-.612-.775Zm7.479-1.352c-.492.041-1,.071-1.5.1a17.776,17.776,0,0,0-4.809.718c1.025.969,2.035,2,3.011,2.995.665.678,1.353,1.38,2.037,2.053a24.935,24.935,0,0,1,.546-2.621c.057-.23.115-.467.17-.7ZM95.938,175.07a1.085,1.085,0,0,1-.888-.545A1.025,1.025,0,0,1,95,173.5a147.725,147.725,0,0,1,8.364-13.655l.389-.579c1.34-1.995,2.726-4.057,4.1-6.078.744-1.091,1.354-1.964,1.92-2.748l.395-.542,2.137-2.338a.193.193,0,0,1,.092-.024.189.189,0,0,1,.186.184,6.058,6.058,0,0,1-.812,2.731c-.063.133-.135.284-.2.425l-.048.105c-.493,1.1-1.072,2.277-1.77,3.608-1.271,2.424-2.576,4.784-3.877,7.017a82.9,82.9,0,0,1-9.272,13.136A.89.89,0,0,1,95.938,175.07Zm54.031-46.859a4.818,4.818,0,0,1-3.4-1.809l-.8-.84a8.563,8.563,0,0,0-1.758-1.493,4.35,4.35,0,0,0-2.306-.608c-.07,0-.143,0-.215,0a34.082,34.082,0,0,0-4.084.484h0c-.771.123-1.569.25-2.35.343-2.324.275-4.767.524-7.262.74h-.009a.088.088,0,0,1-.086-.084.1.1,0,0,1,.069-.11l2.717-.676,10.562-2.13a9.021,9.021,0,0,1,1.088-.07,5.39,5.39,0,0,1,3.548,1.194,13.944,13.944,0,0,1,1.375,1.356,11.737,11.737,0,0,0,1.633,1.554,3.9,3.9,0,0,0,2.1.79.635.635,0,0,1,.6.568.583.583,0,0,1-.435.643A3.434,3.434,0,0,1,149.969,128.21Zm2.1-6.61a.413.413,0,0,1-.1-.011,8.576,8.576,0,0,1-2.384-1.009,25.9,25.9,0,0,1-2.137-1.474c-.529-.392-1.075-.8-1.634-1.161a7.577,7.577,0,0,0-4.386-1.175c-.849,0-1.71.077-2.621.158l-.16.014c-2.613.233-5.121.55-7.455.943-.8.135-1.624.3-2.415.46a40.545,40.545,0,0,1-4.576.742v0a.306.306,0,0,1-.283-.243.253.253,0,0,1,.136-.3,31.185,31.185,0,0,1,7.55-2.257l.169-.035,7.618-1.183.281-.028c.882-.086,1.556-.124,2.185-.124a10.534,10.534,0,0,1,2.419.254,8,8,0,0,1,2.34.951l.424.256c1.958,1.19,4.151,2.624,5.4,4.6a.376.376,0,0,1,.012.393A.454.454,0,0,1,152.069,121.6Zm63.089-10.789a17.147,17.147,0,0,1-4.621-.549,8.755,8.755,0,0,1-2.067-.864,6.031,6.031,0,0,1-1.653-1.415,3.236,3.236,0,0,1-.811-2.782,4.053,4.053,0,0,1,1.311-2.043,9.672,9.672,0,0,1,2.282-1.5,2.5,2.5,0,0,1-.711-1.078,2.028,2.028,0,0,1,.028-1.311A5.008,5.008,0,0,1,211.178,97a9.085,9.085,0,0,0,1.436-1.073,7.149,7.149,0,0,0,1.616-2.373,5,5,0,0,0,.31-2.817l-.021-.107a1.015,1.015,0,0,1,.183-.866,1,1,0,0,1,.775-.361,1.059,1.059,0,0,1,.861.459l.139.191c.151.207.306.416.471.637l0,.006a24.659,24.659,0,0,1,1.973,2.939,6.278,6.278,0,0,1,.892,3.222,3.605,3.605,0,0,1,1.785.539,3.032,3.032,0,0,1,1.218,1.357,3.751,3.751,0,0,1,.249,1.763,5.253,5.253,0,0,1,3.04,1.545,3.366,3.366,0,0,1,.94,2.06,3.739,3.739,0,0,1-.528,2.21c-1.986,3.382-6.471,4.2-8.968,4.388l-.117.009C216.612,110.784,215.866,110.811,215.158,110.811Zm-4.774-8.629c-.658.672-1.3,1.368-1.917,2.042a2.083,2.083,0,0,0-.643,1.658,2.542,2.542,0,0,0,1.225,1.732,7.352,7.352,0,0,0,2.83,1.1,16.954,16.954,0,0,0,3.175.257h0c.656,0,1.294-.024,1.776-.044a15.661,15.661,0,0,0,3.736-.575,9,9,0,0,0,3.329-1.734l.084-.073a4.787,4.787,0,0,0,.918-1.082,1.991,1.991,0,0,0,.336-1.219,1.48,1.48,0,0,0-.851-1.122,3.709,3.709,0,0,0-1.257-.37,5.831,5.831,0,0,1-.655-.134,3.7,3.7,0,0,1-2.58,2.149.992.992,0,0,1-.149.011.938.938,0,0,1-.9-.658.762.762,0,0,1,.347-.883l.183-.114a4.6,4.6,0,0,0,1.331-1.24,2.912,2.912,0,0,0,.545-1.733,1.607,1.607,0,0,0-.461-1.01,1.4,1.4,0,0,0-.984-.5.912.912,0,0,0-.671.3l-.038.041a.791.791,0,0,1-.6.285,1,1,0,0,1-.823-.494.857.857,0,0,1-.035-.859l.022-.039L216.386,93.1a7.906,7.906,0,0,1-.948,2.316,9.087,9.087,0,0,1-1.629,1.98,10.047,10.047,0,0,1-1.6,1.2l-.069.04c-.075.042-.17.091-.262.139-.587.306-1.473.769-1.391,1.313.061.408.837.895,1.167,1.085a4.215,4.215,0,0,0,1.507.594.144.144,0,0,1,.133.119.114.114,0,0,1-.065.134,4.179,4.179,0,0,1-1.695.435A2.635,2.635,0,0,1,210.384,102.183ZM61.771,88.2a.738.738,0,0,1-.779-.637c-.476-3.062-.949-6.171-1.407-9.178v0c-.541-3.555-1.1-7.231-1.667-10.844-.4-2.571-.863-5.177-1.309-7.7v0c-.135-.765-.275-1.555-.413-2.343L54.72,47.826a.181.181,0,0,1,.052-.132.215.215,0,0,1,.151-.062.185.185,0,0,1,.165.095,36.283,36.283,0,0,1,3.035,8.419c.089.329.181.668.272,1,.8,2.907,1.521,6.05,2.273,9.891.662,3.377,1.17,6.773,1.511,10.094.347,3.374.534,6.8.558,10.191a.8.8,0,0,1-.236.58A1.046,1.046,0,0,1,61.771,88.2ZM72.608,78.59a1.14,1.14,0,0,1-.857-.4,1.01,1.01,0,0,1-.209-.862l-.893-24.569a.275.275,0,0,1,.033-.256.311.311,0,0,1,.252-.117.326.326,0,0,1,.31.209,45.912,45.912,0,0,1,2.005,6.117,43.551,43.551,0,0,1,1.108,6.355,37.809,37.809,0,0,1-.864,12.8A.885.885,0,0,1,72.608,78.59ZM121.9,56.02a.491.491,0,0,1-.4-.188,5.56,5.56,0,0,1-.35-.527,2.818,2.818,0,0,0-.746-.907,4.472,4.472,0,0,0-1.737-.6c-.269-.054-.547-.11-.806-.185a6.226,6.226,0,0,1-2.809-1.673L112.3,45.714a.239.239,0,0,1,.061-.182.268.268,0,0,1,.2-.078.3.3,0,0,1,.249.123,18.813,18.813,0,0,1,1.216,2.072,15.8,15.8,0,0,0,1.442,2.372,5.379,5.379,0,0,0,2.191,1.713,9.233,9.233,0,0,0,1.589.447,5.67,5.67,0,0,1,2.443.952,2.949,2.949,0,0,1,.922,1.165,1.494,1.494,0,0,1-.118,1.407A.722.722,0,0,1,121.9,56.02Zm4.647-4.737a.7.7,0,0,1-.505-.2,3.362,3.362,0,0,1-.458-3.384,14.922,14.922,0,0,1,1.535-3.342,19.449,19.449,0,0,1,4.437-4.8c.319-.275.648-.559.977-.85a24.016,24.016,0,0,0,4.894-7.018c.367-.694.735-1.408,1.091-2.1l.007-.014,0-.007c.436-.845.887-1.719,1.343-2.572a5.811,5.811,0,0,1-1.313-2.864c-.045-.175-.088-.34-.132-.5l-.027-.1a38.133,38.133,0,0,1-1.12-5.2,28.524,28.524,0,0,1-.272-5.045l.018-.432.829-3.1a.329.329,0,0,1,.15-.038.326.326,0,0,1,.26.146.336.336,0,0,1-.05.516,12.461,12.461,0,0,1,.554,1.863c.154.681.322,1.377.512,2.126.18.709.352,1.433.517,2.133l0,.009v.006c.167.7.339,1.429.52,2.141.364,1.434.818,2.942,1.35,4.483.03.088.065.184.107.292l.058.149.014-.023a.154.154,0,0,1,.13-.079.165.165,0,0,1,.122.058.177.177,0,0,1,.041.144c-.014.1-.032.192-.049.286v.009c-.011.058-.021.117-.031.176l.053.141a2.614,2.614,0,0,1-.05,2.63,1.242,1.242,0,0,1-.793.523,45.419,45.419,0,0,1-1.807,4.841l-.2.456a27.165,27.165,0,0,1-3.631,6.463,23.8,23.8,0,0,1-2.469,2.485,17.988,17.988,0,0,0-3.132,3.4,14.194,14.194,0,0,0-1.58,3.431l-.149.462a3.691,3.691,0,0,1-1.412,2.2A.653.653,0,0,1,126.55,51.283Zm13.639-2.352a1.47,1.47,0,0,1-.943-.324l-1.807-1.5c-.3-.253-.607-.506-.9-.754-.275-.231-.524-.445-.764-.654l-.377-.333c-.043-.039-.123-.12-.223-.224a3.825,3.825,0,0,0-.9-.784.306.306,0,0,0-.047,0c-.481,0-1.443,1-1.96,1.543l0,0-.178.184-.054.054a22.083,22.083,0,0,0-2.194,2.521.171.171,0,0,1-.137.074.161.161,0,0,1-.135-.073.164.164,0,0,1,0-.162,22.524,22.524,0,0,1,2.136-3.681l.168-.23c.094-.126.193-.269.3-.421l0-.007c.518-.746,1.162-1.674,1.971-1.856a1.6,1.6,0,0,1,.352-.039,4.482,4.482,0,0,1,2.474,1.29c.15.122.292.237.427.341l.055.042c.45.338.893.681,1.229.943a16,16,0,0,1,.25-3.349,9.438,9.438,0,0,1,1.154-3.116,13.822,13.822,0,0,1,2.094-2.5c.334-.341.68-.693,1-1.055a14.105,14.105,0,0,0,1.6-2.358,17.31,17.31,0,0,1,1.239-1.924.8.8,0,0,1,.528-.3c.031-.853.137-1.722.24-2.561V27.7c.029-.234.058-.477.085-.714l.036-.324c.018-.17.039-.341.062-.522a5.544,5.544,0,0,0-.215-3.2,6.751,6.751,0,0,0-2.131-2.052h0c-.207-.149-.4-.29-.588-.431l-.756-.586L141.1,17.785a.276.276,0,0,1-.027-.3.414.414,0,0,1,.351-.215.321.321,0,0,1,.065.007,14.638,14.638,0,0,1,3.971,1.733c.2.112.428.238.645.357l.154.083a6.508,6.508,0,0,1,2.911,2.585,8.171,8.171,0,0,1,.513,4.241l-.009.133c-.023.365-.043.74-.062,1.1v.008a25.716,25.716,0,0,1-.426,4.046,1.193,1.193,0,0,1-.445.733,1.217,1.217,0,0,1-.735.231,1.522,1.522,0,0,1-.445-.067,13.488,13.488,0,0,1-3.276,4.774c-.459.5-.933,1.016-1.356,1.53a7.348,7.348,0,0,0-1.562,4,24.247,24.247,0,0,0,.061,4.394q.02.265.038.524a1.092,1.092,0,0,1-.277.846A1.358,1.358,0,0,1,140.189,48.931Z" transform="translate(5.002 -1.316)"/>
    </g>
    <g id="head_hat-hip" data-name="head/hat-hip" transform="translate(53.314 0.477)">
      <path id="_Background-2" data-name="ðŸŽ¨ Background" d="M98.082,50.858a136.4,136.4,0,0,0-1.1-17.752,26.747,26.747,0,0,0-7.267-15.016C81.111,9.283,68.636,7.132,57.023,5.161L37.169,1.79C31.112.762,24.65-.881,18.53.577a19.366,19.366,0,0,0-7.917,4.362c-2.256,1.9-4.682,3.947-6.21,6.508s-2.058,5.562-2.556,8.462Q1,24.814.54,29.777A123.634,123.634,0,0,0,.284,49.695C.5,52.912.85,56.119,1.293,59.312q.33,2.375.749,4.737c.083.464.146.978.23,1.5a15.775,15.775,0,0,0-.953,5.462c.085,5.41,4.651,8.816,9.255,10.645,2.669,1.06,5.46,1.781,8.083,2.966,2.759,1.246,4.637,3.266,6.524,5.57a63.468,63.468,0,0,0,12.294,11.64c9.829,6.987,22.279,10.291,34.205,7.783A30.473,30.473,0,0,0,80,106.668a18.6,18.6,0,0,0,6.473-6.188,60.513,60.513,0,0,0,7.195-15.47,89.7,89.7,0,0,0,3.695-16.826,128.093,128.093,0,0,0,.72-17.326Z" transform="translate(12.109 23.692)" fill="#fff"/>
      <path id="_Ink-2" data-name="ðŸ– Ink" d="M93.992,130.841h0a21.737,21.737,0,0,1-4.629-.486,18.551,18.551,0,0,1-11.692-8.042l-.075-.118c-.373-.6-.526-1.023-.43-1.194a.152.152,0,0,1,.144-.076,2.327,2.327,0,0,1,1.2.9,25.517,25.517,0,0,0,7.554,4.655,22.516,22.516,0,0,0,8.227,1.567,22.785,22.785,0,0,0,8.4-1.623,26.746,26.746,0,0,0,7.89-4.915c4.388-3.79,7.836-9.073,10.25-15.7a61.677,61.677,0,0,0,2.653-9.948A82.85,82.85,0,0,0,124.7,85.133a101.879,101.879,0,0,0-.062-11.039c-.212-3.616-.61-7.279-1.182-10.887a96.472,96.472,0,0,0-5.093-19.459,91.955,91.955,0,0,0-10-.547,90.844,90.844,0,0,0-16.4,1.487,84.9,84.9,0,0,0-15.786,4.5A76.464,76.464,0,0,0,61.7,56.749,69.375,69.375,0,0,0,49.209,67.437l1.169,7.041c.065.394.135.795.2,1.182l0,.019c.136.786.278,1.6.393,2.4a2.572,2.572,0,0,1-.412,2.163,1.818,1.818,0,0,1-1.446.69c-1.129,0-2.471-.89-3.769-1.752h0a20.359,20.359,0,0,0-1.969-1.205,11.041,11.041,0,0,0-1.529-.113c-.212,0-.423.007-.627.022a8.008,8.008,0,0,0-6,3.967,11.283,11.283,0,0,0-1.337,3.458,13.9,13.9,0,0,0-.274,3.818,12.116,12.116,0,0,0,2.321,6.614A7.218,7.218,0,0,0,41.8,98.676a9.878,9.878,0,0,0,2.908-.469,2.279,2.279,0,0,1,1.186-.395,1.241,1.241,0,0,1,.738.23,1.573,1.573,0,0,1,.515.677,28.216,28.216,0,0,1,3.845,4.857,45.794,45.794,0,0,0,6.382,7.841,42.773,42.773,0,0,0,5.479,4.8,9.082,9.082,0,0,0,1.424,1.045c1.428.925,3.046,1.974,2.227,3.455a1.442,1.442,0,0,1-1.4.913c-2.333,0-6.413-3.885-8.637-6.2-1.487-1.549-3.043-3.327-4.379-5.008a32.141,32.141,0,0,1-2.717-3.841,25.53,25.53,0,0,1-5.581,1.477,37.815,37.815,0,0,1-5.755.4c-3.211,0-6.455-.307-9.592-.6l-.043,0-1.191-.112c-7.069-.368-12.925-2.047-17.4-4.99a21.476,21.476,0,0,1-5.35-4.96,21.091,21.091,0,0,1-3.235-6.23,25.143,25.143,0,0,1-1.132-5.79A31.909,31.909,0,0,1,.242,79.47a41.038,41.038,0,0,1,1.386-6.647A51.594,51.594,0,0,1,4.2,65.97,66.94,66.94,0,0,1,12.716,52.24a82.817,82.817,0,0,1,12.69-12.77A88.121,88.121,0,0,1,44.728,28.775a.85.85,0,0,0,.509-.978.686.686,0,0,0-.639-.606.775.775,0,0,0-.289.06,94.468,94.468,0,0,0-13.1,6.487l-.006-1.5a41.135,41.135,0,0,1,.471-7.453A18.329,18.329,0,0,1,32.826,20.2a12.274,12.274,0,0,1,2.412-4.424,36.53,36.53,0,0,1,6.023-6.09A44.454,44.454,0,0,1,63.156.2,22.513,22.513,0,0,1,66.21,0,27.989,27.989,0,0,1,72.2.669a28.678,28.678,0,0,1,5.87,1.96,22.6,22.6,0,0,1,5.091,3.183A15.55,15.55,0,0,1,86.8,10.151,105.818,105.818,0,0,1,97.711,8.168a91.1,91.1,0,0,1,11.419-.745,65.841,65.841,0,0,1,20.259,2.961,48.91,48.91,0,0,1,9.334,4.111,44.488,44.488,0,0,1,4.321,2.833,43.477,43.477,0,0,1,4.033,3.4,25.222,25.222,0,0,1,3.614,4.97,21.14,21.14,0,0,1,2.006,5.142,22.277,22.277,0,0,1-.051,10.389,32.3,32.3,0,0,1-3.674,8.966,44.674,44.674,0,0,1-5.955,7.907c-1.1,1.176-2.272,2.308-3.48,3.366a46.186,46.186,0,0,1-3.626,2.872,38.656,38.656,0,0,1-3.632,2.3,28.239,28.239,0,0,1-3.5,1.655,42.164,42.164,0,0,1,.165,8.039,124.32,124.32,0,0,1-1.473,13.92A97.522,97.522,0,0,1,123.7,105.9a44.148,44.148,0,0,1-6.73,13.212,27.66,27.66,0,0,1-4.555,4.764,31.144,31.144,0,0,1-5.629,3.706,30.436,30.436,0,0,1-6.282,2.4A26.117,26.117,0,0,1,93.992,130.841ZM44.628,75.205l-.15.088a1.285,1.285,0,0,1-.371.145c.177.075.354.158.525.244,0-.126,0-.227,0-.318l0-.159Zm4.553,14.442A2.088,2.088,0,0,1,48.32,89l-.049-.055.01.015c.125.192.174.326.141.386a.078.078,0,0,1-.075.036,1.3,1.3,0,0,1-.788-.619l-.008-.02a2.185,2.185,0,0,1-.337-.355c-.019-.024-.032-.041-.041-.051l-.008-.008a9.744,9.744,0,0,0-3.707-2.3c-.185-.035-.368-.062-.545-.081a16.562,16.562,0,0,0-2.261-.342.418.418,0,0,1-.258-.168c-.478-.016-.759-.114-.77-.267-.01-.133.2-.285.452-.332h.009l-.095-.008c-.486-.047-.858-.177-.865-.3,0-.076.123-.145.368-.2l.095-.019c-.01-.015-.019-.031-.032-.054-.219-.024-.34-.118-.333-.257a.363.363,0,0,1,.351-.309.293.293,0,0,1,.115.023.259.259,0,0,1,.01-.232c.042-.057.125-.084.261-.084.048,0,.1,0,.146.007h.012c.041,0,.081.006.112.006a.128.128,0,0,0,.077-.015.418.418,0,0,1,.192-.139.748.748,0,0,0,.14-.117c.016-.017.016-.017.054-.019h.018a.879.879,0,0,1,.637-.226,3.234,3.234,0,0,1,.857.159l.08.023a2.675,2.675,0,0,0,.642.136h.02a8.469,8.469,0,0,1,3.645,1.463,9.859,9.859,0,0,1,1.515,1.04h0l0,0,.036.025A8.429,8.429,0,0,1,49.22,86.8c.467.534.711.915.67,1.045-.011.035-.042.052-.092.052a.9.9,0,0,1-.328-.1c-.086-.112-.181-.228-.3-.367a.239.239,0,0,1-.044.048l.073.109c.259.389.372.62.336.686a.039.039,0,0,1-.038.019,4.794,4.794,0,0,1-1.4-1.262.218.218,0,0,1-.037.023l-.008,0,.384.467.131.164.081.078c.686.674,1.015,1.314.949,1.476a.063.063,0,0,1-.064.041c-.166,0-.56-.368-1.053-.985a.587.587,0,0,1,.113.264l.088.113c.283.365.609.826.55.947A.052.052,0,0,1,49.181,89.648Z" transform="translate(-16.321 4.738)"/>
    </g>
    <g id="face_Awe" data-name="face/Awe" transform="translate(94.314 51.477)">
      <path id="_Ink-3" data-name="ðŸ– Ink" d="M13.157,53.162a2.286,2.286,0,0,1-.891-.185,2.092,2.092,0,0,1-1.274-1.39,2.657,2.657,0,0,1,.5-2.243l.044-.058a17.092,17.092,0,0,0,2.334-4.734c.313-.874.589-1.734.819-2.555.043-.152.076-.306.108-.455a2.145,2.145,0,0,1,.562-1.241.189.189,0,0,1,.127-.05.155.155,0,0,1,.083.023A2.994,2.994,0,0,1,16.63,42.29a13.406,13.406,0,0,1,.221,2.525c.16.042.322.086.479.129h0c.312.085.606.166.895.23.679.15,1.372.289,2.043.423h.009l.761.153.7.145a55.306,55.306,0,0,0,7.138,1.045c1.326.1,2.487.151,3.551.151a26.989,26.989,0,0,0,3.481-.207,18.779,18.779,0,0,0,2.946-.63,12.768,12.768,0,0,0,2.175-.937c.3-.151.606-.308.924-.456a2.56,2.56,0,0,1,1.085-.252,2.289,2.289,0,0,1,1.449.518,2.473,2.473,0,0,1,.823,1.233,2.082,2.082,0,0,1-.041,1.311,2.328,2.328,0,0,1-1,1.155,12.612,12.612,0,0,1-3.72,1.462,26.587,26.587,0,0,1-3.973.6c-.646.054-1.32.081-2,.081a35.6,35.6,0,0,1-5.7-.51c-1.4-.225-2.779-.51-4.087-.848a39.161,39.161,0,0,1-3.98-1.254,28.065,28.065,0,0,1-3.218-1.47l-.284-.151c-.122-.066-.251-.133-.375-.2l-.008,0-.154-.081a18.245,18.245,0,0,1-1.44,5.049l-.016-.028a2.381,2.381,0,0,1-.815,1.216A2.17,2.17,0,0,1,13.157,53.162ZM35.178,39.476a17.914,17.914,0,0,1-3.882-.443,1.814,1.814,0,0,1-1.253-.888,2.548,2.548,0,0,1,.874-3.17,1.666,1.666,0,0,1,.859-.231,2.131,2.131,0,0,1,.671.115,12.19,12.19,0,0,0,3.62.687c.115,0,.231,0,.344,0,.425,0,.846-.019,1.251-.056.293-.027.595-.065.9-.113-.17-.227-.338-.46-.511-.711-.211-.3-.4-.587-.571-.863a18.386,18.386,0,0,1-1.354-2.633c-.112-.266-.226-.556-.349-.886v0l-.046-.124-.1-.086a7.053,7.053,0,0,1-1.838-2.457,10.859,10.859,0,0,1-.871-4.393,17.456,17.456,0,0,1,.591-4.471,11.434,11.434,0,0,1,1.383-3.185,10.57,10.57,0,0,1,2.231-2.558,5.808,5.808,0,0,1,.742-1.047,8.926,8.926,0,0,1,3.716-2.145,9.36,9.36,0,0,1,2.8-.425,10.145,10.145,0,0,1,3.153.51,10.836,10.836,0,0,1,2.877,1.445,13.862,13.862,0,0,1,3.106,3.04A14.849,14.849,0,0,1,55.6,18.259a13.552,13.552,0,0,1,.807,4.061,11.532,11.532,0,0,1-.56,4.089,9.529,9.529,0,0,1-2.185,3.666,8.918,8.918,0,0,1-3.609,2.27,12.359,12.359,0,0,1-3.993.595,27.873,27.873,0,0,1-4.8-.505c-.707-.126-1.328-.25-1.9-.379a7.064,7.064,0,0,1,1.417,1.253,5.156,5.156,0,0,1,1.416,2.34,2.14,2.14,0,0,1-.611,2.052,6.284,6.284,0,0,1-3.116,1.426A15.64,15.64,0,0,1,35.178,39.476Zm1.809-22.389a13.249,13.249,0,0,0-.735,4.486v.2l0,.205a11.2,11.2,0,0,0,.362,2.818,4.7,4.7,0,0,0,1.4,2.374,5.662,5.662,0,0,0,2.319,1.111,16.84,16.84,0,0,0,2.659.4l1.342.112.357.027c.487.034.914.05,1.307.05a9.5,9.5,0,0,0,2.137-.214,5.384,5.384,0,0,0,1.939-.838,4.682,4.682,0,0,0,1.508-1.829,6.948,6.948,0,0,0,.627-2.308,9.876,9.876,0,0,0-.124-2.832,10.594,10.594,0,0,0-.9-2.716,10.039,10.039,0,0,0-1.6-2.36,8.779,8.779,0,0,0-2.22-1.765,6.031,6.031,0,0,0-2.953-.774,6.14,6.14,0,0,0-2,.338,7.142,7.142,0,0,0-1.93,1.089l-.239.181c-.223.171-.442.317-.653.458a4.657,4.657,0,0,0-1.322,1.156l-.071.1a1.244,1.244,0,0,1-1.043.537,1.348,1.348,0,0,1-.166-.01ZM16.67,35.051a46.1,46.1,0,0,1-5.631-.4l-1.048-.132a20.01,20.01,0,0,1-4.271-.9,8.051,8.051,0,0,1-2.957-1.852A8.578,8.578,0,0,1,.932,29.021a13.224,13.224,0,0,1-.9-5.913A17.37,17.37,0,0,1,.48,20.072a16.365,16.365,0,0,1,.937-2.792,13.87,13.87,0,0,1,1.76-2.905,14.943,14.943,0,0,1,2.488-2.515,12.187,12.187,0,0,1,2.99-1.77,8.712,8.712,0,0,1,3.265-.669,7.48,7.48,0,0,1,.776.04,16.874,16.874,0,0,1,2.184-.16h.151A17.021,17.021,0,0,1,25,12.44a14.671,14.671,0,0,1,1.946,1.691,12.149,12.149,0,0,1,1.574,2.016,9.139,9.139,0,0,1,1.435,4.858,12.564,12.564,0,0,1-1.185,5.068,22.5,22.5,0,0,1-2.722,4.481,12.487,12.487,0,0,1-1.862,1.967,10.528,10.528,0,0,1-2.134,1.4,10.718,10.718,0,0,1-2.411.838,13.079,13.079,0,0,1-2.7.293ZM14.9,12.08h0a18.123,18.123,0,0,0-4.251.518,19.282,19.282,0,0,0-4,1.449,15.467,15.467,0,0,0-2.2,3.1,13.7,13.7,0,0,0-1.29,3.319,13.023,13.023,0,0,0-.334,3.56,11.811,11.811,0,0,0,.687,3.506,4.941,4.941,0,0,0,2.433,2.794,12.082,12.082,0,0,0,3.673,1.052l1.029.162.432.065a35.4,35.4,0,0,0,5.074.456,15.018,15.018,0,0,0,2.882-.252,6.908,6.908,0,0,0,3.5-1.89A15.182,15.182,0,0,0,25,26.7l.065-.108a14.282,14.282,0,0,0,1.721-3.938,7.467,7.467,0,0,0,.215-2.1,5.945,5.945,0,0,0-.49-2.1,8.852,8.852,0,0,0-2.319-3.069,13.161,13.161,0,0,0-3.268-2.074,13.776,13.776,0,0,0-2.938-.932,15.754,15.754,0,0,0-3.079-.3Zm-.1,16.675a6.933,6.933,0,0,1-3.681-1.049l.011-.014,0,0a.353.353,0,0,0,.022-.029,1.264,1.264,0,0,0,.223.02,1.105,1.105,0,0,0,1.084-.727,3.5,3.5,0,0,0,.168-1.264,2.91,2.91,0,0,0-.314-1.181,2.364,2.364,0,0,0-1.451-1.186,2.674,2.674,0,0,0-.769-.113,2.784,2.784,0,0,0-1.091.225,3.09,3.09,0,0,0-.933.617,8.015,8.015,0,0,1-.488-4.389,6.546,6.546,0,0,1,3.678-4.973,4.46,4.46,0,0,1,1.819-.429,3.461,3.461,0,0,1,.813.1,7.176,7.176,0,0,1,7.52.635,2.1,2.1,0,0,0-.55.174,1.753,1.753,0,0,0-.881,1.22,1.125,1.125,0,0,0,.108.795,1.093,1.093,0,0,0,.627.5,2.6,2.6,0,0,0,.78.136,1.32,1.32,0,0,0,1.267-.828l.015-.038.019-.028.007-.013h0a.106.106,0,0,0-.021.027c.013-.031.025-.061.038-.094l0,0a1.253,1.253,0,0,0,.053-.119c.024-.021.047-.045.069-.067l.006-.007a6.688,6.688,0,0,1,.867,1.978,6.07,6.07,0,0,1,.008,2.946,8.152,8.152,0,0,1-1.255,2.74,10.926,10.926,0,0,1-3.126,2.977,9.17,9.17,0,0,1-3.843,1.425A7.419,7.419,0,0,1,14.8,28.756Zm29.659-1.342a5.494,5.494,0,0,1-3.4-1.172.856.856,0,0,0,.242-.188,2.54,2.54,0,0,0,.455-.68c.032-.073.059-.137.082-.2l.038-.1c.02-.058.054-.157.052-.16l0,0,0,.007.021-.049a1.283,1.283,0,0,0,.074-.747.972.972,0,0,0-.422-.61l-.051-.032a1.063,1.063,0,0,0-.532-.131,1.646,1.646,0,0,0-1.318-.614,2.137,2.137,0,0,0-.529.069l-.023-.188c0-.036-.007-.066-.009-.094a6.323,6.323,0,0,1-.2-2.665,6.708,6.708,0,0,1,.939-2.6l.075-.118a6.593,6.593,0,0,1,1.364-1.531,3,3,0,0,1,1.846-.753,2.053,2.053,0,0,1,.52.067,2.248,2.248,0,0,1,.607.261,3.556,3.556,0,0,1,.476-.032A3.744,3.744,0,0,1,46.7,15.7l-.019.049a.187.187,0,0,0-.008.025,1.156,1.156,0,0,0,.106.811,1.708,1.708,0,0,0,.63.716,1.237,1.237,0,0,0,.613.166h.024a1.271,1.271,0,0,0,.842-.366,1.006,1.006,0,0,0,.265-.469,3.225,3.225,0,0,1,.334.374,5.63,5.63,0,0,1,.942,1.941,6.711,6.711,0,0,1-.29,4.313,5.624,5.624,0,0,1-1.2,1.8c-.069.069-.143.134-.215.2l0,0-.04.035a5.1,5.1,0,0,1-3.663,2.085A5.514,5.514,0,0,1,44.463,27.413ZM2.112,11.214a.117.117,0,0,1-.083-.038A.1.1,0,0,1,2,11.1a4.827,4.827,0,0,1,.917-2.361,17.8,17.8,0,0,1,1.645-2l.006-.006A20.147,20.147,0,0,1,8.9,3.182,23.429,23.429,0,0,1,14.1.792,21.594,21.594,0,0,1,17.028.087L17.2.06A5.245,5.245,0,0,1,17.95,0a2.623,2.623,0,0,1,2.26,1.192,1.824,1.824,0,0,1,0,1.859,2.462,2.462,0,0,1-1.523,1.212A9.545,9.545,0,0,1,16.6,4.6a12.357,12.357,0,0,0-1.4.174A23.638,23.638,0,0,0,10.45,6.237,30.866,30.866,0,0,0,6.041,8.643c-.432.281-.859.617-1.272.941A9.1,9.1,0,0,1,2.14,11.209.092.092,0,0,1,2.112,11.214Zm49.42-1.806h0a2.3,2.3,0,0,1-1.474-.566l-.564-.468-.361-.3A22.836,22.836,0,0,0,43.926,4.67a34.924,34.924,0,0,0-6.8-2.019h0l-.318-.071a.157.157,0,0,1-.107-.1.148.148,0,0,1,.011-.138,3.8,3.8,0,0,1,1.9-1.41A7.422,7.422,0,0,1,41.131.547a14.623,14.623,0,0,1,3.64.509,20.412,20.412,0,0,1,4.5,1.794A14.484,14.484,0,0,1,53.1,5.8a2.073,2.073,0,0,1,.443,2.293A2.242,2.242,0,0,1,51.532,9.408Z" transform="translate(9.477 9.477)"/>
    </g>
    <g id="accessories_Glasses" data-name="accessories/Glasses" transform="translate(62.916 70.551)">
      <path id="_Ink-4" data-name="ðŸ– Ink" d="M52.843,32.566a19.842,19.842,0,0,1-3.48-.315,19.619,19.619,0,0,1-3.407-.927,12.922,12.922,0,0,1-5.43-3.586,18.928,18.928,0,0,1-3.084-8.359A28.842,28.842,0,0,1,37.1,14.2a21.122,21.122,0,0,1,.661-4.9L37.745,9.3l-.027-.011c-.019.184-.284.339-.765.448a8.21,8.21,0,0,1-1.709.155c-1.481,0-3.2-.276-3.706-.891a.571.571,0,0,1-.132-.492c-3.137.056-6.536.262-10.392.629-3.44.328-6.927.752-10.3,1.162-2.326.283-4.731.575-7.111.835-1.123.1-1.179.905-1.232,1.679a3.273,3.273,0,0,1-.152.934.916.916,0,0,1-.654.58H1.509a1.433,1.433,0,0,1-1.084-.411,1.676,1.676,0,0,1-.414-1.02,3.978,3.978,0,0,1,.611-2.317,3.635,3.635,0,0,1,.81-.945,2.36,2.36,0,0,1,1.055-.506C4.8,8.883,7.181,8.563,9.48,8.253a112.794,112.794,0,0,1,14.9-1.341,43.169,43.169,0,0,1,7.275.572,2.371,2.371,0,0,1,2-.858,10.13,10.13,0,0,1,2.36.4c.42.105.817.2,1.159.256a4.586,4.586,0,0,1,1.658-2.74A10.589,10.589,0,0,1,42.3,2.707,24.578,24.578,0,0,1,46.98,1.679a41.286,41.286,0,0,1,5.269-.32c4.987,0,9.967.79,12.688,2.012,5-.576,10.191-.98,15.209-1.371h.007c2.029-.158,4.128-.322,6.156-.492A29.169,29.169,0,0,1,95.159,0a18.546,18.546,0,0,1,5.335.74c.084,0,.157-.007.223-.007.434,0,.5.1.628.273.025.035.053.074.086.115A6.858,6.858,0,0,1,103.885,3a7.107,7.107,0,0,1,1.478,2.913,7.576,7.576,0,0,1,3.3-.656,15.9,15.9,0,0,1,2.061.15,2.3,2.3,0,0,1,.784.533.593.593,0,0,1,.159.523,1.046,1.046,0,0,1-.464.579,4,4,0,0,1-.972.475,8.162,8.162,0,0,1-2.57.439c-1.056,0-1.768-.252-2-.711a23.258,23.258,0,0,1,0,5.651,27.447,27.447,0,0,1-1.435,6.163,20.178,20.178,0,0,1-3,5.561,12.973,12.973,0,0,1-4.685,3.844,12.391,12.391,0,0,1-5.475,1.306,11.455,11.455,0,0,1-4.575-.947,11.848,11.848,0,0,1-3.825-2.656A13.7,13.7,0,0,1,78.99,16.052a1.006,1.006,0,0,1-.654-.536,3.294,3.294,0,0,1-.292-1.489,11.461,11.461,0,0,1,.178-1.978,23.394,23.394,0,0,1,.949-3.688A32.66,32.66,0,0,0,74.238,7.9a14.705,14.705,0,0,0-4.505.654,10.308,10.308,0,0,1-.054,5.125,33.472,33.472,0,0,1-2.235,6.77,34.261,34.261,0,0,1-3.66,6.406,18.635,18.635,0,0,1-2.128,2.439,9.264,9.264,0,0,1-2.2,1.6A8.965,8.965,0,0,1,56.5,32.152a15.307,15.307,0,0,1-3.656.414h0ZM50.568,3.9a27.042,27.042,0,0,0-5.162.376A11.532,11.532,0,0,0,40.79,6.1a5.058,5.058,0,0,0-.9,1.542A11.548,11.548,0,0,0,39.309,9.8a24.509,24.509,0,0,0-.273,5.466,29.893,29.893,0,0,0,.86,5.781,15.384,15.384,0,0,0,1.918,4.65,10.26,10.26,0,0,0,3.7,2.866,16.588,16.588,0,0,0,3.193,1.256,13.934,13.934,0,0,0,3.7.522,11.5,11.5,0,0,0,3.929-.676,11.96,11.96,0,0,0,3.867-2.336,17.623,17.623,0,0,0,3.517-4.46,32.547,32.547,0,0,0,2.881-7.047,13.106,13.106,0,0,0,1.048-4.738A5.954,5.954,0,0,0,66.7,7.724a6.169,6.169,0,0,0-1.825-1.742,10.461,10.461,0,0,0-2.612-1.158,19.588,19.588,0,0,0-3.25-.656,34.886,34.886,0,0,0-3.741-.236c-.229,0-.466,0-.724,0-.636,0-1.271-.01-1.944-.02h-.025C51.928,3.908,51.251,3.9,50.568,3.9ZM95.462,2.674a29.182,29.182,0,0,0-5.4.409,14.418,14.418,0,0,0-5.029,1.862,8.668,8.668,0,0,0-3.467,4.187,12.422,12.422,0,0,0-.749,2.648,15.966,15.966,0,0,0-.22,2.762,1.6,1.6,0,0,1-.177.974,1.281,1.281,0,0,1-.607.511,20.163,20.163,0,0,0,1.653,5.184,13.456,13.456,0,0,0,2.565,3.659,10.089,10.089,0,0,0,3.188,2.169,9.01,9.01,0,0,0,3.521.716h0a10.636,10.636,0,0,0,7.623-3.5,18.5,18.5,0,0,0,4.592-10.23,22.784,22.784,0,0,0,.386-5.119,9.606,9.606,0,0,0-.411-2.343,5.674,5.674,0,0,0-1.048-1.945A5.022,5.022,0,0,0,99.873,3.2a8.519,8.519,0,0,0-3.137-.524c-.1,0-.208,0-.312,0C96.079,2.676,95.765,2.674,95.462,2.674ZM65.931,3.92h0a9.245,9.245,0,0,1,2.175,1.823,7.66,7.66,0,0,1,1.462,2.329A8.107,8.107,0,0,1,72.541,6.9a16.359,16.359,0,0,1,3.234-.282c.4,0,.825.01,1.293.029.142.008.291.014.448.02a5.365,5.365,0,0,1,2.245.4A10.822,10.822,0,0,1,81.3,4.818,10.55,10.55,0,0,1,83.248,3.09c-.8.061-1.614.125-2.4.187h0c-4.207.331-8.558.673-12.789.673C67.328,3.95,66.614,3.94,65.931,3.92Z" transform="translate(0 0)"/>
      <path id="_Ink-5" data-name="ðŸ– Ink" d="M52.843,32.566a19.842,19.842,0,0,1-3.48-.315,19.619,19.619,0,0,1-3.407-.927,12.922,12.922,0,0,1-5.43-3.586,18.928,18.928,0,0,1-3.084-8.359A28.842,28.842,0,0,1,37.1,14.2a21.122,21.122,0,0,1,.661-4.9L37.745,9.3l-.027-.011c-.019.184-.284.339-.765.448a8.21,8.21,0,0,1-1.709.155c-1.481,0-3.2-.276-3.706-.891a.571.571,0,0,1-.132-.492c-3.137.056-6.536.262-10.392.629-3.44.328-6.927.752-10.3,1.162-2.326.283-4.731.575-7.111.835-1.123.1-1.179.905-1.232,1.679a3.273,3.273,0,0,1-.152.934.916.916,0,0,1-.654.58H1.509a1.433,1.433,0,0,1-1.084-.411,1.676,1.676,0,0,1-.414-1.02,3.978,3.978,0,0,1,.611-2.317,3.635,3.635,0,0,1,.81-.945,2.36,2.36,0,0,1,1.055-.506C4.8,8.883,7.181,8.563,9.48,8.253a112.794,112.794,0,0,1,14.9-1.341,43.169,43.169,0,0,1,7.275.572,2.371,2.371,0,0,1,2-.858,10.13,10.13,0,0,1,2.36.4c.42.105.817.2,1.159.256a4.586,4.586,0,0,1,1.658-2.74A10.589,10.589,0,0,1,42.3,2.707,24.578,24.578,0,0,1,46.98,1.679a41.286,41.286,0,0,1,5.269-.32c4.987,0,9.967.79,12.688,2.012,5-.576,10.191-.98,15.209-1.371h.007c2.029-.158,4.128-.322,6.156-.492A29.169,29.169,0,0,1,95.159,0a18.546,18.546,0,0,1,5.335.74c.084,0,.157-.007.223-.007.434,0,.5.1.628.273.025.035.053.074.086.115A6.858,6.858,0,0,1,103.885,3a7.107,7.107,0,0,1,1.478,2.913,7.576,7.576,0,0,1,3.3-.656,15.9,15.9,0,0,1,2.061.15,2.3,2.3,0,0,1,.784.533.593.593,0,0,1,.159.523,1.046,1.046,0,0,1-.464.579,4,4,0,0,1-.972.475,8.162,8.162,0,0,1-2.57.439c-1.056,0-1.768-.252-2-.711a23.258,23.258,0,0,1,0,5.651,27.447,27.447,0,0,1-1.435,6.163,20.178,20.178,0,0,1-3,5.561,12.973,12.973,0,0,1-4.685,3.844,12.391,12.391,0,0,1-5.475,1.306,11.455,11.455,0,0,1-4.575-.947,11.848,11.848,0,0,1-3.825-2.656A13.7,13.7,0,0,1,78.99,16.052a1.006,1.006,0,0,1-.654-.536,3.294,3.294,0,0,1-.292-1.489,11.461,11.461,0,0,1,.178-1.978,23.394,23.394,0,0,1,.949-3.688A32.66,32.66,0,0,0,74.238,7.9a14.705,14.705,0,0,0-4.505.654,10.308,10.308,0,0,1-.054,5.125,33.472,33.472,0,0,1-2.235,6.77,34.261,34.261,0,0,1-3.66,6.406,18.635,18.635,0,0,1-2.128,2.439,9.264,9.264,0,0,1-2.2,1.6A8.965,8.965,0,0,1,56.5,32.152a15.307,15.307,0,0,1-3.656.414h0ZM50.568,3.9a27.042,27.042,0,0,0-5.162.376A11.532,11.532,0,0,0,40.79,6.1a5.058,5.058,0,0,0-.9,1.542A11.548,11.548,0,0,0,39.309,9.8a24.509,24.509,0,0,0-.273,5.466,29.893,29.893,0,0,0,.86,5.781,15.384,15.384,0,0,0,1.918,4.65,10.26,10.26,0,0,0,3.7,2.866,16.588,16.588,0,0,0,3.193,1.256,13.934,13.934,0,0,0,3.7.522,11.5,11.5,0,0,0,3.929-.676,11.96,11.96,0,0,0,3.867-2.336,17.623,17.623,0,0,0,3.517-4.46,32.547,32.547,0,0,0,2.881-7.047,13.106,13.106,0,0,0,1.048-4.738A5.954,5.954,0,0,0,66.7,7.724a6.169,6.169,0,0,0-1.825-1.742,10.461,10.461,0,0,0-2.612-1.158,19.588,19.588,0,0,0-3.25-.656,34.886,34.886,0,0,0-3.741-.236c-.229,0-.466,0-.724,0-.636,0-1.271-.01-1.944-.02h-.025C51.928,3.908,51.251,3.9,50.568,3.9ZM95.462,2.674a29.182,29.182,0,0,0-5.4.409,14.418,14.418,0,0,0-5.029,1.862,8.668,8.668,0,0,0-3.467,4.187,12.422,12.422,0,0,0-.749,2.648,15.966,15.966,0,0,0-.22,2.762,1.6,1.6,0,0,1-.177.974,1.281,1.281,0,0,1-.607.511,20.163,20.163,0,0,0,1.653,5.184,13.456,13.456,0,0,0,2.565,3.659,10.089,10.089,0,0,0,3.188,2.169,9.01,9.01,0,0,0,3.521.716h0a10.636,10.636,0,0,0,7.623-3.5,18.5,18.5,0,0,0,4.592-10.23,22.784,22.784,0,0,0,.386-5.119,9.606,9.606,0,0,0-.411-2.343,5.674,5.674,0,0,0-1.048-1.945A5.022,5.022,0,0,0,99.873,3.2a8.519,8.519,0,0,0-3.137-.524c-.1,0-.208,0-.312,0C96.079,2.676,95.765,2.674,95.462,2.674ZM65.931,3.92h0a9.245,9.245,0,0,1,2.175,1.823,7.66,7.66,0,0,1,1.462,2.329A8.107,8.107,0,0,1,72.541,6.9a16.359,16.359,0,0,1,3.234-.282c.4,0,.825.01,1.293.029.142.008.291.014.448.02a5.365,5.365,0,0,1,2.245.4A10.822,10.822,0,0,1,81.3,4.818,10.55,10.55,0,0,1,83.248,3.09c-.8.061-1.614.125-2.4.187h0c-4.207.331-8.558.673-12.789.673C67.328,3.95,66.614,3.94,65.931,3.92Z" transform="translate(0 0)"/>
    </g>
  </g>
</svg>
