<svg id="Peep2" xmlns="http://www.w3.org/2000/svg" width="281" height="379" viewBox="0 0 281 379">
  <g id="BODY" transform="translate(36.32 157.941)">
    <path id="_Background" data-name="ðŸŽ¨ Background" d="M184.88,144.6q-1.494-8.44-2.739-16.922c-.394-2.684-.778-5.371-1.123-8.062-.242-1.885-.61-4.041.672-5.438,1.8-1.965,3.443-3.648,3.664-6.463.208-2.649-.688-5.537-1.247-8.108-1.174-5.392-2.636-10.718-4.251-15.993-1.641-5.359-3.44-10.668-5.265-15.967a148.932,148.932,0,0,0-5.569-14.706c-4.218-9.021-11.353-15.7-20.172-20.161-2.193-1.109-6.667-5.069-8.958-5.956-2.107-.815-2.1,1.565-4.172.669a8.29,8.29,0,0,1-4.129-3.273c-1.008-1.738-3.534-4.169-3.919-6.193-.815-4.289.068-7.939-2.992-11.167A22.225,22.225,0,0,0,114.535.974C106.225-1.345,95.141.276,90.127,8c-2.395,3.689-3.232,8.149-6.463,11.159-2.822,2.629-2.19,4.426-5.845,5.781-.207.077-5.817-1.127-6.024-1.05-4-.856-7.819,1.54-11.487,2.93A80.4,80.4,0,0,0,44.741,34.8,98.657,98.657,0,0,0,19.467,59.158,119.27,119.27,0,0,0,3.117,90.69Q1.7,94.778.583,98.96a8.409,8.409,0,0,0-.356,4.772,6.146,6.146,0,0,0,2.428,3.061c1.473,1.062,4.429,1.752,4.371,3.888a37.3,37.3,0,0,1-.864,4.938c-.32,1.911-.583,3.834-.846,5.753-1.2,8.737-2.127,17.524-2.538,26.336a227.517,227.517,0,0,0-.14,26.2,3.356,3.356,0,0,0,.485,1.541.349.349,0,0,0,.043.645l.671.142a2.953,2.953,0,0,0,1.712.589c.452.014.9.035,1.356.058,4.769,1,9.537,1.939,14.368,2.652q8.809,1.3,17.67,2.149c12.14,1.181,24.184.789,36.34.153q18.206-.953,36.417-.468c12.16.317,24.316.846,36.479,1.062,13.589.242,27.157-.13,40.706-1.21a2.792,2.792,0,0,0,2.641-3.472C189.333,166.691,186.846,155.706,184.88,144.6Z" transform="translate(6.424 -7.909)" fill="#fff"/>
    <path id="_Ink" data-name="ðŸ– Ink" d="M39.962,175.727a2.141,2.141,0,0,1-.252-.015,2.2,2.2,0,0,1-1.391-.741,2.258,2.258,0,0,1-.567-1.478c-.009-2.067.173-4.18.349-6.224v0c.074-.861.151-1.751.212-2.623.17-2.434.361-5.012.619-8.358.5-6.454,1.052-13.01,1.588-19.351v0c.308-3.644.626-7.412.931-11.128.259-3.16.559-6.594.943-10.806a53.542,53.542,0,0,1-8.241-.93,67.716,67.716,0,0,1-7.989-2.058c-2.48-.8-5.019-1.743-7.762-2.9-2.317-.975-4.789-2.1-7.558-3.447-.137,3.114-.464,6.271-.78,9.325l-.049.471c-1.047,10.127-1.829,19.058-2.39,27.3-.272,4-.5,8.261-.74,13.831-.1,2.258-.177,4.547-.238,6.8-.021.766-.039,1.529-.055,2.268L6.56,167.4A3.576,3.576,0,0,1,5.5,170.31a2.453,2.453,0,0,1-1.591.625,2.252,2.252,0,0,1-1.541-.625,3.023,3.023,0,0,1-.934-1.732,9.162,9.162,0,0,1-.069-1.993v0c.006-.169.013-.343.017-.514.03-1.275.067-2.583.11-3.888.085-2.573.2-5.188.328-7.773.433-8.423,1.288-17.273,2.614-27.057l.475-3.468c.428-3.107.9-6.417,1.511-9.713a78.623,78.623,0,0,1,2.333-9.536c-.747-.372-1.524-.762-2.309-1.159-.4-.2-.815-.407-1.214-.6h0c-.955-.47-1.943-.957-2.874-1.492A4.247,4.247,0,0,1,.107,98.727,7.589,7.589,0,0,1,.468,95.1l0-.006c.049-.189.1-.367.141-.546l.029-.117c.31-1.278.661-2.621,1.042-3.992A132.166,132.166,0,0,1,7.188,74.66a129.262,129.262,0,0,1,16.751-28.9A99.979,99.979,0,0,1,34.011,34.509c1.853-1.765,3.769-3.433,5.7-4.957a73.612,73.612,0,0,1,6.151-4.38A62.88,62.88,0,0,1,52.3,21.579a56.149,56.149,0,0,1,6.84-2.761,35.117,35.117,0,0,1,6.871-1.6c1.1-.123,2.282-.209,3.721-.272.139-.006.284-.009.432-.009a22.442,22.442,0,0,1,2.484.187h.009c.285.032.58.065.868.094a.119.119,0,0,1,.1.111.087.087,0,0,1-.075.094c-2.226.465-4.423,1.1-6.666,1.762l-.943.279c-2.336.691-4.837,1.47-7.3,2.475A65.344,65.344,0,0,0,45.1,29.564,93.1,93.1,0,0,0,24.222,50.9a119.056,119.056,0,0,0-7.968,12.783A133.484,133.484,0,0,0,9.917,77.2,130.457,130.457,0,0,0,4.846,92.441c-.323,1.219-.641,2.495-.946,3.793-.019.082-.052.191-.091.317-.132.435-.332,1.091-.169,1.388a1.957,1.957,0,0,0,.9.57c.125.053.243.1.333.149L6,99.243c2.193,1.131,5.851,2.992,6.227,3.178l.573.282a104.5,104.5,0,0,0,14.518,6,63.544,63.544,0,0,0,7.594,1.922,50.122,50.122,0,0,0,7.8.836l.083-.9a84.751,84.751,0,0,1,2.433-14.808.2.2,0,0,1,.191-.158.25.25,0,0,1,.242.217,66.056,66.056,0,0,1,.5,8.594c0,2.769-.115,5.54-.255,8.614-.32,7.012-.718,14.135-1.1,21.024v.006c-.173,3.1-.352,6.3-.522,9.452-.192,3.559-.426,7.176-.654,10.674v.005c-.1,1.491-.2,3.032-.293,4.562-.083,1.318-.152,2.668-.22,3.974v0c-.193,3.752-.393,7.632-.934,11.372a1.763,1.763,0,0,1-.811,1.2A2.614,2.614,0,0,1,39.962,175.727Zm151.495-4.068a1.52,1.52,0,0,1-.626-.144l-.156-.072a2.849,2.849,0,0,1-1.807-1.743,9.458,9.458,0,0,1-.273-1.283c-.034-.206-.069-.42-.11-.623-.239-1.2-.467-2.406-.677-3.584-.425-2.39-.845-4.81-1.248-7.193l-.379-2.247c-1.251-7.439-2.526-15.37-3.164-23.36-.289-3.622-.6-7.272-.868-10.409l-.223-2.6c-.044-.518-.091-1.048-.136-1.56v-.01c-.244-2.767-.5-5.629-.537-8.438l-1.12.4-5.463,1.932c-.338.119-.694.268-1.071.426a8.731,8.731,0,0,1-3.1.877,2.987,2.987,0,0,1-.363-.021,2.76,2.76,0,0,1-1.678-.72c.522,7.364,1.225,14.512,2.092,21.245.917,7.131,1.841,13.414,2.822,19.207.438,2.585,1.025,6,1.683,9.464.294,1.552.606,3.139.925,4.717.049.244.1.493.154.733.114.531.231,1.081.316,1.625a2.738,2.738,0,0,1-.613,2.205,1.549,1.549,0,0,1-1.25.7,1.24,1.24,0,0,1-.668-.193,4.092,4.092,0,0,1-1.045-.859,3.02,3.02,0,0,1-.573-1.2c-.165-.642-.287-1.312-.405-1.961v-.007c-.051-.283-.1-.576-.161-.861-.336-1.707-.668-3.455-.987-5.2-.686-3.746-1.3-7.416-1.823-10.908-.946-6.309-1.744-12.815-2.373-19.337-.612-6.347-1.08-12.885-1.392-19.434-.29-6.086-.4-12.371-.345-19.215.03-3.571.15-6.794.367-9.854.193-2.725.565-5.455.924-8.095l0-.024c.077-.567.157-1.154.234-1.732a.1.1,0,0,1,.1-.089.087.087,0,0,1,.088.089c.086,1.525.193,3.076.3,4.575v0c.147,2.121.3,4.313.392,6.474s.155,4.346.214,6.466v0c.038,1.345.077,2.735.124,4.106.162,4.728.387,9.4.669,13.9a2.417,2.417,0,0,1,1.768-.807,2.15,2.15,0,0,1,.346.028,14.766,14.766,0,0,0,2.269-.757c.424-.167.825-.325,1.216-.455l4.135-1.382c2.059-.688,4.275-1.424,6.528-2.147a165.54,165.54,0,0,1-4.427-19.982l-.509-3.039c-.483-2.868-1.017-5.937-1.652-8.952-.692-3.287-1.433-6.169-2.265-8.81a57.707,57.707,0,0,0-3.588-8.8,56.749,56.749,0,0,0-5.005-8.08,71.291,71.291,0,0,0-6.153-7.167c-1.979-2.04-4.161-4.1-6.864-6.5C151.679,28.9,149.2,26.9,146.8,24.977c-1.718-1.379-3.494-2.8-5.207-4.251a2.381,2.381,0,0,1,.014.76,26.093,26.093,0,0,1-1.1,4.693,28.328,28.328,0,0,1-1.912,4.426,30.172,30.172,0,0,1-2.619,4.058,30.644,30.644,0,0,1-13.743,10.145,33.542,33.542,0,0,1-5.936,1.606,35.806,35.806,0,0,1-6.154.529,37.55,37.55,0,0,1-6.3-.537,38.271,38.271,0,0,1-6.162-1.59,41.738,41.738,0,0,1-8.328-4.009,42.9,42.9,0,0,1-7.333-5.773A39.944,39.944,0,0,1,76.176,27.8a35.059,35.059,0,0,1-3.862-8.388.156.156,0,0,1,.019-.143.179.179,0,0,1,.145-.067.189.189,0,0,1,.154.076l.525.718.077.105a.262.262,0,0,1,.177-.28,31.657,31.657,0,0,0,11.5-7.194A24.685,24.685,0,0,0,88.849,7.3a21.225,21.225,0,0,0,1.327-2.89l.092-.258c.05-.141.1-.287.145-.416A8.331,8.331,0,0,1,92,.641,1.977,1.977,0,0,1,93.481,0a2.522,2.522,0,0,1,1.99,1.022,1.946,1.946,0,0,1,.27,1.8A31.638,31.638,0,0,1,92.4,9.884a24.811,24.811,0,0,1-2.352,3.088,22.551,22.551,0,0,1-2.869,2.689,23.91,23.91,0,0,1-5.81,3.414,17.509,17.509,0,0,1-6.528,1.308c-.452,0-.909-.019-1.36-.057a.3.3,0,0,1-.1-.027l.436.592c1.413,1.912,3.3,4.414,5.345,6.811A58.2,58.2,0,0,0,85.2,33.876a42.958,42.958,0,0,0,5.527,4.081,40.664,40.664,0,0,0,6.1,3.112,37.151,37.151,0,0,0,6.507,1.983,33.68,33.68,0,0,0,6.755.7,31.378,31.378,0,0,0,7.715-.958,27.815,27.815,0,0,0,6.6-2.624,28.569,28.569,0,0,0,5.761-4.2,26.746,26.746,0,0,0,4.487-5.495,23.857,23.857,0,0,0,2.78-6.517,1.812,1.812,0,0,1-.747.157,2.093,2.093,0,0,1-.443-.049c-1.894-.411-3.767-2.393-5.011-3.848a18.2,18.2,0,0,1-3.122-5.122,16.55,16.55,0,0,1-1.2-5.685,12.427,12.427,0,0,1,.258-2.911,9.544,9.544,0,0,1,1.006-2.693.393.393,0,0,1,.346-.218.5.5,0,0,1,.474.44l.072.631a25.491,25.491,0,0,0,2.305,9.061,18.553,18.553,0,0,0,2.655,3.95,15.5,15.5,0,0,0,1.845,1.758c.257.2.54.389.814.568a7.036,7.036,0,0,1,1.195.907l.106.113,0-.02a2.054,2.054,0,0,1,.642-1.334,1.745,1.745,0,0,1,1.157-.428l.076,0a6.625,6.625,0,0,1,2.175.572l.036.017a83.874,83.874,0,0,1,16.084,10.389,67.84,67.84,0,0,1,13.392,14.261A61.263,61.263,0,0,1,180,62.088a158.8,158.8,0,0,1,3.773,17.732l.012.067q.115.667.231,1.334l.687,3.934c.474,2.7,1.043,5.837,1.787,8.9a54.748,54.748,0,0,0,2.77,8.588,2.573,2.573,0,0,1,.087,2.047,2.411,2.411,0,0,1-1.439,1.278c-1.622.61-3.4,1.261-5.6,2.049.663,2.845,1.145,5.8,1.611,8.652v.009c.179,1.1.364,2.229.556,3.332.824,4.744,1.768,9.55,2.681,14.2l0,.009c.709,3.607,1.441,7.337,2.113,11.014.4,2.166.778,4.37,1.148,6.5.365,2.106.743,4.284,1.134,6.424.232,1.271.48,2.593.7,3.76l.02.106c.144.77.293,1.566.438,2.348.136.737.266,1.486.392,2.21.061.353.131.754.2,1.147l.034.186.026.136a3.62,3.62,0,0,1,.067,1.655,3.543,3.543,0,0,1-1.03,1.48l0,0-.145.148A1.076,1.076,0,0,1,191.457,171.659Z" transform="translate(4.693 -1.236)"/>
  </g>
  <g id="HEAD" transform="translate(91.911 44.49)">
    <path id="_Background-2" data-name="ðŸŽ¨ Background" d="M89.07,51.677c-.587-7.6.323-15.564-2.606-22.786C81.357,16.907,67.038,12.911,55.937,8.348,51.489,7.034,36.525,6.85,31.317,5.11,19.532,1.172,16.716-3.52,7.352,3.978A10.184,10.184,0,0,0,4.06,8.553l.03.008a2.537,2.537,0,0,0,.479,2.188,15.288,15.288,0,0,0-3.676,15.9c6.8,14.383,6.479,22.159,4.288,37.621-2.861,14.435,3.676,19.708,14.5,27.562a2.661,2.661,0,0,0,.042,2.746c12.518,17.6,36.122,26,56.346,17.068,8.209-3.655,11.874-12.4,13.965-20.292a56.483,56.483,0,0,0,1.2-27.148A112.458,112.458,0,0,1,89.07,51.677Z" transform="translate(9.142 8.572)" fill="#fff"/>
    <path id="_Ink-2" data-name="ðŸ– Ink" d="M95.013,149.463a37.37,37.37,0,0,1-8.919-1.118,45.777,45.777,0,0,1-6.059-1.968,3.618,3.618,0,0,1-1.549-1.06,1.427,1.427,0,0,1-.321-1.128,1.316,1.316,0,0,1,1.388-.991,2.344,2.344,0,0,1,.741.128,54.122,54.122,0,0,0,6,1.638,37.261,37.261,0,0,0,7.585.86,24.336,24.336,0,0,0,3.139-.195,36.069,36.069,0,0,0,10.258-2.71,23.357,23.357,0,0,0,4.488-2.65,21.754,21.754,0,0,0,3.884-3.8,25.414,25.414,0,0,0,3.147-5.175,35.878,35.878,0,0,0,2.277-6.764,56.349,56.349,0,0,0,1.275-8.571,91.694,91.694,0,0,0,.139-10.6c-.083-2.043-.247-4.12-.407-6.129-.185-2.336-.377-4.751-.441-7.125-.046-1.733-.066-3.494-.087-5.2-.03-2.543-.061-5.173-.175-7.757l-.063-1.472c-.075-1.738-.153-3.441-.282-5.172-.047-.2-.093-.411-.137-.612-.1-.459-.2-.932-.337-1.388a29.833,29.833,0,0,0-2.028-5.168,1.432,1.432,0,0,1-.618.282,9.953,9.953,0,0,1-1.773.167,7.547,7.547,0,0,1-3.133-.659,7.715,7.715,0,0,1-2.016-1.308,3.077,3.077,0,0,1-.64-.759h-.058a3.17,3.17,0,0,1-1.092-.185,2.132,2.132,0,0,1-.881-.592,2.109,2.109,0,0,1-.5-.958,1.726,1.726,0,0,1,.074-.937l.023-.06-.054-.02a9.51,9.51,0,0,1-3.377,4.177,10.783,10.783,0,0,1-3.719,1.628,18.445,18.445,0,0,1-4.056.466c-.134,0-.27,0-.4,0A56.176,56.176,0,0,1,87.63,65.7c-.935-.148-1.647-.288-2.31-.455l-.035.036c-.019.02-.037.04-.057.058a8.616,8.616,0,0,1-2.738,1.781,8.254,8.254,0,0,1-3.105.6A8.669,8.669,0,0,1,75.939,67a12.221,12.221,0,0,1-2.57-1.525,17.809,17.809,0,0,1-2.211-2.031c-.021.824-.063,1.579-.126,2.306l-.028.3a6.038,6.038,0,0,1-1.475,3.958,3.63,3.63,0,0,1-2.6,1.005,6.224,6.224,0,0,1-1.866-.316,10.452,10.452,0,0,1-1.795-.776c0,.052,0,.107,0,.161.5,1.7,1.01,3.426,1.5,5.1l.01.035.115.389.117.392.121.4v0a17.645,17.645,0,0,1,.825,3.583,4.644,4.644,0,0,1-1.065,3.5,2.963,2.963,0,0,1-2.234.991,3.878,3.878,0,0,1-1.118-.175A9.3,9.3,0,0,1,58.2,82.045l0,0c-.2-.177-.38-.344-.568-.508l-.738-.639A83.505,83.505,0,0,1,59.24,90.41a60.954,60.954,0,0,1,1.009,9.718.641.641,0,0,1-.632.633c-.068,0-.136,0-.2,0a6.081,6.081,0,0,1-2.216-.442,1.274,1.274,0,0,1-.136-.012,9.146,9.146,0,0,1-3.706-1.4,6.885,6.885,0,0,1,.3,2.583.232.232,0,0,1-.232.2.174.174,0,0,1-.178-.15,6.073,6.073,0,0,0-2.359-3.552,7.27,7.27,0,0,0-1.951-1.061,6.365,6.365,0,0,0-2.148-.387,5.43,5.43,0,0,0-1.011.093,7.8,7.8,0,0,0-4.3,2.441,8.914,8.914,0,0,0-1.413,2.062,9.051,9.051,0,0,0-.8,2.388,12.217,12.217,0,0,0,.345,5.535,13.989,13.989,0,0,0,1.052,2.629,12.648,12.648,0,0,0,1.533,2.294,7.151,7.151,0,0,0,4.158,2.6,5.457,5.457,0,0,0,.849.067,5.19,5.19,0,0,0,1.456-.205,7.724,7.724,0,0,0,.755-.283l.159-.066a4.222,4.222,0,0,1,.662-.186,3.664,3.664,0,0,0,.706-.207,1.206,1.206,0,0,1,.5-.11,1.02,1.02,0,0,1,.914,1.521,4.062,4.062,0,0,1-1.477,1.846,12.97,12.97,0,0,1,.978,1.451c.119.2.214.352.275.435a43.686,43.686,0,0,0,3.024,3.7,31.552,31.552,0,0,0,3.607,3.315l.539.426a12.707,12.707,0,0,1,3.182,3.294,1.652,1.652,0,0,1,.011,1.693,1.814,1.814,0,0,1-.606.648,1.624,1.624,0,0,1-.873.257h-.022a7.163,7.163,0,0,1-2.819-.634,10.092,10.092,0,0,1-2.43-1.572,22.541,22.541,0,0,1-3.792-4.482c-.288-.43-.569-.9-.835-1.389a2.967,2.967,0,0,1-.314.42l.23.618a1.384,1.384,0,0,1-.151,1.327,1.836,1.836,0,0,1-.694.586,2.03,2.03,0,0,1-.9.216,1.589,1.589,0,0,1-.778-.194,1.441,1.441,0,0,1-.585-.626,25.916,25.916,0,0,0-2.14-3.51,1.82,1.82,0,0,1-1.191-.724c-.211-.305-.433-.617-.649-.918-.457-.639-.929-1.3-1.345-1.979-.321-.3-.664-.612-1.05-.939l-.053.046,0,0c-.085.074-.172.151-.255.23a13.106,13.106,0,0,1-1.695,2.845l-.148.188a14.438,14.438,0,0,1-2.282,2.36,6.714,6.714,0,0,1-2.888,1.417.723.723,0,0,1-.135.013.828.828,0,0,1-.748-.516.61.61,0,0,1,.184-.7,23.564,23.564,0,0,1,1.969-1.534,17.091,17.091,0,0,0,2.656-2.213,16.644,16.644,0,0,0,1.833-2.4l.122-.2c.081-.133.168-.272.274-.44-.622-.424-1.251-.855-1.861-1.273a15.948,15.948,0,0,1-3.428,2.05,23.959,23.959,0,0,0-2.391,1.285l-.188.123a1.591,1.591,0,0,1-.892.288,1.56,1.56,0,0,1-.948-.336,2.039,2.039,0,0,1-.63-.825,1.693,1.693,0,0,1,.333-1.9,37.336,37.336,0,0,0,3.049-3.663h0c.344-.451.7-.917,1.055-1.367a9.863,9.863,0,0,1-1.038-3.912c-.045-.4-.081-.811-.112-1.174v0h-.063a4.765,4.765,0,0,1-2.675-.88l-.309-.22a9.335,9.335,0,0,1-2.8.446c-.075,0-.152,0-.226,0a2.616,2.616,0,0,1-1.437-.454,2.514,2.514,0,0,1-.868-1.061,2.711,2.711,0,0,1-.2-1.473,2.827,2.827,0,0,1,.669-1.452,5.181,5.181,0,0,1,3.956-1.7,5.982,5.982,0,0,1,2.228.429c.065-.034.135-.071.2-.109a2.4,2.4,0,0,1,.036-1.23l-.033-.221a5.713,5.713,0,0,1-.869-2.343,5.413,5.413,0,0,1,.083-1.991,3.376,3.376,0,0,1,.154-.451c.029-.073.059-.149.086-.225a4.373,4.373,0,0,1-.3-1.308c-.043-.051-.093-.112-.139-.176a3.538,3.538,0,0,1-.674-2.281,3.592,3.592,0,0,1,.832-2.074c0-.078.012-.152.021-.223-.056-.126-.109-.258-.158-.391a4.412,4.412,0,0,1-1.528-3.566,3.713,3.713,0,0,1,.951-2.179,1.236,1.236,0,0,1,.011-.864,10.334,10.334,0,0,1-.607-3.615,16.139,16.139,0,0,1,.477-3.814,3.366,3.366,0,0,1-.188-1.231,3.778,3.778,0,0,1,1.089-2.461,3.677,3.677,0,0,1,1.113-.785,3.231,3.231,0,0,1,1.339-.294h.037a3.232,3.232,0,0,1,.65.076l0-.044a4.991,4.991,0,0,1,.45-1.534.972.972,0,0,1-.3-.173A16.963,16.963,0,0,1,30.488,70.4a1.172,1.172,0,0,1-.284.035,1.359,1.359,0,0,1-1.16-.71,1.083,1.083,0,0,1,.049-1.14,8.33,8.33,0,0,1,.944-1.178,12.121,12.121,0,0,0-1.475.1,1.735,1.735,0,0,1-.223.014A2.413,2.413,0,0,1,27.1,67.14a3.436,3.436,0,0,1-1.013-.951c-.721.7-1.455,1.41-2.164,2.1l-.006.005a2.774,2.774,0,0,1-1.952.826,2.9,2.9,0,0,1-1.925-.754,3.113,3.113,0,0,1-1.015-1.945,4.121,4.121,0,0,1-1.5-.747,25.122,25.122,0,0,1-4.482,1.46,26.417,26.417,0,0,1-4.7.616l-.117,0a2.612,2.612,0,0,1-1.4-.4,2.925,2.925,0,0,1-.97-1.014,3.2,3.2,0,0,1-.431-1.492A2.914,2.914,0,0,1,5.795,63.3a14.84,14.84,0,0,1,2.631-3.376,30.854,30.854,0,0,1-4.912,1.063,1.521,1.521,0,0,1-.2.013,2.733,2.733,0,0,1-1.382-.448,2.49,2.49,0,0,1-.97-1.028,10.981,10.981,0,0,1,.329-9.659c.049-.1.1-.2.158-.29h0l.039-.069c.168-.417.35-.828.541-1.221A6.243,6.243,0,0,1,.356,44.645a8.081,8.081,0,0,1,.6-4.016,2.575,2.575,0,0,1-.3-2.271,19.907,19.907,0,0,1,1.5-3.105,19.056,19.056,0,0,1,2.006-2.77,6,6,0,0,1-.679-2.877,7.321,7.321,0,0,1,.3-2.016,7.5,7.5,0,0,1,2.106-3.423,10.191,10.191,0,0,1,4.18-2.225,11.925,11.925,0,0,1,2.421-3.013l0-.006c.036-.079.073-.159.113-.239a8.506,8.506,0,0,1,3.029-3.259A9.388,9.388,0,0,1,17.6,14.5a10.487,10.487,0,0,1,2.132-.481,3.108,3.108,0,0,1,.6-1.53,2.684,2.684,0,0,1,1.327-.961,9.06,9.06,0,0,1,1.346-2.687,3.822,3.822,0,0,1,1.171-1.06,2.811,2.811,0,0,1,2.871,0,17.747,17.747,0,0,1,2.342,1.6,3.22,3.22,0,0,1,1.129-.287l.107-.007,2.436-.123c.647-.287,1.3-.587,1.938-.878.347-.159.739-.338,1.121-.511a8.189,8.189,0,0,1,2.043-1.243,8.319,8.319,0,0,1,2.577-.62,22.122,22.122,0,0,1,2.135-.591A23.576,23.576,0,0,1,47.9,4.552h.2c.037-.464.054-.929.05-1.383l0-.234A2.747,2.747,0,0,1,48.888,1,3.11,3.11,0,0,1,50.71.034,3.028,3.028,0,0,1,51.158,0a2.656,2.656,0,0,1,1.685.591,3.652,3.652,0,0,1,1.08,1.487l.029.072c.168.433.358.867.581,1.325a10.284,10.284,0,0,1,2.247-.789,10.853,10.853,0,0,1,2.4-.271,9.413,9.413,0,0,1,3.955.833,7.444,7.444,0,0,1,1.684,1.075,6.889,6.889,0,0,1,1.344,1.544,5.757,5.757,0,0,1,.772,1.872A7.565,7.565,0,0,1,67.1,9.706a21.235,21.235,0,0,1-.687,3.991c-.073.308-.149.626-.219.935l-.425,1.886a3.225,3.225,0,0,1,1.025,1.047,2.54,2.54,0,0,1,.387,1.382l0,.075L67,21.652a13.679,13.679,0,0,0,1.5-1.807c.315-.577.652-1.136,1-1.661a2.908,2.908,0,0,1,2.45-1.4,3.131,3.131,0,0,1,2.619,1.471,2.884,2.884,0,0,1,.03,2.907,17.8,17.8,0,0,1-1.112,1.874,16.655,16.655,0,0,0-1.114,2.721,2.6,2.6,0,0,1,1.522,2.356,6.961,6.961,0,0,1-.177,2.011,6.816,6.816,0,0,1-.716,1.8,7.533,7.533,0,0,1-1.185,1.548,8.824,8.824,0,0,1-1.582,1.26,2.67,2.67,0,0,1-1.433.432,2.538,2.538,0,0,1-.613-.076c-.105.142-.224.3-.336.462a14.911,14.911,0,0,1,2.5,2.583,45.189,45.189,0,0,1,6.562-.484,12.014,12.014,0,0,1,5.317-1.1,20.6,20.6,0,0,1,3.447.312,34.423,34.423,0,0,1,3.458.84h0c.652.183,1.326.371,2,.534a25.86,25.86,0,0,0,3.486.515c.765.077,1.555.157,2.332.284a10.457,10.457,0,0,1,3.388,1.14,7.969,7.969,0,0,1,2.564,2.2,8.836,8.836,0,0,1,4.341,1.478c1.941,1.238,3.906,2.508,5.808,3.736l.01.007c1.047.677,2.131,1.377,3.2,2.065a3.073,3.073,0,0,1,1.373,3.252l-.014.085-.1.549.238.338.208.293a20.361,20.361,0,0,1,2.309,3.8,44.109,44.109,0,0,1,2.98,4.973,36.178,36.178,0,0,1,2.834,7.267c.154.593.329,1.264.44,1.923a5.039,5.039,0,0,1-.107,1.882h0c-.037.2-.076.4-.108.618-.078.531-.133,1.075-.186,1.6-.058.576-.119,1.171-.209,1.753a1.244,1.244,0,0,1-.5.831,1.621,1.621,0,0,1-.9.291c.246,1.874.422,3.743.6,5.653.26,2.912.427,5.841.543,8.068a6.4,6.4,0,0,0,3.284,2.18,4.758,4.758,0,0,0,1.231.156,9.7,9.7,0,0,0,3.214-.7.914.914,0,0,1,.311-.056.979.979,0,0,1,.834.526A1.068,1.068,0,0,1,134.561,96a3.75,3.75,0,0,1-1.568,1.5,4.476,4.476,0,0,1-2.035.452,6.705,6.705,0,0,1-2.828-.663,6.039,6.039,0,0,1-2.342-1.886c.035.741.073,1.5.11,2.225v.009l.006.111.037.71c.074,1.378.164,2.79.251,4.155.219,3.444.446,7.005.453,10.506,0,1.887-.056,3.6-.181,5.233a46.678,46.678,0,0,1-.673,5.173,32.5,32.5,0,0,1-3.62,9.922,31.975,31.975,0,0,1-6.413,8.032,30.985,30.985,0,0,1-8.6,5.525,30.293,30.293,0,0,1-10.184,2.4C96.326,149.444,95.667,149.463,95.013,149.463ZM49,119.676h0c-.249.053-.5.095-.731.123l.01.023c.069.17.14.346.21.525.2.114.4.221.6.316a5.08,5.08,0,0,1-.086-.989Zm-12.519-3.341a5.534,5.534,0,0,1,.628.036v-.037l-.02-.007a.889.889,0,0,1-.112-.043,5.475,5.475,0,0,1-.67-.382l-.164.3-.07.131-.008.016C36.205,116.341,36.346,116.336,36.483,116.336ZM33.257,71.649c-.25.008-.339.127-.338.2a.061.061,0,0,0,.062.066c.027,0,.1-.016.2-.169A.757.757,0,0,1,33.257,71.649ZM61.531,37.658a18.144,18.144,0,0,0-7.3,1.949,33.781,33.781,0,0,0-6.368,4.073,43.305,43.305,0,0,0-4.534,4.2,55.537,55.537,0,0,0-3.963,4.745,51.61,51.61,0,0,0-1.643,5.017c-.2.717-.346,1.452-.492,2.162v0c-.081.4-.165.806-.256,1.208l-.079.345a5.434,5.434,0,0,0-.457,1.191,3.514,3.514,0,0,0,1.678.929,1.04,1.04,0,0,1,.516.3,10.891,10.891,0,0,0,1.234-2.744l.01-.045a56.8,56.8,0,0,1,3.236-4.738A67.823,67.823,0,0,1,48.2,50.245,48.846,48.846,0,0,1,54.06,45a37,37,0,0,1,5.079-3.223,35.342,35.342,0,0,1,5.533-2.331A11.6,11.6,0,0,0,61.531,37.658ZM52.565,109.7l-.079,0c-1.524-.1-2.563-1.268-3.568-2.394-.359-.4-.7-.782-1.06-1.119a23.773,23.773,0,0,0-4.835-3.544.272.272,0,0,1-.131-.311.276.276,0,0,1,.247-.228h.03a19.117,19.117,0,0,1,3.087.4,13.422,13.422,0,0,1,2.939,1.021l.171.083a14.045,14.045,0,0,1,2.959,1.858,4.974,4.974,0,0,1,1.118,1.336,2.716,2.716,0,0,1,.34,1.6,1.675,1.675,0,0,1-.37.888A1.1,1.1,0,0,1,52.565,109.7Z" transform="translate(-24.707 -23.976)"/>
  </g>
  <g id="FACE" transform="translate(131.195 90.464)">
    <path id="_Ink-3" data-name="ðŸ– Ink" d="M26.692,47.41a9.409,9.409,0,0,1-3.569-.713,10.082,10.082,0,0,1-2.33-1.339,9.925,9.925,0,0,1-1.9-1.914,1.961,1.961,0,0,1-.4-1.517,2.188,2.188,0,0,1,.851-1.371,2.1,2.1,0,0,1,1.248-.435,1.811,1.811,0,0,1,.279.021,1.927,1.927,0,0,1,1.29.853l.076.105a6.66,6.66,0,0,0,2.44,2.048,5.538,5.538,0,0,0,2.42.565,5.36,5.36,0,0,0,.6-.034,6.3,6.3,0,0,0,2.664-.937,12.477,12.477,0,0,0,2.257-1.885c.162-.165.333-.344.555-.58a.878.878,0,0,1,.46-.355.943.943,0,0,1,.3-.048,1.019,1.019,0,0,1,.835.436.932.932,0,0,1,.158.613,5.628,5.628,0,0,1-.667,2.18,7.276,7.276,0,0,1-1.426,1.832,9.17,9.17,0,0,1-2.16,1.507,8.993,8.993,0,0,1-2.4.823A8.827,8.827,0,0,1,26.692,47.41ZM29.2,33.177h0a8.623,8.623,0,0,1-3.076-.62A15.532,15.532,0,0,1,22.512,30.5a1.39,1.39,0,0,1-.5-.8,1.664,1.664,0,0,1,.072-.9,2.051,2.051,0,0,1,.609-.881,1.482,1.482,0,0,1,.949-.37,1.346,1.346,0,0,1,.734.225l.245.189,0,0a19.583,19.583,0,0,0,2.264,1.575,5.576,5.576,0,0,0,2.714.866,2.93,2.93,0,0,0,1.147-.226,3.2,3.2,0,0,0,1.068-.757,3.277,3.277,0,0,0,.621-2.638,4.982,4.982,0,0,0-1.322-2.339,9.638,9.638,0,0,0-2-1.616.621.621,0,0,1-.168-.714.931.931,0,0,1,.308-.444.946.946,0,0,1,.591-.2,1.258,1.258,0,0,1,.212.019,6.708,6.708,0,0,1,2.36.853A5.353,5.353,0,0,1,34,23.813,5.817,5.817,0,0,1,35.012,27.7a6.4,6.4,0,0,1-.519,2.039,5.949,5.949,0,0,1-1.17,1.752A5.589,5.589,0,0,1,29.2,33.177ZM9.191,19.279a2.016,2.016,0,0,1-1.309-.513A2.04,2.04,0,0,1,7.2,17.447a14.86,14.86,0,0,1,.079-3.868c.047-.376.095-.764.129-1.184a2.316,2.316,0,0,1,.877-1.655,2.7,2.7,0,0,1,1.662-.585,2.048,2.048,0,0,1,1.257.4,1.865,1.865,0,0,1,.694,1.236,10.381,10.381,0,0,1-1.083,6.4,2.052,2.052,0,0,1-.723.837A1.669,1.669,0,0,1,9.191,19.279ZM38.568,18.4a1.764,1.764,0,0,1-1.383-.593,5.407,5.407,0,0,1-.845-1.433,6.247,6.247,0,0,1-.43-1.727,3.662,3.662,0,0,1,1-3.143,2.073,2.073,0,0,1,.16-.244,2.26,2.26,0,0,1,1.739-1,1.884,1.884,0,0,1,.528.078,2.544,2.544,0,0,1,1.7,1.483,5.247,5.247,0,0,1,.21,2.869,9.606,9.606,0,0,1-.87,2.706,1.756,1.756,0,0,1-.752.743A2.277,2.277,0,0,1,38.568,18.4ZM.325,9.185a.32.32,0,0,1-.267-.164.358.358,0,0,1-.021-.351,12.191,12.191,0,0,1,2.733-3.46,16.9,16.9,0,0,1,3.657-2.5A15.724,15.724,0,0,1,10.77,1.194l.464-.081a11.3,11.3,0,0,1,1.9-.205,2.928,2.928,0,0,1,2.339.872,1.988,1.988,0,0,1,.47,1.412,1.294,1.294,0,0,1-.47.923A3.6,3.6,0,0,1,13,4.84c-.195,0-.4,0-.591-.01H12.4c-.187,0-.4-.01-.61-.01-.194,0-.367,0-.529.014a16.693,16.693,0,0,0-3.676.627A24.976,24.976,0,0,0,.5,9.129.3.3,0,0,1,.325,9.185ZM45.054,7.313h0l-.2-.049a11.061,11.061,0,0,1-2.144-.837l-.7-.343a19.34,19.34,0,0,0-2.487-1.06,29.341,29.341,0,0,0-5.666-1.252,2.314,2.314,0,0,1-1.137-.432,1.7,1.7,0,0,1-.636-.969,1.734,1.734,0,0,1,.2-1.452,1.849,1.849,0,0,1,.9-.773A2.017,2.017,0,0,1,33.95,0a2.252,2.252,0,0,1,.441.044l.355.073a25.349,25.349,0,0,1,6.119,1.988,12.372,12.372,0,0,1,2.691,1.77,7.858,7.858,0,0,1,1.9,2.46c.067.514,0,.641-.064.727l-.02.025-.017.024a.492.492,0,0,1-.3.2Z" transform="translate(13.095 12.853)"/>
  </g>
  <g id="FACIAL_HAIR" data-name="FACIAL HAIR" transform="translate(122.301 128.033)">
    <path id="_Ink-4" data-name="ðŸ– Ink" d="M47.417,67.746h0a60.169,60.169,0,0,1-10.992-1.034A60.853,60.853,0,0,1,25.84,63.741a50.7,50.7,0,0,1-9.392-4.713,35.822,35.822,0,0,1-7.413-6.26A16.774,16.774,0,0,1,5.609,49.78,18.479,18.479,0,0,1,3.134,46.11a23.852,23.852,0,0,1-1.66-4.194,33.212,33.212,0,0,1-.98-4.56C-.414,31.143.1,24.435.661,18.635c.14-1.242.247-2.536.351-3.787C1.389,10.3,1.78,5.6,3.8,1.546A1.29,1.29,0,0,1,4.11.5,1.384,1.384,0,0,1,5.119,0a.978.978,0,0,1,.912.645C7.34,3.6,8.823,6.954,10.485,10.087c.88,1.66,1.742,3.134,2.633,4.507a41.617,41.617,0,0,0,3.088,4.193,19.351,19.351,0,0,0,2.548,2.828,25.439,25.439,0,0,0,3.384,2.63,19.71,19.71,0,0,0,3.779,1.94,10.785,10.785,0,0,0,3.731.756,5.533,5.533,0,0,0,3.732-1.294,7.963,7.963,0,0,0,2.336-4.42,9.533,9.533,0,0,1,2.864-3.547,15.9,15.9,0,0,1,4.326-2.336,26.4,26.4,0,0,1,5.1-1.285,34.136,34.136,0,0,1,5.192-.393,29.432,29.432,0,0,1,4.693.356,8.473,8.473,0,0,1,4.418,2.558A13.611,13.611,0,0,1,64.39,20.1a10.084,10.084,0,0,0,1.84,3.048,4.171,4.171,0,0,0,1.486.955,6.153,6.153,0,0,0,2.2.355,11.041,11.041,0,0,0,1.14-.063.888.888,0,0,0,.247.035l.065,0a9.1,9.1,0,0,0,.928-1.786c.11-.254.214-.494.323-.724-.012-.061-.026-.123-.039-.183a2.835,2.835,0,0,1-.066-.364,2.142,2.142,0,0,1,.666-.647,1.7,1.7,0,0,1,.885-.244,2.181,2.181,0,0,1,.77.15,1.364,1.364,0,0,1,.092.271,83.288,83.288,0,0,1,1.983,19.559,55.866,55.866,0,0,1-1.1,9.8A42.456,42.456,0,0,1,72.79,59.5a30.3,30.3,0,0,1-11.408,6.265,42.881,42.881,0,0,1-6.78,1.5A52.049,52.049,0,0,1,47.417,67.746ZM52.661,21.7a16.848,16.848,0,0,0-2.578.2,14.2,14.2,0,0,0-2.493.612,9.9,9.9,0,0,0-2.185,1.057A6.428,6.428,0,0,0,43.753,25.1a5.024,5.024,0,0,0-.942,2.3,6.831,6.831,0,0,0,.3,2.968,5.325,5.325,0,0,0,1.27,1.776,3.062,3.062,0,0,0,1.973.892,2.034,2.034,0,0,0,.629-.1c.78-.253,1.2-1.15,1.608-2.017a5.91,5.91,0,0,1,.791-1.376,4.72,4.72,0,0,1,1.283-.932,2.842,2.842,0,0,1,1.212-.281,3.928,3.928,0,0,1,2.321.919A18.337,18.337,0,0,1,56.3,31.2c.442.455.858.885,1.272,1.254a1.742,1.742,0,0,0,.969.329,1.6,1.6,0,0,0,1.152-.55,3.51,3.51,0,0,0,.873-2.412,8.3,8.3,0,0,0-.417-2.034,13.424,13.424,0,0,0-1-2.316,7.486,7.486,0,0,0-3.326-3.447A14.821,14.821,0,0,0,52.661,21.7Z" transform="translate(-1.236 -6.674)"/>
  </g>
  <g id="ACCESORIES" transform="translate(103.523 104.058)">
    <path id="_Ink-5" data-name="ðŸ– Ink" d="M52.97,29.705h0a14.623,14.623,0,0,1-2.991-.313,15.249,15.249,0,0,1-5.51-2.365,14.86,14.86,0,0,1-2.3-1.962,13.933,13.933,0,0,1-2.942-4.609,14.222,14.222,0,0,1-.926-5.813,2.047,2.047,0,0,1-1.38-.752,4.016,4.016,0,0,1-.557-1.285c-.364-1.189-.776-2.538-3.537-3a5.365,5.365,0,0,1-2.3-1.528,63.071,63.071,0,0,0-6.7-.377,48.566,48.566,0,0,0-7.628.583,41.841,41.841,0,0,0-7.537,1.929c-.438.184-.9.353-1.353.517a16.012,16.012,0,0,0-2.294.97,3.328,3.328,0,0,0-1.5,1.481,3.729,3.729,0,0,0,.186,2.933,1.476,1.476,0,0,1-1.441,1.4,1.24,1.24,0,0,1-.9-.389s0,0,0,0v0a10.2,10.2,0,0,1-1.3-3.56A4.635,4.635,0,0,1,.43,10.9C1.147,9.428,2.761,8.3,5.362,7.446A49.5,49.5,0,0,1,12.71,5.9l.462-.073A49.551,49.551,0,0,1,23.6,4.736c.363,0,.733,0,1.1.012.448.019.92.026,1.42.034h0a16.576,16.576,0,0,1,4.3.416l.019.005a3.312,3.312,0,0,1,1.9-1.628A19.082,19.082,0,0,1,36.4,2.338a48.9,48.9,0,0,1,5.537-.785c2.044-.182,4.175-.275,6.334-.275a67.557,67.557,0,0,1,6.92.341A41.665,41.665,0,0,1,61.4,2.691a16.506,16.506,0,0,1,4.653,1.877,4.718,4.718,0,0,1,2.252,2.754c.126,0,.253,0,.377,0,.772,0,1.508.06,2.1.109l.082.007c.639.053,1.243.1,1.848.1a7.327,7.327,0,0,0,2.384-.358,4.7,4.7,0,0,1,2.05-3.134A15.587,15.587,0,0,1,81.717,1.8,35.1,35.1,0,0,1,87.649.45,43.589,43.589,0,0,1,93.777,0a25.249,25.249,0,0,1,5.348.493A9.69,9.69,0,0,1,100.6.749a1.837,1.837,0,0,1,.562.2c.2.029.4.061.611.1a1.469,1.469,0,0,1,.9.52,1.932,1.932,0,0,1,.41.955,1.808,1.808,0,0,1-.868,1.921,2.754,2.754,0,0,0-1.212,1.12,2.248,2.248,0,0,0-.215,1.626,1.815,1.815,0,0,1-.082,1.147,1.67,1.67,0,0,1-.676.764,34.762,34.762,0,0,1-1.161,8.527A18.663,18.663,0,0,1,97.25,21.6a14.265,14.265,0,0,1-2.657,3.428,15.015,15.015,0,0,1-3.66,1.793,11.473,11.473,0,0,1-3.519.573,9.862,9.862,0,0,1-4.274-.956,10.4,10.4,0,0,1-3.46-2.687,12.282,12.282,0,0,1-1.641-2.51,14.427,14.427,0,0,1-1.089-3.04,17.178,17.178,0,0,1-.452-3.5,20.657,20.657,0,0,1,.269-3.886,1.264,1.264,0,0,1-.374-.4c-.06-.1-.118-.2-.183-.333a5.983,5.983,0,0,0-2.772-.551,8.462,8.462,0,0,0-1.158.08,5.132,5.132,0,0,0-3.423,1.917c-.129.134-.261.272-.4.412a1.25,1.25,0,0,1-.885.66l-.054.307a48.234,48.234,0,0,1-1.6,7,18.123,18.123,0,0,1-1.443,3.267,13.11,13.11,0,0,1-2.188,2.853,13.464,13.464,0,0,1-9.309,3.677Zm.623-23.479a32.349,32.349,0,0,0-5.507.385,13.764,13.764,0,0,0-5.12,1.9c-1.286.654-1.737,1.936-2.172,3.176a11.58,11.58,0,0,1-.626,1.543,3.328,3.328,0,0,1-1.01,1.21,17,17,0,0,0,1.773,5.635,15.156,15.156,0,0,0,3.252,4.212,14.019,14.019,0,0,0,4.2,2.638,12.436,12.436,0,0,0,4.63.913h0a11,11,0,0,0,3.752-.647,10.729,10.729,0,0,0,3.393-2,12.593,12.593,0,0,0,2.74-3.435A17.936,17.936,0,0,0,64.7,16.8a34.741,34.741,0,0,0,.983-5.41c-.417-.367-.808-.73-1.185-1.082a17.016,17.016,0,0,0-3.415-2.673,12.484,12.484,0,0,0-5.29-1.388l-.2,0C54.936,6.235,54.264,6.226,53.593,6.226ZM78.061,11.8a24.63,24.63,0,0,0,.514,4.231A16.6,16.6,0,0,0,79.969,20.1a9.383,9.383,0,0,0,2.507,3.164,7.261,7.261,0,0,0,3.852,1.515c.355.031.713.046,1.064.046a10.2,10.2,0,0,0,3.663-.639,6.364,6.364,0,0,0,2.865-2.109,16.056,16.056,0,0,0,1.755-3.087,20.356,20.356,0,0,0,1.107-3.366,31.29,31.29,0,0,0,.775-7,6.468,6.468,0,0,1-1.375-2.313,4.573,4.573,0,0,0-1.03-1.757,3.565,3.565,0,0,0-2.511-.739c-.267,0-.558.013-.865.039a23.139,23.139,0,0,0-5.391.91,10.586,10.586,0,0,0-3.253,1.61,7.245,7.245,0,0,0-1.759,1.915,12.014,12.014,0,0,0-.908,1.823c-.442,1.043-.761,1.8-1.7,1.8A2.622,2.622,0,0,1,78.061,11.8Z" transform="translate(-3.211 2.224)"/>
  </g>
</svg>
