<svg id="Peep3" xmlns="http://www.w3.org/2000/svg" width="306" height="413" viewBox="0 0 306 413">
  <g id="BODY" transform="translate(39.61 172.249)">
    <path id="_Background" data-name="ðŸŽ¨ Background" d="M185.8,74.084C182.064,56.357,168.8,42.6,150.959,35.749c-3.429-1.94-6.753-10.266-11.362-11.791-.739-.244.427,1.7,0,1.817a4.9,4.9,0,0,1-4.915-1.039c-3.008-2.674-3.951-10.487-5.78-14.018C119.258-7.9,95.179-.618,91.953,19.969a75.287,75.287,0,0,1-7.877,3.941c-2.521,1.217-4.739,4.165-7.337,5.219-2.318.94-6.138.274-8.474,1.094C57.52,33.992,48.42,38.75,41.286,48.389c-1.5,2.033-3.2,4.532-4.566,6.586C29.667,63.1,24.769,72.2,20.257,81.968,7.634,110.636,4.2,142.378,1.12,173.266c.07,5.4-3.515,20.39,1.787,22.981a.566.566,0,0,0,.386.983,217.66,217.66,0,0,1,40.092,3.408c6.386,1.129,12.737,2.678,19.242,2.932,13.5-.093,26.957-2.357,40.442-.215,16.211,0,35.912-.473,53.947-1.166,16.855-.648,33.8.816,50.447-2.052a2.444,2.444,0,0,0,1.685-2.968c-1.953-7.119-2.912-14.446-4.008-21.733a33.666,33.666,0,0,0-1.9-13.906Q196.466,117.45,185.8,74.084Z" transform="translate(12.395 -12.777)" fill="#fff"/>
    <path id="_Ink" data-name="ðŸ– Ink" d="M187.581,198.3a4.486,4.486,0,0,1-3.134-1.217c-1.188-1.144-1.456-3.045-1.693-4.723-.057-.4-.111-.787-.176-1.151l-.328-1.778c-1.409-7.672-2.469-14.077-3.338-20.157-1.042-7.3-1.776-13.936-2.244-20.3-.284-3.892-.484-7.331-.612-10.513-.084-2.086-.09-4.206-.1-6.255,0-1.192-.006-2.425-.025-3.641l-.017-.9c-.079-3.586-.009-7.188.078-10.548.012-.468.033-.934.051-1.289a1.159,1.159,0,0,1-.25-.485l-.049-.221a1.765,1.765,0,0,1,.453-1.641c.047-.594.1-1.2.148-1.783v0c.15-1.769.305-3.6.356-5.4a.141.141,0,0,1,.147-.146.155.155,0,0,1,.158.146c.16,2.046.482,4.118.794,6.122a12.654,12.654,0,0,0,2.657-3.078,20.915,20.915,0,0,0,1.792-3.547.143.143,0,0,1,.135-.1.133.133,0,0,1,.132.17A29.407,29.407,0,0,1,181,110.956a23.964,23.964,0,0,1-1.175,2.381c-.379.7-.771,1.427-1.088,2.174a1.131,1.131,0,0,1-.41.491l.055.425.05.425c.15,1.3.311,2.618.466,3.892.188,1.538.382,3.128.558,4.695l.156,1.433c.393,3.718.938,7.487,1.464,11.132v0c.32,2.216.651,4.507.944,6.763.674,5.179,1.481,11.311,2.36,17.516.819,5.767,1.706,11.907,2.74,18.009.426,2.512.878,5.063,1.343,7.583l.36,1.933a4.278,4.278,0,0,1,2.289,1.408,4.466,4.466,0,0,1,1.008,2.335,4.107,4.107,0,0,1-.418,2.367,4.04,4.04,0,0,1-.766,1.034,4.674,4.674,0,0,1-1.168.826A4.9,4.9,0,0,1,187.581,198.3Zm-34.974-.966h-.012l-17.647-.067c-7.269-.029-14.659-.072-21.807-.114h-.017L104.2,197.1c-2.342-.012-4.879-.054-7.755-.129-2.44-.068-4.83-.369-7.14-.661a4.043,4.043,0,0,1-3.767-4.96c.055-.37.114-.744.172-1.106l0-.01c.033-.206.069-.439.1-.665a1.739,1.739,0,0,1-.547.088,1.514,1.514,0,0,1-1.068-.417l-.407-.4a6.653,6.653,0,0,1-1.425-1.85c-.258-.534-.485-1.1-.7-1.642-.094-.235-.192-.476-.291-.714-.7-1.676-1.392-3.38-2.053-5.065-1.426-3.627-2.705-6.9-3.907-10.222-2.436-6.733-4.628-13.676-6.515-20.637-1.668-6.154-3.134-12.481-4.357-18.8-1.211-6.261-2.215-12.677-2.983-19.069l-.367-3.046-.107-.9a92.551,92.551,0,0,1-.841-14.926,27.727,27.727,0,0,1,1.779-9.1,34.743,34.743,0,0,1,3.565-6.254c.234-.352.477-.715.713-1.075l.179-.275.18-.282a19.243,19.243,0,0,0,1.75-3.354,10.751,10.751,0,0,0,.764-3.7,16.108,16.108,0,0,0-.449-3.944,36.455,36.455,0,0,0-1.141-3.816l-.217-.616-.145-.408c-.156-.437-.317-.881-.473-1.31l-.009-.024A63.272,63.272,0,0,1,64.473,50.7a24.424,24.424,0,0,1-.583-3.651,18.573,18.573,0,0,1,.074-3.773,25.325,25.325,0,0,1,1.474-5.9,28.345,28.345,0,0,1,2.716-5.309A38.973,38.973,0,0,1,76.3,23.2a54.451,54.451,0,0,0-16.057,6.087,60.091,60.091,0,0,0-8.228,5.66,69.32,69.32,0,0,0-7.258,6.867,84.154,84.154,0,0,0-5.931,7.266c-1.768,2.424-3.5,5.055-5.146,7.82a145.13,145.13,0,0,0-8.431,16.744,193.751,193.751,0,0,0-6.832,18.381c-1.893,5.98-3.614,12.351-5.113,18.935-1.4,6.159-2.647,12.671-3.7,19.353-.972,6.187-1.817,12.763-2.509,19.545-.62,6.064-1.151,12.458-1.622,19.549-.082,1.234-.157,2.49-.23,3.7v.007c-.125,2.072-.253,4.214-.416,6.317-.044.571-.085,1.152-.124,1.714a47.69,47.69,0,0,1-1.064,8.251,1.481,1.481,0,0,1-.646.887,1.948,1.948,0,0,1-1.054.306,1.678,1.678,0,0,1-.972-.291,1.349,1.349,0,0,1-.545-.9A55.025,55.025,0,0,1,.16,178.058l.015-.342c.16-3.586.377-7.372.644-11.252.544-7.885,1.269-15.6,2.156-22.945.839-6.958,1.843-13.7,2.981-20.025,1.233-6.852,2.675-13.507,4.285-19.78,1.72-6.7,3.7-13.206,5.871-19.342,1.136-3.2,2.353-6.383,3.618-9.447,1.3-3.145,2.684-6.262,4.12-9.265s2.935-5.888,4.438-8.534c1.65-2.9,3.377-5.653,5.136-8.173a82.785,82.785,0,0,1,5.946-7.573,67.942,67.942,0,0,1,6.869-6.734,57.25,57.25,0,0,1,15.633-9.4,41.618,41.618,0,0,1,7.693-2.272,42.27,42.27,0,0,1,7.93-.739h.022a61.545,61.545,0,0,1,8.52-5.429.178.178,0,0,1,.085-.022.185.185,0,0,1,.168.115.163.163,0,0,1-.039.185l-.091.089h0c-.043.043-.088.087-.132.129a1.482,1.482,0,0,1,.972.5,18.986,18.986,0,0,1,2.773,3.97c.582.727,1.16,1.477,1.719,2.2h0c.618.8,1.256,1.629,1.9,2.425,1.777,2.2,3.738,4.553,5.993,7.189,3.72,4.352,7.186,8.163,10.6,11.652l.613.624c.456.462.9.934,1.375,1.434a30.082,30.082,0,0,0,4.7,4.327l.12.08a2.345,2.345,0,0,0,1.238.482,1.605,1.605,0,0,0,1.194-.675,21.472,21.472,0,0,0,1.622-2.215l0,0c.116-.173.236-.352.354-.527l.146-.213a159.885,159.885,0,0,0,8.892-14.5c1.214-2.24,2.394-4.562,3.509-6.9l.331-.7c.153-.325.31-.651.463-.967.453-.938.921-1.908,1.294-2.9.109-.292.22-.595.34-.927a9.853,9.853,0,0,1-3.489-5.41,8.177,8.177,0,0,1-.2-2.944,8.563,8.563,0,0,1,.837-2.819.4.4,0,0,1,.368-.213.437.437,0,0,1,.441.318,11.774,11.774,0,0,0,1.91,4.243,8.134,8.134,0,0,0,1.5,1.68,7.806,7.806,0,0,0,.991.659c.2.121.414.246.615.381a2.269,2.269,0,0,1,.35-.027,2.476,2.476,0,0,1,1.781.771l-.086-.835a.193.193,0,0,1,.048-.153.266.266,0,0,1,.2-.08.219.219,0,0,1,.228.17c2.524,12.734,4.607,24.436,6.368,35.774l.816,5.29.768,4.967c1.214,7.885,2.48,16.3,3.435,24.885,1.32,11.87,2.313,22.812,3.036,33.45.684,10.093,1.182,20.826,1.566,33.776.054,1.852.112,3.735.168,5.556v.046q.045,1.459.089,2.919l.575-3.4c.521-3.08,1.118-6.663,1.62-10.211.932-6.572,1.683-12.583,2.293-18.377.685-6.5,1.176-12.534,1.5-18.456a149.5,149.5,0,0,0,.08-16.985c-.172-2.929-.46-5.77-.855-8.445a78.393,78.393,0,0,0-1.68-8.322,67.735,67.735,0,0,0-2.673-8.133c-.577-1.436-1.283-2.838-1.965-4.193-.542-1.076-1.1-2.188-1.595-3.312a15.4,15.4,0,0,1-1.242-4.376,13.835,13.835,0,0,1,.227-4.546c.2-.965.463-1.925.714-2.853a27.31,27.31,0,0,0,1.072-5.376,21.882,21.882,0,0,0-.109-3.934,25.961,25.961,0,0,0-.756-3.841,32.53,32.53,0,0,0-1.277-3.717c-.474-1.156-1.036-2.355-1.67-3.563-.616-1.172-1.3-2.39-2.024-3.62A115.3,115.3,0,0,0,143.1,17.99a.15.15,0,0,1-.019-.164.223.223,0,0,1,.192-.116.171.171,0,0,1,.123.051c.606.6,1.239,1.207,1.852,1.8a65.3,65.3,0,0,1,4.971,5.135c1.1,1.325,2.049,2.526,2.891,3.672a33.9,33.9,0,0,1,7.3,2.091,37.036,37.036,0,0,1,6.637,3.577,41.182,41.182,0,0,1,5.855,4.82,44.817,44.817,0,0,1,4.949,5.82,58.268,58.268,0,0,1,4.468,7.408,75.289,75.289,0,0,1,3.448,7.932,129.083,129.083,0,0,1,4.754,16.652c2.071,9.182,3.933,18.578,5.734,27.664v0c.636,3.211,1.294,6.531,1.956,9.812.785,3.894,1.583,7.854,2.354,11.684l.03.147c1.778,8.831,3.617,17.962,5.444,26.959l.117.577.033.161c1.233,6.069,2.509,12.346,3.76,18.519.653,3.214,1.352,6.489,2.078,9.734.122.543.248,1.095.371,1.628l0,.016c.251,1.093.51,2.224.741,3.34a4.454,4.454,0,0,1-1.245,4.461,1.307,1.307,0,0,1-.993.416,1.9,1.9,0,0,1-.8-.184l-.182-.086-.176-.085a3.545,3.545,0,0,1-1.733-1.509,6.473,6.473,0,0,1-.658-2.284v0c-.026-.164-.053-.334-.083-.5-.184-1.041-.37-2.1-.549-3.12l-.016-.09q-.185-1.052-.37-2.106c-.485-2.752-1-5.443-1.492-7.942l-2.593-13.215c-.569-2.9-1.319-6.718-2.081-10.568-2.294-11.619-4.624-23.4-6.878-34.8l-.589-2.977c-.751-3.8-1.486-7.665-2.2-11.405-1.555-8.177-3.162-16.631-5.029-24.878l-.154-.677-.157-.676c-.654-2.785-1.319-5.3-2.034-7.694-.8-2.678-1.64-5.126-2.566-7.482a73.355,73.355,0,0,0-3.266-7.186,61.648,61.648,0,0,0-4.136-6.8,52.231,52.231,0,0,0-3.9-4.894,47.813,47.813,0,0,0-4.525-4.411,38.061,38.061,0,0,0-10.685-6.529c.554.8,1.083,1.608,1.574,2.41a36.689,36.689,0,0,1,3.835,8.319,23.766,23.766,0,0,1,1.071,9.055,31.665,31.665,0,0,1-.623,3.683,22.056,22.056,0,0,0-.67,5.266,13.608,13.608,0,0,0,2.079,5.791h0c.278.516.566,1.05.823,1.572a70.741,70.741,0,0,1,5.694,16.659c.587,2.79,1.055,5.727,1.392,8.73.315,2.8.526,5.769.628,8.809a168.57,168.57,0,0,1-.433,17.671c-.428,6-1.052,12.252-1.908,19.129-.716,5.754-1.575,11.8-2.7,19.036-.521,3.344-1.141,6.728-1.741,10v0c-.563,3.071-1.144,6.246-1.643,9.378-.349,2.189-.792,4.408-1.219,6.555-.2.982-.4,2-.589,3l-.289,1.517c-.145.752-.32,1.639-.524,2.511l-.12.5v.089a2.74,2.74,0,0,1-.442,1.523,18.527,18.527,0,0,1-1.436,3.445,1.937,1.937,0,0,1-1.259,1,3.421,3.421,0,0,1-1.159,1.426A3.092,3.092,0,0,1,152.607,197.331ZM84.342,18.928c-.839.791-1.7,1.585-2.538,2.352l-.009.008c-.577.53-1.173,1.078-1.757,1.621l-.524.49-.522.492a52.5,52.5,0,0,0-6.932,7.722,30.274,30.274,0,0,0-2.45,4.126,24.9,24.9,0,0,0-1.682,4.449,19,19,0,0,0-.218,9.442A52.052,52.052,0,0,0,70,56.369a40.132,40.132,0,0,1,2.685,8.788,15.447,15.447,0,0,1-.822,8.022,32.261,32.261,0,0,1-3.2,5.673l0,0c-.334.507-.679,1.032-1.01,1.553a21.5,21.5,0,0,0-3.035,8.059,38.573,38.573,0,0,0-.347,8.67c.163,2.976.412,6.024.764,9.318.31,2.9.693,5.937,1.171,9.276.887,6.207,2.014,12.467,3.35,18.608s2.909,12.3,4.682,18.319c1.7,5.766,3.72,11.517,5.677,17.078l.3.858c1.076,3.058,2.323,6,3.511,8.733.607,1.392,1.269,2.873,2.024,4.526-.17-1.421-.227-2.885-.282-4.3v0c-.027-.695-.055-1.413-.1-2.11-.128-2.184-.284-4.4-.435-6.541-.055-.784-.118-1.673-.176-2.525-.412-5.982-.795-12.176-1.137-18.408-.669-12.267-1.152-23.012-1.476-32.846-.388-11.791-.562-22.544-.532-32.873.034-11.387.279-22.449.728-32.878.185-4.308.519-8.683.843-12.915v0c.06-.789.129-1.684.193-2.543l.082-1.1c.308-4.162.722-9.061,1.455-13.839a10.241,10.241,0,0,1-.523-1.434l-.048-.184.035.005A1.54,1.54,0,0,1,84.342,18.928ZM39.333,195.342a3.56,3.56,0,0,1-.476-.033,2.937,2.937,0,0,1-2.011-1.121,3.214,3.214,0,0,1-.569-1.291,4.351,4.351,0,0,1-.035-1.515c.866-5.977,1.986-13.874,2.969-21.953l1.016-8.353c1.152-9.448,2.513-20.436,4.079-31.291.631-4.37,1.275-8.665,1.934-13.047l-.229-.3c-.706-.917-1.442-1.834-2.153-2.72v0l-.012-.015-.692-.864c-2.032-2.552-3.715-4.689-5.335-7.012a.133.133,0,0,1,0-.141.165.165,0,0,1,.138-.092.119.119,0,0,1,.073.025c2.35,1.736,4.577,3.594,6.842,5.5l1.967,1.666c1.142-7.578,2.25-15.005,3.252-22.56a.167.167,0,0,1,.166-.146.136.136,0,0,1,.1.039.144.144,0,0,1,.037.107c-.072,2.294-.137,4.626-.2,6.882-.141,5.073-.286,10.319-.529,15.473l-.121,2.542a2.74,2.74,0,0,1,.607,1.006,2.235,2.235,0,0,1,0,1.272,1.222,1.222,0,0,1-.76.828l-.114,2.363c-.5,10.2-1.116,21.113-2.243,31.85-1.378,13.13-3,26.457-4.561,39.345l-.052.428a3.945,3.945,0,0,1-.964,2.208A2.829,2.829,0,0,1,39.333,195.342ZM91.847,16.557a1.417,1.417,0,0,1-.828-.236l-.227-.172c-.04-.031-.076-.061-.11-.09a1.623,1.623,0,0,1-.429-1.623,8.188,8.188,0,0,1,1.459-2.226,14.954,14.954,0,0,0,.925-1.205,22.417,22.417,0,0,0,1.795-3.262,34.5,34.5,0,0,0,1.876-6.3c.1-.444.207-.9.315-1.354A.114.114,0,0,1,96.74,0a.128.128,0,0,1,.126.091,15.821,15.821,0,0,1-.172,8.373,24.425,24.425,0,0,1-1.539,4.27l-.223.481a13.562,13.562,0,0,1-.92,1.719A4.906,4.906,0,0,1,92.7,16.321,1.548,1.548,0,0,1,91.847,16.557Z" transform="translate(10.239 -5.93)"/>
  </g>
  <g id="HEAD" transform="translate(100.237 48.521)">
    <path id="_Background-2" data-name="ðŸŽ¨ Background" d="M124.992,24.116c-.6-1.511-1.657-3.41-3.426-3.486-1.368-4.185-4.77-8.447-9.5-8.334C98.173-1.913,80.687-1.244,62.4,1.764c-9.645,1.79-19.439,5.294-26.633,12.209C27.155,22.115,23.8,36.321,30.547,46.615,24.716,49.741,24.6,57.16,27.1,62.513c-3,2.074-3.18,7.107.2,8.689a3.068,3.068,0,0,0,.29,2.149,28.5,28.5,0,0,1-5.653,3.308,2.663,2.663,0,0,0-1.446,1.75C14.57,82.289-.174,91.773,0,99.321c-.087,3.938,2.833,6.529,6.381,7.561C4.272,111.1,2.669,116.036,4.69,120.59c.559,1.376,4.744,5.42,4.955,5.5.368.316,6.373-2.442,9.291-3.848a5.823,5.823,0,0,0,7.894,4.35c3.217-.97,5.195-3.695,7.224-6.173,2.693,5.877,10.617,5.945,15.738,3.411a20.168,20.168,0,0,0,10.043-10.716,55.217,55.217,0,0,0,33.679,4.518,3.277,3.277,0,0,0,3.739,1.64c5.975-1.8,12.581-1.9,17.646-6.015,10.557-7.58,11.446-21.555,10.71-33.468-.653-11.878-.081-23.854-2.24-35.6a67.721,67.721,0,0,1,3.936-9.767C128.871,31.006,128.838,25.94,124.992,24.116Z" transform="translate(-15.089 14.826)" fill="#fff"/>
    <path id="_Ink-2" data-name="ðŸ– Ink" d="M26.577,130.124h-.149a8.383,8.383,0,0,1-3.953-1.068,7.168,7.168,0,0,1-2.779-2.742,20.811,20.811,0,0,1-5.837,2.821l-.187.055a13.223,13.223,0,0,1-3.66.609,6.041,6.041,0,0,1-2.56-.513,4.926,4.926,0,0,1-2.066-1.835A11.078,11.078,0,0,1,3.8,122.722a20.257,20.257,0,0,1,.068-5.025A36.654,36.654,0,0,1,6.1,109.55a8.037,8.037,0,0,1-3.679-2.435,9.8,9.8,0,0,1-1.292-1.863,9.645,9.645,0,0,1-.826-2.092,10.238,10.238,0,0,1,.452-6.315,18.93,18.93,0,0,1,3.369-5.478A41.813,41.813,0,0,1,9.087,86.49c1.618-1.365,3.436-2.737,5.558-4.2a54.988,54.988,0,0,1,5.971-3.623,30.254,30.254,0,0,1,6.494-2.521.618.618,0,0,1,.15-.019.544.544,0,0,1,.516.4.552.552,0,0,1-.239.632c-1.168.743-2.369,1.471-3.531,2.174-2.17,1.314-4.415,2.674-6.525,4.186-1.491,1.068-2.988,2.254-4.45,3.526-1.376,1.2-2.766,2.508-4.13,3.9l-.294.3a26.1,26.1,0,0,0-3.431,4.186,11.986,11.986,0,0,0-1.184,2.431,8.3,8.3,0,0,0-.468,2.635,6.12,6.12,0,0,0,.449,2.3,5.955,5.955,0,0,0,1.272,1.964,4.164,4.164,0,0,0,2.986,1.313,4.12,4.12,0,0,0,.5-.031,1.278,1.278,0,0,1,.155-.009,1.731,1.731,0,0,1,1.375.815,1.716,1.716,0,0,1,.271,1.56l-.421,1.106a44.681,44.681,0,0,0-2.176,7.041,15.271,15.271,0,0,0,.1,7.216l.049.168a4.569,4.569,0,0,0,.6,1.4,1.487,1.487,0,0,0,1.274.605h.041a11.677,11.677,0,0,0,3.456-.786,16.085,16.085,0,0,0,3.213-1.53,17.87,17.87,0,0,0,2.822-2.168,1.97,1.97,0,0,1,1.347-.582,1.881,1.881,0,0,1,1.387.653,2.287,2.287,0,0,1,.555,1.781l-.007.058a1.744,1.744,0,0,0,.452,1.43,4.933,4.933,0,0,0,3.426,1.334,3.1,3.1,0,0,0,.6-.052c2.834-.561,4.878-3.316,6.52-5.531l.174-.234a2.514,2.514,0,0,1,1.925-.974,1.611,1.611,0,0,1,1.526.974,9.574,9.574,0,0,0,3.078,3.726,8.213,8.213,0,0,0,4.554,1.565c.077,0,.155,0,.233,0a8.493,8.493,0,0,0,2.428-.357,9.231,9.231,0,0,0,2.241-1.018,8.727,8.727,0,0,0,1.639-1.332l.123-.128a7.562,7.562,0,0,1,2.175-1.7,1.458,1.458,0,0,1,1.721.248,1.326,1.326,0,0,1,.389.963,4.468,4.468,0,0,1-1.4,3.377,13.091,13.091,0,0,1-5.858,3.513,12.2,12.2,0,0,1-3.326.473c-.123,0-.248,0-.37-.006a12.29,12.29,0,0,1-2.736-.405,12.911,12.911,0,0,1-2.572-.988,13.1,13.1,0,0,1-4.246-3.46,18.844,18.844,0,0,1-3.921,3.7,10.1,10.1,0,0,1-2.339,1.178A8.121,8.121,0,0,1,26.577,130.124Zm67.517-6.39a48.359,48.359,0,0,1-5.665-.333,51.651,51.651,0,0,1-6.063-1.044l-.862-.216a8.092,8.092,0,0,1-2.279-.856,2.566,2.566,0,0,1-1.269-1.95,1.806,1.806,0,0,1,.241-1.178,2.5,2.5,0,0,1,.9-.841,2.447,2.447,0,0,1,1.271-.323,7.146,7.146,0,0,1,1.772.308l.158.041a51.99,51.99,0,0,0,5.306,1.11,44.242,44.242,0,0,0,6.56.479,49.606,49.606,0,0,0,5.089-.266,40.428,40.428,0,0,0,9.732-2.187,27.436,27.436,0,0,0,8.617-4.945,17.091,17.091,0,0,0,5.063-6.932c1.165-3.2,1.112-6.683,1.061-10.048,0-.308-.01-.656-.014-.994-.047-4.069-.052-8.207-.057-12.208v0c-.005-4.422-.011-8.994-.074-13.494-.132-9.478.03-17.886.5-25.7a.127.127,0,0,1,.129-.112.089.089,0,0,1,.094.082c1.375,9.984,2.127,19.966,2.681,28.413.3,4.6.662,9.463,1.069,14.459.09,1.106.2,2.24.3,3.337h0a86.721,86.721,0,0,1,.563,10.662,21.266,21.266,0,0,1-2.68,9.839,24.016,24.016,0,0,1-6.849,7.579c-4.924,3.621-11.368,5.955-19.153,6.937A49.238,49.238,0,0,1,94.093,123.733ZM63.3,116.107c-1.963,0-4.077-1.685-5.341-2.691a40.4,40.4,0,0,1-8.516-9.674l-.23-.357c-1.543-2.41-3.664-6.065-4.279-9.966l-.1.164-.017.026a2.445,2.445,0,0,1-.386.412,3.358,3.358,0,0,1-1.368.671,7.676,7.676,0,0,1-2,.251,9.06,9.06,0,0,1-.917-.047,10.243,10.243,0,0,1-2.808-.7,10.363,10.363,0,0,1-2.5-1.453,10.622,10.622,0,0,1-2.768-3.284A12.937,12.937,0,0,1,30.7,85.408a18.157,18.157,0,0,1,.8-8.743,2.91,2.91,0,0,1-.674.077,4.875,4.875,0,0,1-2.06-.537,11.061,11.061,0,0,1-1.811-1.114,7.925,7.925,0,0,1-1.828-1.864,5.817,5.817,0,0,1-.989-2.4,4.657,4.657,0,0,1,.52-2.752,4.8,4.8,0,0,1,.838-1.179,3.349,3.349,0,0,1,1.117-.774,12.242,12.242,0,0,1-2-3.531,12.486,12.486,0,0,1-.8-3.74,11.141,11.141,0,0,1,1.33-5.723,12.105,12.105,0,0,1,3.935-4.345,30.187,30.187,0,0,1-1.853-5.156A30.674,30.674,0,0,1,26.4,32.757a29.961,29.961,0,0,1,1.065-5.387,28.726,28.726,0,0,1,1.989-4.964A30,30,0,0,1,32.233,18a35.985,35.985,0,0,1,7.453-7.223,49.511,49.511,0,0,1,9.171-5.242,63.925,63.925,0,0,1,9.923-3.426,65.882,65.882,0,0,1,8.494-1.6A71.529,71.529,0,0,1,75.854,0c1.96,0,3.981.078,6.007.231C83.835.38,85.736.6,87.512.879A51.607,51.607,0,0,1,93.229,2.1a36.911,36.911,0,0,1,5.464,1.969,26.426,26.426,0,0,1,4.894,2.88.327.327,0,0,1,.131.371.316.316,0,0,1-.308.212.425.425,0,0,1-.066-.005c-2.287-.365-4.578-.908-6.795-1.434-1.675-.4-3.407-.808-5.126-1.14-2.089-.4-3.989-.711-5.809-.942-2.073-.264-3.99-.422-5.861-.483-.828-.027-1.667-.041-2.5-.041a74.615,74.615,0,0,0-9.54.609,66.868,66.868,0,0,0-9.489,1.919,55.707,55.707,0,0,0-9.01,3.371,45.307,45.307,0,0,0-8.1,4.962,30.585,30.585,0,0,0-6.479,6.763,25.682,25.682,0,0,0-3.865,8.5,26.581,26.581,0,0,0-.721,4.835,26.989,26.989,0,0,0,.17,4.875,26.7,26.7,0,0,0,1.049,4.762,25.821,25.821,0,0,0,1.917,4.494,2.119,2.119,0,0,1,.132,1.623,1.555,1.555,0,0,1-.807.953,8.444,8.444,0,0,0-1.967,1.285A8.639,8.639,0,0,0,29,54.211a7.881,7.881,0,0,0-1.334,4.443,7.985,7.985,0,0,0,1.414,4.317A12.7,12.7,0,0,0,30.915,65a16.422,16.422,0,0,1,1.471,1.537,1.441,1.441,0,0,1,.318.836,1.312,1.312,0,0,1-.219.807c.25.11.514.2.768.286a7.292,7.292,0,0,1,1.05.42.746.746,0,0,1,.377.68.712.712,0,0,1-.377.651,2.316,2.316,0,0,1-1.05.252,2.789,2.789,0,0,1-1.368-.382,4.106,4.106,0,0,1-1.132-.956,5.058,5.058,0,0,1-.412-.579,6.17,6.17,0,0,1-2.789-1.459,2.641,2.641,0,0,0-1.272,1.854,3.41,3.41,0,0,0,.841,2.727,5.958,5.958,0,0,0,2.626,1.664l.117.042c.15.053.3.1.441.151a3.907,3.907,0,0,1,2,1.137,16,16,0,0,1,1.4-2.382,13.317,13.317,0,0,1,3.309-3.306,7.773,7.773,0,0,1,4.368-1.43c.2,0,.4.009.595.026a6.432,6.432,0,0,1,3.615,1.51,6.13,6.13,0,0,1,1.268,1.488,5.874,5.874,0,0,1,.73,1.855.19.19,0,0,1-.042.16.221.221,0,0,1-.165.084.148.148,0,0,1-.14-.1,3.965,3.965,0,0,0-1.782-1.959,5.359,5.359,0,0,0-2.566-.61,6.646,6.646,0,0,0-3.516,1.006A10.3,10.3,0,0,0,35.988,74.8a16.8,16.8,0,0,0-1.7,4.838,13.772,13.772,0,0,0-.064,5.072,9.786,9.786,0,0,0,.769,2.421A7.608,7.608,0,0,0,36.429,89.2a6.526,6.526,0,0,0,1.7,1.244,6.228,6.228,0,0,0,2.014.63,4.271,4.271,0,0,0,.562.036,6.957,6.957,0,0,0,1.377-.166l.433-.09a3.552,3.552,0,0,1,.732-.092c.062,0,.123,0,.181.008l.469.063.267.125a.834.834,0,0,0,.156.061h0a1.069,1.069,0,0,0-.222-.145c.043,0,.083,0,.119,0a1.051,1.051,0,0,1,.821.358,1.391,1.391,0,0,1,.313.817.28.28,0,0,1,.07.059c1.355,1.66,2.575,3.46,3.754,5.2a58.617,58.617,0,0,0,4.727,6.341l.94,1.049c2.5,2.786,5.219,5.622,8.455,7l.39.162a4.875,4.875,0,0,1,1.33.773,2,2,0,0,1,.705,1.334,1.7,1.7,0,0,1-.428,1.321,2.4,2.4,0,0,1-1.213.728A3.171,3.171,0,0,1,63.3,116.107ZM39.947,113.56a.246.246,0,0,1-.2-.1.169.169,0,0,1-.014-.165,9.511,9.511,0,0,0,.434-1.623,4.886,4.886,0,0,1,1.327-2.979,1.69,1.69,0,0,1,1.052-.41,1.6,1.6,0,0,1,.983.366,3.039,3.039,0,0,1,.755.9l.031.054a1.085,1.085,0,0,0,.914.685,1.51,1.51,0,0,0,1.043-.591,3.575,3.575,0,0,0,.7-1.212l.039-.123c.031-.1.062-.211.1-.328a7.393,7.393,0,0,1,.547-1.488,1.237,1.237,0,0,1,1.064-.783,1.493,1.493,0,0,1,.666.182,1.707,1.707,0,0,1,.791,1.985,8.374,8.374,0,0,1-.773,2.244,5.385,5.385,0,0,1-1.311,1.759,4.147,4.147,0,0,1-1.951.964,4.2,4.2,0,0,1-.8.076,3.819,3.819,0,0,1-1.423-.265,2.9,2.9,0,0,1-1.73-1.729,1.3,1.3,0,0,1-.094-.276.6.6,0,0,1-.156.269,13.692,13.692,0,0,0-1.818,2.49A.2.2,0,0,1,39.947,113.56Zm-17.311-2.79a7.754,7.754,0,0,1-2.284-.361.165.165,0,0,1-.125-.18.188.188,0,0,1,.172-.168,7.324,7.324,0,0,0,5.756-4.156l.111-.248a3.329,3.329,0,0,1,1.827-2.062,2.241,2.241,0,0,1,.746-.128,2.555,2.555,0,0,1,1.872.871,3.369,3.369,0,0,1,.427.669c.252.469.489.912.987.912a1.03,1.03,0,0,0,.265-.038c.852-.229,1.409-1.113,1.9-1.893.134-.212.26-.413.386-.592l.118-.164c.886-1.211,2.256-2.655,3.751-2.655a2.526,2.526,0,0,1,1.535.552,1.149,1.149,0,0,1,.5.915,1.094,1.094,0,0,1-.5.874l-.254.182-.161.114-.01.007a9,9,0,0,0-2.261,2.014c-.129.179-.259.364-.384.542a10.633,10.633,0,0,1-1.922,2.259,4.963,4.963,0,0,1-3.061,1.1,3.8,3.8,0,0,1-1.542-.311,3.363,3.363,0,0,1-1.287-1l-.144-.183a5.752,5.752,0,0,1-.378-.539l-.089.123-.025.035-.02.032a7.662,7.662,0,0,1-2.314,2.384A6.418,6.418,0,0,1,22.637,110.77ZM17.276,96.624a.422.422,0,0,1-.332-.185.322.322,0,0,1-.047-.3l.221-.59a13.318,13.318,0,0,1,1.448-2.917,4.366,4.366,0,0,1,1.076-1.1,2.412,2.412,0,0,1,1.364-.435,2.743,2.743,0,0,1,.876.152,5.275,5.275,0,0,1,1.073.561,2.915,2.915,0,0,0,1.457.6,1.553,1.553,0,0,0,1.019-.43,4.829,4.829,0,0,0,1.091-1.58,4.56,4.56,0,0,1,1.232-1.7.79.79,0,0,1,.483-.159,1.1,1.1,0,0,1,.65.228,1.009,1.009,0,0,1,.388.55,4.438,4.438,0,0,1-.953,3.689,6.089,6.089,0,0,1-1.731,1.557,4.419,4.419,0,0,1-2.089.653l-.115,0a3.94,3.94,0,0,1-1.839-.465,4.151,4.151,0,0,1-.583-.409A2.658,2.658,0,0,0,21,93.775a.7.7,0,0,0-.137-.014c-.473,0-.9.474-1.278.891-.111.123-.216.239-.316.336a17.784,17.784,0,0,1-1.816,1.578A.292.292,0,0,1,17.276,96.624Zm28.76-13.716a2.2,2.2,0,0,1-1.123-.308,3.947,3.947,0,0,1-1.19-1.217,8.21,8.21,0,0,0-.522-.67,5.494,5.494,0,0,0-1.489-1.155,9.792,9.792,0,0,0-1.748-.721,3.456,3.456,0,0,0-.834.618.149.149,0,0,1-.107.044.191.191,0,0,1-.166-.1.13.13,0,0,1,.015-.142,3.477,3.477,0,0,1,.561-.579l-.1-.03a.4.4,0,0,1-.28-.27.458.458,0,0,1,.1-.427A4.577,4.577,0,0,1,42.682,76.5a6.78,6.78,0,0,1,3.436.952,5.48,5.48,0,0,1,1.336,1.106,4.145,4.145,0,0,1,.829,1.451,2.258,2.258,0,0,1-.59,2.234A2.481,2.481,0,0,1,46.036,82.909Zm3.594-11.3c-.032,0-.064,0-.094,0a1.72,1.72,0,0,1-1.462-.838,1.332,1.332,0,0,1-.233-.819,2.088,2.088,0,0,1,.206-.835l.027-.055a7.68,7.68,0,0,0,.8-2.517,7.2,7.2,0,0,0-.135-2.635,16.354,16.354,0,0,0-.849-2.4,16.5,16.5,0,0,1-.841-2.371,10.17,10.17,0,0,1,1.4-7.628,5.015,5.015,0,0,1-2.6-1.621h0a.5.5,0,0,1-.078-.526.376.376,0,0,1,.356-.238h.036l.478.039.108.009c.632.053,1.228.1,1.832.1a7.591,7.591,0,0,0,2.069-.26,6.807,6.807,0,0,0,1.929-.917l.13-.086a3.05,3.05,0,0,1,2.059-.576h.022a1.214,1.214,0,0,1,.857.41.886.886,0,0,1,.241.69l-.021.164a3.08,3.08,0,0,1-.458,1.37,2.781,2.781,0,0,1-1.186.918,9.012,9.012,0,0,1-3.009.785c-.211.019-.431.029-.654.029-.193,0-.391-.007-.588-.022l-.09.517a22.089,22.089,0,0,0-.373,3.123,11.785,11.785,0,0,0,1.436,5.27l.017.039a14.445,14.445,0,0,1,.868,2.512,11.518,11.518,0,0,1,.325,2.511,10.592,10.592,0,0,1-.263,2.51A11.621,11.621,0,0,1,51,70.767,1.659,1.659,0,0,1,49.63,71.61ZM60.907,48.474a1.348,1.348,0,0,1-1.1-.522,1.577,1.577,0,0,1-.3-.738,2.4,2.4,0,0,1,.069-.97,6.349,6.349,0,0,1,1.2-2.121c.138-.183.28-.372.413-.561a23.565,23.565,0,0,0,1.542-2.479,14.855,14.855,0,0,0,1.12-2.655,9.7,9.7,0,0,0,.441-2.839,8.937,8.937,0,0,0-.427-2.651,8.376,8.376,0,0,0-1.215-2.418,6.245,6.245,0,0,0-1.935-1.761,5.169,5.169,0,0,0-2.586-.681h-.077a.2.2,0,0,1-.2-.2.216.216,0,0,1,.207-.23c.137-.008.275-.012.411-.012A7.491,7.491,0,0,1,62.864,29.1a9.428,9.428,0,0,1,2.977,3.631c1.688,3.573.678,7.542-.467,10.243l-.388.9a18.106,18.106,0,0,1-1.213,2.4,5.514,5.514,0,0,1-1.746,1.856A2.206,2.206,0,0,1,60.907,48.474Zm17.336-4.049a2.778,2.778,0,0,1-1.6-.517,2.685,2.685,0,0,1-1-1.378,1.086,1.086,0,0,1,.052-.775,1.4,1.4,0,0,1,.505-.6,8.239,8.239,0,0,0,3.22-3.7,12.178,12.178,0,0,0,.746-2.544,15.3,15.3,0,0,0,.232-2.641A12.4,12.4,0,0,0,75.4,21.961a.23.23,0,0,1-.08-.262.2.2,0,0,1,.182-.145.213.213,0,0,1,.115.037,16.586,16.586,0,0,1,5.038,5.173,16.9,16.9,0,0,1,2.5,6.776,15.974,15.974,0,0,1,.026,3.949,12.711,12.711,0,0,1-1.05,3.8,6.725,6.725,0,0,1-1.286,1.9,4.144,4.144,0,0,1-1.95,1.155A2.741,2.741,0,0,1,78.243,44.424ZM125.781,41a1.917,1.917,0,0,1-.975-.274,1.806,1.806,0,0,1-.687-.705,1.414,1.414,0,0,1,.126-1.516c.184-.267.374-.526.558-.776a9.665,9.665,0,0,0,1.552-2.685,10.949,10.949,0,0,0,.527-3.715,11.557,11.557,0,0,0-2.913-7.557.238.238,0,0,1-.045-.262.241.241,0,0,1,.218-.146.253.253,0,0,1,.118.031,9.352,9.352,0,0,1,1.955,1.376,9.972,9.972,0,0,1,1.538,1.792,11.222,11.222,0,0,1,1.73,4.413,12.653,12.653,0,0,1,.151,2.491,13.42,13.42,0,0,1-.348,2.621,8.827,8.827,0,0,1-2.384,4.468A1.618,1.618,0,0,1,125.781,41ZM91.46,40.246a3.142,3.142,0,0,1-1.087-.2,1.388,1.388,0,0,1-.9-.922,1.417,1.417,0,0,1,.318-1.274,7.913,7.913,0,0,1,1.669-1.4,7.168,7.168,0,0,0,1.826-1.6,6.829,6.829,0,0,0,1.091-2.4,9.659,9.659,0,0,0,.252-2.638l-.008-.2a17.106,17.106,0,0,0-1.4-5.9,7.456,7.456,0,0,0-1.729-2.469,3.771,3.771,0,0,0-2.554-1.013h-.112a.159.159,0,0,1-.165-.165.177.177,0,0,1,.17-.189c.1,0,.2-.007.3-.007a6.066,6.066,0,0,1,3.2.918,8.862,8.862,0,0,1,2.465,2.327,13.862,13.862,0,0,1,1.7,3.095,15.489,15.489,0,0,1,.908,3.222,10.557,10.557,0,0,1-1.321,7.483l-.084.131a9.335,9.335,0,0,1-1.933,2.163A4.224,4.224,0,0,1,91.46,40.246Zm17.464-.718a2.15,2.15,0,0,1-.814-.166c-.574-.234-1.247-.9-.944-1.663a3.1,3.1,0,0,1,1.2-1.44c.137-.105.279-.214.43-.34a4.689,4.689,0,0,0,1.227-1.778,10.222,10.222,0,0,0,.736-2.773,15.74,15.74,0,0,0,.089-2.875l-.014-.222a15,15,0,0,0-.526-2.941A12.5,12.5,0,0,0,109.09,22.4a7.157,7.157,0,0,0-1.98-2.251,4.761,4.761,0,0,0-2.8-.9h-.124a.131.131,0,0,1-.14-.127.166.166,0,0,1,.145-.177,5.6,5.6,0,0,1,.707-.046,5.448,5.448,0,0,1,2.931.873,8.624,8.624,0,0,1,2.289,2.2,14.512,14.512,0,0,1,1.636,2.881,17.345,17.345,0,0,1,1.431,6.678,12.69,12.69,0,0,1-.493,3.734l-.053.17a9.259,9.259,0,0,1-1.36,2.632,4.591,4.591,0,0,1-1.071,1.042A2.306,2.306,0,0,1,108.924,39.528ZM119.809,37.4a2.98,2.98,0,0,1-.763-.108.946.946,0,0,1-.609-.484,1.208,1.208,0,0,1-.106-.775,2.906,2.906,0,0,1,1.1-1.793c.152-.144.309-.293.477-.469a7.286,7.286,0,0,0,1.524-2.509,10.2,10.2,0,0,0,.266-5.916,20.3,20.3,0,0,0-2.756-6.111l-.258-.406-.163-.258-.01-.016c-1.2-1.906-2.841-4.516-5.188-4.516a3.231,3.231,0,0,0-.389.024l-.027,0a.146.146,0,0,1-.15-.129.222.222,0,0,1,.126-.245,3.4,3.4,0,0,1,1.211-.229,4.556,4.556,0,0,1,2.865,1.208,17.978,17.978,0,0,1,2.253,2.348,32.974,32.974,0,0,1,2.651,3.549,18.827,18.827,0,0,1,1.956,3.964,12.755,12.755,0,0,1,.239,7.85,10.421,10.421,0,0,1-1.816,3.469l-.105.13A3.018,3.018,0,0,1,119.809,37.4Z" transform="translate(-15.358 13.208)"/>
  </g>
  <g id="FACE" transform="translate(143.081 98.659)">
    <path id="_Ink-3" data-name="ðŸ– Ink" d="M22.345,52.023a2.369,2.369,0,0,1-2.1-1.613,2.282,2.282,0,0,1-.105-1.275,2.167,2.167,0,0,1,.735-1.2l.067-.056a3.125,3.125,0,0,0,.817-1.1,6.9,6.9,0,0,0,.489-1.492,12.243,12.243,0,0,0,.25-2.982,11.634,11.634,0,0,0-.566-3.091l-.068-.2c-.095-.268-1.052-2.631-1.492-2.631a.115.115,0,0,0-.077.03l-.019.019a.184.184,0,0,1-.142.073.192.192,0,0,1-.162-.1.2.2,0,0,1,.006-.208,1.035,1.035,0,0,1,.877-.59c.48,0,1.32.4,2.595,2.289a16,16,0,0,1,1.59,2.942,13.811,13.811,0,0,1,.6,2.833,8.425,8.425,0,0,0,1.84.2,9.267,9.267,0,0,0,1.739-.168,9.215,9.215,0,0,0,3.175-1.4c.392-.238.8-.485,1.24-.72a1.8,1.8,0,0,1,.856-.21,2.591,2.591,0,0,1,2.115,1.249,2.145,2.145,0,0,1,.256,1.649,3.038,3.038,0,0,1-.879,1.437,5.681,5.681,0,0,1-2.357,1.276,10.156,10.156,0,0,1-2.847.4,9.351,9.351,0,0,1-1.761-.16A9,9,0,0,1,25.7,45.862q0,.054-.005.108c0,.087-.008.176-.015.264l-.019.215a12.138,12.138,0,0,1-.55,2.755,5.06,5.06,0,0,1-1.44,2.3A2.036,2.036,0,0,1,22.345,52.023Zm9.773-18.536h0a9.4,9.4,0,0,1-3.354-.676,16.94,16.94,0,0,1-3.945-2.239,1.516,1.516,0,0,1-.551-.876,1.815,1.815,0,0,1,.078-.984,2.237,2.237,0,0,1,.664-.96,1.616,1.616,0,0,1,1.035-.4,1.468,1.468,0,0,1,.8.246l.263.2.007.005a21.355,21.355,0,0,0,2.469,1.718,6.081,6.081,0,0,0,2.96.944,3.2,3.2,0,0,0,1.251-.246,3.5,3.5,0,0,0,1.165-.826,3.574,3.574,0,0,0,.678-2.876A5.434,5.434,0,0,0,34.2,23.965,10.51,10.51,0,0,0,32.015,22.2a.677.677,0,0,1-.183-.778,1.016,1.016,0,0,1,.336-.484,1.031,1.031,0,0,1,.644-.213,1.371,1.371,0,0,1,.232.02,7.316,7.316,0,0,1,2.573.93,5.838,5.838,0,0,1,1.731,1.6,6.344,6.344,0,0,1,1.105,4.237,6.983,6.983,0,0,1-.566,2.224,6.489,6.489,0,0,1-1.276,1.911A6.1,6.1,0,0,1,32.118,33.487ZM5.608,19.209a.318.318,0,0,1-.29-.179,4.491,4.491,0,0,1-.54-2.249,5.281,5.281,0,0,1,.554-2.187,7.153,7.153,0,0,1,2.059-2.5,6.69,6.69,0,0,1,2.9-1.331,7.305,7.305,0,0,1,1.272-.112,7.471,7.471,0,0,1,2.3.365,7.77,7.77,0,0,1,2.1,1.052l.125.09a7.961,7.961,0,0,1,2.16,2.283,3.8,3.8,0,0,1,.513,1.42,2.714,2.714,0,0,1-.224,1.492,1.208,1.208,0,0,1-.55.576,1.67,1.67,0,0,1-.78.183,1.8,1.8,0,0,1-.823-.194,3.593,3.593,0,0,1-1.336-1.536A4.761,4.761,0,0,0,13.984,15a4.5,4.5,0,0,0-2.746-1c-.109,0-.219,0-.326.015a4.68,4.68,0,0,0-3.123,1.737,10.4,10.4,0,0,0-1.8,3.194A.417.417,0,0,1,5.608,19.209Zm41.9-.679a2.148,2.148,0,0,1-1.2-.359,1.862,1.862,0,0,1-.756-1.067c-.075-.275-.128-.543-.179-.8a3.921,3.921,0,0,0-.816-2,3.134,3.134,0,0,0-1.006-.778,2.793,2.793,0,0,0-1.225-.283c-.062,0-.126,0-.188.006a4.283,4.283,0,0,0-2.706,1.31,6.8,6.8,0,0,0-.793,1.037,5.562,5.562,0,0,1-.927,1.155.439.439,0,0,1-.282.11.4.4,0,0,1-.272-.11,2.449,2.449,0,0,1-.577-2.2,5.875,5.875,0,0,1,.85-2.233,6.634,6.634,0,0,1,2.025-1.979,6.061,6.061,0,0,1,2.681-.9c.141-.012.286-.018.431-.018a7.541,7.541,0,0,1,5.652,2.946A5.48,5.48,0,0,1,49.4,17.1a1.818,1.818,0,0,1-.726,1.073A2.064,2.064,0,0,1,47.507,18.531ZM1,11.009a.5.5,0,0,1-.381-.161C-.39,9.712.022,8.126.545,7A11.067,11.067,0,0,1,3.033,3.633,15.227,15.227,0,0,1,6.8,1.234,11.2,11.2,0,0,1,11.279.157a6.284,6.284,0,0,1,1.933.287,2.572,2.572,0,0,1,1.3.988,3.009,3.009,0,0,1,.55,1.54,2.075,2.075,0,0,1-1.243,2.106,13.094,13.094,0,0,1-3.824.892A13.137,13.137,0,0,0,6.052,6.9,7.5,7.5,0,0,0,3.292,8.9c-.115.141-.227.287-.347.443a5.155,5.155,0,0,1-1.642,1.6A.713.713,0,0,1,1,11.009Zm47.01-2.494A1.993,1.993,0,0,1,47,8.237,5.611,5.611,0,0,1,45.412,6.62a8.378,8.378,0,0,0-1.028-1.209,8.94,8.94,0,0,0-2.7-1.679,9.319,9.319,0,0,0-3.374-.666h-.067a8.522,8.522,0,0,0-1.6.206c-.344.067-.7.135-1.046.172a.037.037,0,0,1,0,.038c-.019.031-.093.047-.213.047a3.035,3.035,0,0,1-.82-.138c-.317-.135-.289-.532-.2-.75A3.348,3.348,0,0,1,35.9,1.158,9.473,9.473,0,0,1,40.537,0a12.443,12.443,0,0,1,2.122.187A10.415,10.415,0,0,1,47,2.017l.145.109a10.364,10.364,0,0,1,2,1.879,3.754,3.754,0,0,1,.91,2.476,2.159,2.159,0,0,1-.651,1.452A2.009,2.009,0,0,1,48.005,8.515Z" transform="translate(14.012 16.713)"/>
  </g>
  <g id="FACIAL_HAIR" data-name="FACIAL HAIR" transform="translate(133.38 139.632)">
    <path id="_Ink-4" data-name="ðŸ– Ink" d="M23.912,40.47h0a19.683,19.683,0,0,1-3.9-.384,32.03,32.03,0,0,1-5.321-1.01c-1.96-.515-4.1-1.187-6.182-1.946a54,54,0,0,1-5.392-2.26A9.29,9.29,0,0,1,.165,32.915a.608.608,0,0,1-.156-.476A4.237,4.237,0,0,1,1.23,30.047a2.807,2.807,0,0,1,1.917-.639,12.421,12.421,0,0,1,3.469.755c.626.2,1.274.4,1.873.537a48.814,48.814,0,0,0,8.316.687c3.657-.8,2.994-6.537,2.745-8.7v0c-.028-.242-.05-.434-.061-.572a6.162,6.162,0,0,1,.255-2.176,5.715,5.715,0,0,1,1.14-2.128,4.108,4.108,0,0,1,2.953-1.432c.068,0,.137-.006.2-.006a3.425,3.425,0,0,1,2.008.642,5.153,5.153,0,0,1,1.382,1.529,9.477,9.477,0,0,1,1.21,3.336c.042.289.081.647.125,1.062a23.166,23.166,0,0,0,.665,3.935,4.738,4.738,0,0,0,.737,1.562,1.474,1.474,0,0,0,1.174.631,1.656,1.656,0,0,0,.391-.049A18.727,18.727,0,0,0,36.088,26.5c1.07-.73,2.08-1.42,2.89-1.852a5.384,5.384,0,0,1,1.452-.231,2.033,2.033,0,0,1,1.65.661,3.173,3.173,0,0,1,.395,2.623,15.424,15.424,0,0,1-1.76,3.421,27.486,27.486,0,0,1-2.377,3.407A17.18,17.18,0,0,1,35.3,37.1a19.379,19.379,0,0,1-3.544,1.86A21.263,21.263,0,0,1,23.912,40.47Zm16.56-27.122h0a7.074,7.074,0,0,1-3.259-.984,14.306,14.306,0,0,0-2.737-1.093c-1.158-.306-2.415-.572-3.632-.829a24.5,24.5,0,0,1-5.666-1.6A21.326,21.326,0,0,1,17.7,10.964h0l-.514.08A28.914,28.914,0,0,0,13.1,12.117,19.86,19.86,0,0,1,7.5,13.327c-.17,0-.339-.006-.5-.017a.322.322,0,0,1-.131.022,2.636,2.636,0,0,1-1.793-1.18,3.288,3.288,0,0,1-.557-1.632,5.714,5.714,0,0,1,.43-2.462,7.9,7.9,0,0,1,1.6-2.518A12.217,12.217,0,0,1,9.032,3.516,21.793,21.793,0,0,1,15.467.924,29.3,29.3,0,0,1,22.121,0,9.094,9.094,0,0,1,25.8.628,9.634,9.634,0,0,1,28.973.16a19.083,19.083,0,0,1,5.489.882,16.452,16.452,0,0,1,5.065,2.514A7.967,7.967,0,0,1,41.2,5.33a10.284,10.284,0,0,1,1.159,2.185,9.385,9.385,0,0,1,.573,2.242,5.292,5.292,0,0,1-.09,1.944,1.95,1.95,0,0,1-1.656,1.6A5.466,5.466,0,0,1,40.473,13.348Z" transform="translate(30.226 7.817)"/>
  </g>
  <g id="ACCESORIES" transform="translate(112.902 113.485)">
    <path id="_Ink-5" data-name="ðŸ– Ink" d="M53.028,29.072h0a14.883,14.883,0,0,1-4.986-.832,13,13,0,0,1-4.383-2.6,14.1,14.1,0,0,1-3.3-4.521,20.493,20.493,0,0,1-1.742-6.6,3.912,3.912,0,0,0-.858-2.446,4.577,4.577,0,0,0-2.033-.9c-.336-.1-.717-.205-1.136-.34l-.363-.074h0c-.4-.081-.82-.165-1.231-.283a1.725,1.725,0,0,1-.548.1c-.578,0-.983-.358-1.544-.854a11.943,11.943,0,0,0-.945-.775c-.969-.7-2.673-1.629-6.269-1.629A38.252,38.252,0,0,0,15.546,8.4a111.336,111.336,0,0,0-13.02,3.946c-.017.874-.463,1.485-1.086,1.486a1.181,1.181,0,0,1-.674-.234,3.755,3.755,0,0,1-.742-1.665,2.462,2.462,0,0,1,.255-1.481C.865,9.292,2.384,8.24,4.794,7.321A44.472,44.472,0,0,1,12.75,5.291,101.1,101.1,0,0,1,28.161,3.865c.365,0,.693.005.976.015a7.7,7.7,0,0,1,2.116-.369,3.04,3.04,0,0,1,1.128.195c1.224-.985,3.648-1.891,6.827-2.553A53.629,53.629,0,0,1,49.791.117a48.8,48.8,0,0,1,5.3.278,34.526,34.526,0,0,1,4.975.894,20.578,20.578,0,0,1,4.272,1.6,11.221,11.221,0,0,1,3.192,2.392,11.083,11.083,0,0,0,3.376.525,14.158,14.158,0,0,0,4.635-.859,45.177,45.177,0,0,0,4.431-1.9A38.239,38.239,0,0,1,85.367.838c.524-.117,1.921-.325,3.748-.5C90.669.182,93.055,0,95.594,0a28.174,28.174,0,0,1,7.54.814c2.323.673,3.566,1.757,3.7,3.222a6.123,6.123,0,0,1,.193,2.117,5.168,5.168,0,0,1-.527,2.365.684.684,0,0,1-.564.369,1,1,0,0,1-.614-.28,7.891,7.891,0,0,0-1.618,1.637,9.766,9.766,0,0,0-1.092,1.925,26.53,26.53,0,0,0-1.313,4.349,17.366,17.366,0,0,1-2.6,6.632,8.172,8.172,0,0,1-3.207,2.654,10.237,10.237,0,0,1-4.377.963,11.686,11.686,0,0,1-8.429-3.732,16.388,16.388,0,0,1-3.244-5.062,26.529,26.529,0,0,1-1.819-7.546,6.611,6.611,0,0,0-2.5-.47,15.379,15.379,0,0,0-2.7.32,19.057,19.057,0,0,1-2.322.317,15.779,15.779,0,0,1-.557,6.893,15.4,15.4,0,0,1-3.132,5.518,17.222,17.222,0,0,1-2.814,2.566,18.35,18.35,0,0,1-3.287,1.9A17.924,17.924,0,0,1,53.028,29.072Zm2.02-23.733A22.421,22.421,0,0,0,47.513,6.5a11.885,11.885,0,0,0-5.854,4.229,5.352,5.352,0,0,0-.6,4.556,25.461,25.461,0,0,0,1.64,4.22,16.171,16.171,0,0,0,2.422,3.608A10.019,10.019,0,0,0,52.8,26.578a14.41,14.41,0,0,0,3.854-.567,15.051,15.051,0,0,0,7.324-4.634A14.162,14.162,0,0,0,66.307,17.7a12.327,12.327,0,0,0,1.012-4.22,9.663,9.663,0,0,0-.478-3.621,7.493,7.493,0,0,0-1.907-3.032A31.95,31.95,0,0,0,60.428,5.78,34.028,34.028,0,0,0,55.047,5.339ZM92.62,3.609a9.819,9.819,0,0,0-2.557.34A12.572,12.572,0,0,0,84.417,7.2a11.992,11.992,0,0,0-2.085,2.831,12.923,12.923,0,0,0-1.266,3.636,8.875,8.875,0,0,0,.172,3.445,6.674,6.674,0,0,0,1.2,2.776,14.972,14.972,0,0,0,4.2,3.158,11.759,11.759,0,0,0,5.255,1.413,6.737,6.737,0,0,0,2.949-.636,7.929,7.929,0,0,0,2.671-2.4A13.427,13.427,0,0,0,99.2,18.1a38.13,38.13,0,0,0,1.573-7.231,5.046,5.046,0,0,0-.206-2.326A6,6,0,0,0,99.388,6.5a8.183,8.183,0,0,0-2.917-2.1A9.7,9.7,0,0,0,92.62,3.609Z" transform="translate(0.27 4.852)"/>
  </g>
</svg>
